<?xml version="1.0" encoding="UTF-8" standalone="no"?><!DOCTYPE svg PUBLIC "-//W3C//DTD SVG 1.1//EN" "http://www.w3.org/Graphics/SVG/1.1/DTD/svg11.dtd"><svg width="100%" height="100%" viewBox="0 0 1198 244" version="1.1" xmlns="http://www.w3.org/2000/svg" xmlns:xlink="http://www.w3.org/1999/xlink" xml:space="preserve" xmlns:serif="http://www.serif.com/" style="fill-rule:evenodd;clip-rule:evenodd;stroke-linejoin:round;stroke-miterlimit:2;"><path d="M67.657,0l-3.223,0l-47.07,121.191c-4.59,12.012 -10.547,16.211 -15.723,17.383l0,4.004c4.004,-0.391 8.203,-0.586 14.942,-0.586c7.031,0 15.429,0.195 23.047,0.586l0,-4.004c-11.426,-0.293 -17.383,-3.32 -17.383,-12.012c0,-4.101 1.269,-9.472 4.004,-16.406l8.203,-21.191l48.242,0l12.305,32.812c1.562,4.004 2.343,7.032 2.343,9.375c0,5.567 -4.492,7.032 -14.16,7.422l0,4.004c5.664,-0.391 15.235,-0.586 25.586,-0.586c7.617,0 16.016,0.195 21.485,0.586l0,-4.004c-4.2,-0.195 -9.864,-2.637 -13.868,-12.793l-48.73,-125.781Zm13.574,84.961l-45.312,0l22.949,-59.668l22.363,59.668Z" style="fill:#fff;fill-rule:nonzero;"/><path d="M214.356,0.977c-6.152,0.39 -16.211,0.585 -25.391,0.585c-10.351,0 -20.019,-0.195 -25.585,-0.585l0,4.003c13.574,0.586 16.21,2.637 16.21,17.188l0,99.219c0,14.55 -2.636,16.601 -16.21,17.187l0,4.004c19.628,-0.586 45.996,-0.586 58.007,-0.586c13.379,0 32.227,0 45.801,0.586c-0.976,-10.156 -1.367,-20.605 -1.367,-25.586c0,-6.445 0.195,-12.207 0.586,-16.406l-4.59,0c-2.832,27.832 -7.812,37.402 -32.812,37.402l-14.649,0c-13.574,0 -16.211,-2.051 -16.211,-16.601l0,-99.219c0,-14.551 2.637,-16.602 16.211,-17.188l0,-4.003Z" style="fill:#fff;fill-rule:nonzero;"/><path d="M367.208,0l-3.223,0l-47.07,121.191c-4.59,12.012 -10.547,16.211 -15.723,17.383l0,4.004c4.004,-0.391 8.203,-0.586 14.941,-0.586c7.032,0 15.43,0.195 23.047,0.586l0,-4.004c-11.425,-0.293 -17.383,-3.32 -17.383,-12.012c0,-4.101 1.27,-9.472 4.004,-16.406l8.204,-21.191l48.242,0l12.304,32.812c1.563,4.004 2.344,7.032 2.344,9.375c0,5.567 -4.492,7.032 -14.16,7.422l0,4.004c5.664,-0.391 15.234,-0.586 25.586,-0.586c7.617,0 16.016,0.195 21.484,0.586l0,-4.004c-4.199,-0.195 -9.863,-2.637 -13.867,-12.793l-48.73,-125.781Zm13.574,84.961l-45.313,0l22.95,-59.668l22.363,59.668Z" style="fill:#fff;fill-rule:nonzero;"/><path d="M529.337,67.383c22.363,-6.836 30.371,-20.606 30.371,-34.766c0,-18.457 -14.161,-31.445 -42.188,-31.445c-4.785,0 -17.578,0.39 -30.176,0.39c-8.789,0 -18.847,-0.195 -24.414,-0.585l0,4.003c13.575,0.586 16.211,2.637 16.211,17.188l0,99.219c0,14.55 -2.636,16.601 -16.211,17.187l0,4.004c5.567,-0.391 15.43,-0.586 24.805,-0.586c16.406,0 28.418,0.586 34.375,0.586c29.98,0 48.047,-16.016 48.047,-38.769c0,-16.211 -9.18,-31.836 -40.82,-36.036l0,-0.39Zm-16.797,-62.403c20.019,0 28.027,10.157 28.027,29.786c0,17.382 -5.859,32.617 -29.395,32.617l-13.476,0l0,-45.215c0,-13.77 2.637,-17.188 14.844,-17.188Zm0.195,133.008c-12.402,0 -15.039,-2.636 -15.039,-16.601l0,-50.586l16.797,0c25.39,0 35.644,11.816 35.644,32.129c0,22.461 -11.23,35.058 -37.402,35.058Z" style="fill:#fff;fill-rule:nonzero;"/><path d="M672.422,0l-3.222,0l-47.07,121.191c-4.59,12.012 -10.547,16.211 -15.723,17.383l0,4.004c4.004,-0.391 8.203,-0.586 14.941,-0.586c7.032,0 15.43,0.195 23.047,0.586l0,-4.004c-11.426,-0.293 -17.383,-3.32 -17.383,-12.012c0,-4.101 1.27,-9.472 4.004,-16.406l8.203,-21.191l48.243,0l12.304,32.812c1.563,4.004 2.344,7.032 2.344,9.375c0,5.567 -4.492,7.032 -14.16,7.422l0,4.004c5.664,-0.391 15.234,-0.586 25.586,-0.586c7.617,0 16.015,0.195 21.484,0.586l0,-4.004c-4.199,-0.195 -9.863,-2.637 -13.867,-12.793l-48.731,-125.781Zm13.575,84.961l-45.313,0l22.949,-59.668l22.364,59.668Z" style="fill:#fff;fill-rule:nonzero;"/><path d="M925.567,0.977c-6.25,0.39 -16.211,0.585 -25.391,0.585l-9.472,0l-42.969,115.43l-43.945,-116.015c-4.395,0.39 -11.231,0.585 -17.09,0.585c-6.738,0 -14.16,-0.195 -18.555,-0.585l0,4.003c13.574,0.586 16.211,2.637 16.211,17.188l0,97.168c0,14.648 -2.637,18.652 -16.211,19.238l0,4.004c4.395,-0.391 11.817,-0.586 18.555,-0.586c6.836,0 15.625,0.195 20.41,0.586l0,-4.004c-15.527,-0.586 -18.164,-4.59 -18.164,-19.238l0,-105.566l50.391,129.785l3.222,0l48.145,-129.2l0,107.032c0,14.55 -2.539,16.601 -16.114,17.187l0,4.004c5.567,-0.391 15.137,-0.586 25.586,-0.586c9.18,0 19.141,0.195 25.391,0.586l0,-4.004c-13.574,-0.586 -16.211,-2.637 -16.211,-17.187l0,-99.219c0,-14.551 2.637,-16.602 16.211,-17.188l0,-4.003Z" style="fill:#fff;fill-rule:nonzero;"/><path d="M1028.61,0l-3.223,0l-47.07,121.191c-4.59,12.012 -10.547,16.211 -15.723,17.383l0,4.004c4.004,-0.391 8.203,-0.586 14.942,-0.586c7.031,0 15.429,0.195 23.047,0.586l0,-4.004c-11.426,-0.293 -17.383,-3.32 -17.383,-12.012c0,-4.101 1.269,-9.472 4.004,-16.406l8.203,-21.191l48.242,0l12.305,32.812c1.562,4.004 2.343,7.032 2.343,9.375c0,5.567 -4.492,7.032 -14.16,7.422l0,4.004c5.664,-0.391 15.235,-0.586 25.586,-0.586c7.617,0 16.016,0.195 21.485,0.586l0,-4.004c-4.2,-0.195 -9.864,-2.637 -13.868,-12.793l-48.73,-125.781Zm13.574,84.961l-45.312,0l22.949,-59.668l22.363,59.668Z" style="fill:#fff;fill-rule:nonzero;"/><path d="M20.63,191.022l-1.007,0l-14.71,37.873c-1.434,3.753 -3.296,5.066 -4.913,5.432l0,1.251c1.251,-0.122 2.563,-0.183 4.669,-0.183c2.197,0 4.822,0.061 7.202,0.183l0,-1.251c-3.57,-0.092 -5.432,-1.038 -5.432,-3.754c0,-1.281 0.397,-2.96 1.251,-5.127l2.564,-6.622l15.076,0l3.845,10.254c0.488,1.251 0.732,2.197 0.732,2.93c0,1.739 -1.404,2.197 -4.425,2.319l0,1.251c1.77,-0.122 4.761,-0.183 7.996,-0.183c2.38,0 5.005,0.061 6.714,0.183l0,-1.251c-1.313,-0.061 -3.083,-0.824 -4.334,-3.998l-15.228,-39.307Zm4.242,26.551l-14.16,0l7.171,-18.646l6.989,18.646Z" style="fill:#fff;fill-rule:nonzero;"/><path d="M91.357,231.763c-1.159,1.465 -1.892,2.381 -3.418,2.381c-1.739,0 -2.441,-1.496 -3.204,-5.127l-1.556,-6.378c-1.19,-5.188 -3.205,-7.325 -8.759,-8.24l-0.763,-0.122c9.43,-1.465 12.146,-7.691 12.146,-12.024c0,-6.104 -5.005,-10.864 -15.075,-10.864c-1.496,0 -5.494,0.122 -9.43,0.122c-2.747,0 -5.89,-0.061 -7.63,-0.183l0,1.251c4.242,0.183 5.066,0.824 5.066,5.371l0,31.006c0,4.547 -0.824,5.188 -5.066,5.371l0,1.251c1.74,-0.122 4.761,-0.183 7.996,-0.183c2.868,0 6.012,0.061 7.934,0.183l0,-1.251c-4.242,-0.183 -5.066,-0.824 -5.066,-5.371l0,-14.374l5.951,0c4.944,0 5.86,3.571 7.05,8.881l1.373,6.225c1.19,5.341 3.571,6.775 6.714,6.775c3.357,0 4.913,-1.434 6.683,-3.998l-0.946,-0.702Zm-22.186,-39.184c7.569,0 10.376,3.815 10.376,10.376c0,5.737 -1.953,10.376 -10.803,10.376l-4.212,0l0,-15.381c0,-4.303 0.824,-5.371 4.639,-5.371Z" style="fill:#fff;fill-rule:nonzero;"/><path d="M127.234,190.443c-11.627,0 -19.867,9.399 -19.867,23.376c0,14.313 7.935,22.644 19.806,22.644c5.371,0 8.484,-1.892 11.566,-4.059c0.519,-0.335 0.946,-0.519 1.282,-0.519c0.885,0 1.312,1.13 1.526,3.693l1.434,0c-0.183,-3.174 -0.244,-7.446 -0.244,-15.015l-1.435,0c-0.64,5.066 -1.068,7.447 -2.899,9.888c-2.35,3.388 -6.927,4.761 -10.681,4.761c-8.056,0 -14.129,-7.691 -14.129,-21.637c0,-13.55 5.371,-22.003 13.519,-22.003c4.303,0 8.423,1.495 11.047,4.883c1.77,2.258 2.258,3.936 3.143,9.246l1.435,0c0,-7.263 0.061,-11.322 0.244,-14.373l-1.434,0c-0.214,2.563 -0.733,3.723 -1.587,3.723c-0.366,0 -0.763,-0.183 -1.221,-0.55c-2.747,-2.105 -6.012,-4.058 -11.505,-4.058Z" style="fill:#fff;fill-rule:nonzero;"/><path d="M204.218,191.328c-1.74,0.122 -4.731,0.183 -7.996,0.183c-2.869,0 -5.982,-0.061 -7.935,-0.183l0,1.251c4.242,0.183 5.066,0.824 5.066,5.371l0,14.74l-20.324,0l0,-14.74c0,-4.547 0.824,-5.188 5.065,-5.371l0,-1.251c-1.922,0.122 -5.065,0.183 -7.934,0.183c-3.235,0 -6.256,-0.061 -7.996,-0.183l0,1.251c4.242,0.183 5.066,0.824 5.066,5.371l0,31.006c0,4.547 -0.824,5.188 -5.066,5.371l0,1.251c1.74,-0.122 4.761,-0.183 7.996,-0.183c2.869,0 6.012,0.061 7.934,0.183l0,-1.251c-4.241,-0.183 -5.065,-0.824 -5.065,-5.371l0,-15.015l20.324,0l0,15.015c0,4.547 -0.824,5.188 -5.066,5.371l0,1.251c1.953,-0.122 5.066,-0.183 7.935,-0.183c3.265,0 6.256,0.061 7.996,0.183l0,-1.251c-4.242,-0.183 -5.066,-0.824 -5.066,-5.371l0,-31.006c0,-4.547 0.824,-5.188 5.066,-5.371l0,-1.251Z" style="fill:#fff;fill-rule:nonzero;"/><path d="M239.545,191.022l-1.007,0l-14.71,37.873c-1.434,3.753 -3.296,5.066 -4.913,5.432l0,1.251c1.251,-0.122 2.563,-0.183 4.669,-0.183c2.197,0 4.822,0.061 7.202,0.183l0,-1.251c-3.57,-0.092 -5.432,-1.038 -5.432,-3.754c0,-1.281 0.397,-2.96 1.251,-5.127l2.564,-6.622l15.075,0l3.846,10.254c0.488,1.251 0.732,2.197 0.732,2.93c0,1.739 -1.404,2.197 -4.425,2.319l0,1.251c1.77,-0.122 4.761,-0.183 7.996,-0.183c2.38,0 5.004,0.061 6.713,0.183l0,-1.251c-1.312,-0.061 -3.082,-0.824 -4.333,-3.998l-15.228,-39.307Zm4.242,26.551l-14.161,0l7.172,-18.646l6.989,18.646Z" style="fill:#fff;fill-rule:nonzero;"/><path d="M304.596,227.583c0,-1.74 0.061,-3.388 0.183,-4.517l-1.434,0c-0.885,8.27 -2.442,11.078 -10.254,11.078l-4.578,0c-4.242,0 -5.066,-0.641 -5.066,-5.188l0,-15.015l4.151,0c5.432,0 5.493,4.273 5.981,8.27l1.434,0c-0.305,-4.76 -0.366,-6.836 -0.366,-8.88c0,-0.916 -0.03,-1.831 -0.03,-2.991c0,-1.434 0.03,-3.235 0.213,-5.89l-1.434,0c-0.488,2.991 -0.366,8.24 -5.798,8.24l-4.151,0l0,-14.74c0,-4.547 0.824,-5.188 5.066,-5.188l5.188,0c6.622,0 7.569,2.441 8.393,9.827l1.434,0c-0.122,-0.946 -0.183,-2.381 -0.183,-3.876c0,-1.434 0.122,-4.456 0.427,-7.385c-3.876,0.183 -9.247,0.183 -13.062,0.183c-3.753,0 -11.993,0 -18.127,-0.183l0,1.251c4.242,0.183 5.066,0.824 5.066,5.371l0,31.006c0,4.547 -0.824,5.188 -5.066,5.371l0,1.251c6.134,-0.183 14.374,-0.183 18.127,-0.183c4.181,0 10.071,0 14.313,0.183c-0.305,-3.174 -0.427,-6.439 -0.427,-7.995Z" style="fill:#fff;fill-rule:nonzero;"/><path d="M343.707,190.443c-11.627,0 -19.867,9.399 -19.867,23.376c0,14.313 7.935,22.644 19.806,22.644c11.627,0 19.867,-9.399 19.867,-23.376c0,-14.313 -7.934,-22.644 -19.806,-22.644Zm-0.244,1.129c7.691,0 13.794,8.453 13.794,21.759c0,12.939 -5.249,22.003 -13.367,22.003c-7.69,0 -13.824,-8.453 -13.824,-21.759c0,-12.94 5.249,-22.003 13.397,-22.003Z" style="fill:#fff;fill-rule:nonzero;"/><path d="M397.406,191.328c-1.923,0.122 -5.066,0.183 -7.935,0.183c-3.234,0 -6.256,-0.061 -7.995,-0.183l0,1.251c4.242,0.183 5.066,0.824 5.066,5.371l0,31.006c0,4.547 -0.824,5.188 -5.066,5.371l0,1.251c6.134,-0.183 14.374,-0.183 18.127,-0.183c4.181,0 10.071,0 14.313,0.183c-0.305,-3.174 -0.427,-6.439 -0.427,-7.995c0,-2.015 0.061,-3.815 0.183,-5.127l-1.434,0c-0.885,8.697 -2.442,11.688 -10.254,11.688l-4.578,0c-4.242,0 -5.066,-0.641 -5.066,-5.188l0,-31.006c0,-4.547 0.824,-5.188 5.066,-5.371l0,-1.251Z" style="fill:#fff;fill-rule:nonzero;"/><path d="M451.288,190.443c-11.627,0 -19.867,9.399 -19.867,23.376c0,14.313 7.934,22.644 19.806,22.644c11.627,0 19.867,-9.399 19.867,-23.376c0,-14.313 -7.935,-22.644 -19.806,-22.644Zm-0.244,1.129c7.69,0 13.794,8.453 13.794,21.759c0,12.939 -5.249,22.003 -13.367,22.003c-7.69,0 -13.825,-8.453 -13.825,-21.759c0,-12.94 5.25,-22.003 13.398,-22.003Z" style="fill:#fff;fill-rule:nonzero;"/><path d="M510.419,190.443c-11.627,0 -20.111,9.185 -20.111,23.773c0,13.916 7.537,22.247 20.477,22.247c4.059,0 7.019,-1.312 9.766,-3.387c1.251,-0.946 1.556,-1.068 2.044,-1.068c1.068,0 1.648,2.136 1.709,3.57l1.251,0l0,-12.39c0,-4.608 0.428,-5.157 3.174,-5.371l0,-1.251c-1.495,0.152 -3.753,0.213 -6.5,0.213c-2.808,0 -6.622,-0.061 -8.82,-0.213l0,1.251c5.249,0.214 6.318,0.946 6.318,6.012l0,6.012c0,1.556 -0.245,2.35 -1.801,3.418c-1.251,0.885 -3.509,1.953 -6.5,1.953c-10.193,0 -14.893,-6.683 -14.893,-21.698c0,-13.428 5.463,-21.942 13.764,-21.942c4.181,0 8.361,1.831 10.803,4.883c1.953,2.38 2.563,5.737 3.143,9.246l1.434,0c0,-7.263 0.062,-11.322 0.245,-14.373l-1.435,0c-0.244,2.624 -0.763,3.814 -1.556,3.814c-0.397,0 -0.763,-0.244 -1.251,-0.641c-2.961,-2.105 -5.829,-4.058 -11.261,-4.058Z" style="fill:#fff;fill-rule:nonzero;"/><path d="M561.92,191.328c-1.922,0.122 -5.066,0.183 -7.934,0.183c-3.235,0 -6.257,-0.061 -7.996,-0.183l0,1.251c4.242,0.183 5.066,0.824 5.066,5.371l0,31.006c0,4.547 -0.824,5.188 -5.066,5.371l0,1.251c1.739,-0.122 4.761,-0.183 7.996,-0.183c2.868,0 6.012,0.061 7.934,0.183l0,-1.251c-4.242,-0.183 -5.066,-0.824 -5.066,-5.371l0,-31.006c0,-4.547 0.824,-5.188 5.066,-5.371l0,-1.251Z" style="fill:#fff;fill-rule:nonzero;"/><path d="M599.75,190.443c-11.627,0 -19.867,9.399 -19.867,23.376c0,14.313 7.934,22.644 19.806,22.644c5.371,0 8.484,-1.892 11.566,-4.059c0.519,-0.335 0.946,-0.519 1.282,-0.519c0.885,0 1.312,1.13 1.525,3.693l1.435,0c-0.183,-3.174 -0.244,-7.446 -0.244,-15.015l-1.435,0c-0.641,5.066 -1.068,7.447 -2.899,9.888c-2.35,3.388 -6.927,4.761 -10.681,4.761c-8.057,0 -14.13,-7.691 -14.13,-21.637c0,-13.55 5.371,-22.003 13.52,-22.003c4.303,0 8.423,1.495 11.047,4.883c1.77,2.258 2.258,3.936 3.143,9.246l1.435,0c0,-7.263 0.061,-11.322 0.244,-14.373l-1.435,0c-0.213,2.563 -0.732,3.723 -1.586,3.723c-0.367,0 -0.763,-0.183 -1.221,-0.55c-2.747,-2.105 -6.012,-4.058 -11.505,-4.058Z" style="fill:#fff;fill-rule:nonzero;"/><path d="M652.258,191.022l-1.007,0l-14.709,37.873c-1.435,3.753 -3.296,5.066 -4.914,5.432l0,1.251c1.252,-0.122 2.564,-0.183 4.67,-0.183c2.197,0 4.821,0.061 7.202,0.183l0,-1.251c-3.571,-0.092 -5.432,-1.038 -5.432,-3.754c0,-1.281 0.396,-2.96 1.251,-5.127l2.563,-6.622l15.076,0l3.845,10.254c0.489,1.251 0.733,2.197 0.733,2.93c0,1.739 -1.404,2.197 -4.425,2.319l0,1.251c1.77,-0.122 4.76,-0.183 7.995,-0.183c2.381,0 5.005,0.061 6.714,0.183l0,-1.251c-1.312,-0.061 -3.082,-0.824 -4.333,-3.998l-15.229,-39.307Zm4.242,26.551l-14.16,0l7.172,-18.646l6.988,18.646Z" style="fill:#fff;fill-rule:nonzero;"/><path d="M701.227,191.328c-1.923,0.122 -5.066,0.183 -7.935,0.183c-3.235,0 -6.256,-0.061 -7.995,-0.183l0,1.251c4.242,0.183 5.066,0.824 5.066,5.371l0,31.006c0,4.547 -0.824,5.188 -5.066,5.371l0,1.251c6.134,-0.183 14.373,-0.183 18.127,-0.183c4.181,0 10.071,0 14.313,0.183c-0.305,-3.174 -0.427,-6.439 -0.427,-7.995c0,-2.015 0.061,-3.815 0.183,-5.127l-1.435,0c-0.885,8.697 -2.441,11.688 -10.254,11.688l-4.577,0c-4.242,0 -5.066,-0.641 -5.066,-5.188l0,-31.006c0,-4.547 0.824,-5.188 5.066,-5.371l0,-1.251Z" style="fill:#fff;fill-rule:nonzero;"/><path d="M775.97,190.626c-6.164,0 -11.749,3.448 -11.749,10.833c0,7.05 5.188,10.437 11.139,14.008c5.798,3.479 9.735,6.348 9.735,11.414c0,5.89 -4.059,8.331 -8.117,8.331c-7.996,0 -10.865,-6.622 -11.384,-14.191l-1.434,0c0,8.82 -0.061,12.421 -0.244,14.984l1.434,0c0.244,-1.8 0.58,-2.746 1.374,-2.746c0.518,0 1.129,0.244 2.136,0.885c1.8,1.129 4.12,2.319 8.545,2.319c7.263,0 13.275,-3.937 13.275,-11.871c0,-6.714 -4.761,-10.01 -11.261,-14.069c-5.615,-3.509 -10.498,-5.768 -10.498,-11.444c0,-4.303 3.174,-7.263 7.629,-7.263c6.928,0 9.796,6.073 10.254,12.024l1.435,0c0,-7.874 0.122,-10.559 0.305,-12.757l-1.435,0c-0.244,1.801 -0.579,2.747 -1.373,2.747c-0.58,0 -1.129,-0.244 -2.136,-0.885c-1.679,-1.129 -3.51,-2.319 -7.63,-2.319Z" style="fill:#fff;fill-rule:nonzero;"/><path d="M829.425,190.443c-11.627,0 -19.867,9.399 -19.867,23.376c0,14.313 7.935,22.644 19.806,22.644c11.627,0 19.867,-9.399 19.867,-23.376c0,-14.313 -7.935,-22.644 -19.806,-22.644Zm-0.244,1.129c7.69,0 13.794,8.453 13.794,21.759c0,12.939 -5.249,22.003 -13.367,22.003c-7.69,0 -13.824,-8.453 -13.824,-21.759c0,-12.94 5.249,-22.003 13.397,-22.003Z" style="fill:#fff;fill-rule:nonzero;"/><path d="M888.251,190.443c-11.627,0 -19.867,9.399 -19.867,23.376c0,14.313 7.934,22.644 19.806,22.644c5.371,0 8.484,-1.892 11.566,-4.059c0.519,-0.335 0.946,-0.519 1.282,-0.519c0.885,0 1.312,1.13 1.525,3.693l1.435,0c-0.183,-3.174 -0.244,-7.446 -0.244,-15.015l-1.435,0c-0.641,5.066 -1.068,7.447 -2.899,9.888c-2.35,3.388 -6.927,4.761 -10.681,4.761c-8.057,0 -14.13,-7.691 -14.13,-21.637c0,-13.55 5.371,-22.003 13.52,-22.003c4.303,0 8.423,1.495 11.047,4.883c1.77,2.258 2.258,3.936 3.143,9.246l1.435,0c0,-7.263 0.061,-11.322 0.244,-14.373l-1.435,0c-0.213,2.563 -0.732,3.723 -1.586,3.723c-0.367,0 -0.763,-0.183 -1.221,-0.55c-2.747,-2.105 -6.012,-4.058 -11.505,-4.058Z" style="fill:#fff;fill-rule:nonzero;"/><path d="M939.111,191.328c-1.922,0.122 -5.066,0.183 -7.934,0.183c-3.235,0 -6.256,-0.061 -7.996,-0.183l0,1.251c4.242,0.183 5.066,0.824 5.066,5.371l0,31.006c0,4.547 -0.824,5.188 -5.066,5.371l0,1.251c1.74,-0.122 4.761,-0.183 7.996,-0.183c2.868,0 6.012,0.061 7.934,0.183l0,-1.251c-4.242,-0.183 -5.066,-0.824 -5.066,-5.371l0,-31.006c0,-4.547 0.824,-5.188 5.066,-5.371l0,-1.251Z" style="fill:#fff;fill-rule:nonzero;"/><path d="M988.873,227.583c0,-1.74 0.061,-3.388 0.183,-4.517l-1.434,0c-0.885,8.27 -2.441,11.078 -10.254,11.078l-4.577,0c-4.242,0 -5.066,-0.641 -5.066,-5.188l0,-15.015l4.15,0c5.432,0 5.493,4.273 5.981,8.27l1.435,0c-0.305,-4.76 -0.366,-6.836 -0.366,-8.88c0,-0.916 -0.031,-1.831 -0.031,-2.991c0,-1.434 0.031,-3.235 0.214,-5.89l-1.435,0c-0.488,2.991 -0.366,8.24 -5.798,8.24l-4.15,0l0,-14.74c0,-4.547 0.824,-5.188 5.066,-5.188l5.188,0c6.622,0 7.568,2.441 8.392,9.827l1.434,0c-0.122,-0.946 -0.183,-2.381 -0.183,-3.876c0,-1.434 0.122,-4.456 0.427,-7.385c-3.875,0.183 -9.247,0.183 -13.061,0.183c-3.754,0 -11.994,0 -18.128,-0.183l0,1.251c4.242,0.183 5.066,0.824 5.066,5.371l0,31.006c0,4.547 -0.824,5.188 -5.066,5.371l0,1.251c6.134,-0.183 14.374,-0.183 18.128,-0.183c4.181,0 10.071,0 14.313,0.183c-0.306,-3.174 -0.428,-6.439 -0.428,-7.995Z" style="fill:#fff;fill-rule:nonzero;"/><path d="M1041.78,191.328c-5.188,0.183 -12.421,0.183 -17.548,0.183c-5.127,0 -12.451,0 -17.639,-0.183c0.335,3.173 0.458,6.439 0.458,7.995c0,2.014 -0.061,3.815 -0.184,5.127l1.435,0c0.854,-8.697 1.8,-11.688 9.613,-11.688l3.387,0l0,35.553c0,5.066 -1.068,5.829 -6.317,6.012l0,1.251c1.984,-0.122 5.493,-0.183 9.247,-0.183c3.387,0 6.988,0.061 9.186,0.183l0,-1.251c-5.249,-0.183 -6.317,-0.946 -6.317,-6.012l0,-35.553l3.387,0c7.813,0 8.728,2.991 9.613,11.688l1.434,0c-0.122,-1.312 -0.183,-3.113 -0.183,-5.127c0,-1.556 0.122,-4.822 0.428,-7.995Z" style="fill:#fff;fill-rule:nonzero;"/><path d="M1088.18,191.511c-2.198,0 -4.822,-0.061 -7.203,-0.183l0,1.251c3.479,0.091 5.524,0.854 5.524,3.326c0,1.282 -0.549,3.022 -1.709,5.371l-7.965,15.87l-10.406,-19.928c-0.458,-0.885 -0.641,-1.587 -0.641,-2.167c0,-1.862 2.014,-2.411 4.394,-2.411l0,-1.312c-2.685,0.183 -6.012,0.183 -8.758,0.183c-2.137,0 -3.876,-0.061 -5.493,-0.183l0,1.312c0.885,0 1.922,0.427 3.631,3.509l12.665,23.377l0,9.43c0,4.547 -0.794,5.188 -5.066,5.371l0,1.251c1.77,-0.122 4.761,-0.183 8.026,-0.183c2.869,0 5.982,0.061 7.935,0.183l0,-1.251c-4.273,-0.183 -5.066,-0.824 -5.066,-5.371l0,-11.383l9.796,-19.44c1.892,-3.693 3.387,-5.188 5.005,-5.554l0,-1.251c-1.251,0.122 -2.564,0.183 -4.669,0.183Z" style="fill:#fff;fill-rule:nonzero;"/></svg>