<?xml version="1.0" encoding="UTF-8" standalone="no"?><!DOCTYPE svg PUBLIC "-//W3C//DTD SVG 1.1//EN" "http://www.w3.org/Graphics/SVG/1.1/DTD/svg11.dtd"><svg width="100%" height="100%" viewBox="0 0 1817 940" version="1.1" xmlns="http://www.w3.org/2000/svg" xmlns:xlink="http://www.w3.org/1999/xlink" xml:space="preserve" xmlns:serif="http://www.serif.com/" style="fill-rule:evenodd;clip-rule:evenodd;stroke-linejoin:round;stroke-miterlimit:2;"><g><path d="M42.108,256.038l-41.92,0l0,-159.375c0,-62.317 37.766,-96.663 83.841,-96.663c46.454,0 84.221,34.346 84.221,96.663l0,159.375l-42.3,0l0,-83.842l-83.842,0l0,83.842Zm83.842,-159.375c0,-37.013 -18.883,-54.742 -41.921,-54.742c-23.037,0 -41.921,17.729 -41.921,54.742l0,33.612l83.842,0l0,-33.612Z" style="fill:#0d0d0d;fill-rule:nonzero;"/><path d="M320.467,214.133l71.362,0l0,41.905l-113.3,0l0,-251.884l41.938,0l0,209.979Z" style="fill:#0d0d0d;fill-rule:nonzero;"/><path d="M514.571,256.038l-41.942,0l0,-159.375c0,-62.317 37.767,-96.663 83.863,-96.663c46.45,0 84.216,34.346 84.216,96.663l0,159.375l-42.316,0l0,-83.842l-83.821,0l0,83.842Zm83.821,-159.375c0,-37.013 -18.884,-54.742 -41.9,-54.742c-23.038,0 -41.921,17.729 -41.921,54.742l0,33.612l83.821,0l0,-33.612Z" style="fill:#0d0d0d;fill-rule:nonzero;"/><path d="M750.971,4.154l88.012,0c37.013,0 67.225,30.192 67.225,67.204c0,17.375 -5.287,30.234 -14.729,41.542c19.242,14.75 31.725,35.9 31.725,63.467c0,44.17 -35.879,79.67 -79.687,79.67l-92.546,0l0,-251.883Zm41.937,92.509l46.075,-0.001c13.975,0.001 25.288,-11.329 25.288,-25.304c0,-13.954 -11.313,-25.304 -25.288,-25.304l-46.075,0l0,50.609Zm0,117.47l50.609,0c20.754,0 37.766,-17.012 37.766,-37.766c0,-21.146 -17.012,-37.767 -37.766,-37.767l-50.609,0l0,75.533Z" style="fill:#0d0d0d;fill-rule:nonzero;"/><path d="M1071.23,256.038l-41.921,0l0,-159.375c0,-62.317 37.767,-96.663 83.842,-96.663c46.454,0 84.221,34.346 84.221,96.663l0,159.375l-42.3,0l0,-83.842l-83.842,0l0,83.842Zm83.842,-159.375c0,-37.013 -18.883,-54.742 -41.921,-54.742c-23.037,0 -41.921,17.729 -41.921,54.742l0,33.612l83.842,0l0,-33.612Z" style="fill:#0d0d0d;fill-rule:nonzero;"/><path d="M1477.6,256.038l0,-151.821l-60.804,114.054l-8.308,0l-60.809,-114.054l0,151.821l-40.029,0l0,-251.884l34.367,0l70.625,132.542l70.621,-132.542l34.366,0l0,251.884l-40.029,0Z" style="fill:#0d0d0d;fill-rule:nonzero;"/><path d="M1669.85,256.038l-41.942,0l0,-159.375c0,-62.317 37.767,-96.663 83.842,-96.663c46.454,0 84.221,34.346 84.221,96.663l0,159.375l-42.3,0l0,-83.842l-83.821,0l0,83.842Zm83.821,-159.375c0,-37.013 -18.884,-54.742 -41.921,-54.742c-23.017,0 -41.9,17.729 -41.9,54.742l0,33.612l83.821,0l0,-33.612Z" style="fill:#0d0d0d;fill-rule:nonzero;"/><path d="M169.95,652.588l0,-151.821l-60.804,114.054l-8.308,0l-60.825,-114.054l0,151.821l-40.013,0l0,-251.884l34.367,0l70.604,132.542l70.642,-132.542l34.37,0l0,251.884l-40.033,0Z" style="fill:#0d0d0d;fill-rule:nonzero;"/><path d="M362.2,400.704l0,159.734c0,36.633 18.883,54.383 41.904,54.383c23.038,0 41.921,-17.75 41.921,-54.384l0,-159.733l42.296,0l0,159.734c0,61.954 -37.767,96.304 -84.217,96.304c-46.079,0 -83.841,-34.35 -83.841,-96.304l0,-159.734l41.937,0Z" style="fill:#0d0d0d;fill-rule:nonzero;"/><path d="M656.383,656.742c-27.212,0 -47.604,-8.688 -71.02,-26.817l4.929,-37.367c25.283,13.575 46.054,22.263 67.6,22.263c18.883,0 43.037,-10.196 43.037,-30.592c0,-47.962 -118.966,-29.437 -118.966,-113.658c0,-43.829 38.525,-74.025 83.108,-74.025c28.325,0 47.567,9.804 73.625,30.196l-13.2,33.233c-17.771,-11.704 -38.917,-21.904 -58.917,-21.904c-25.304,0 -40.787,13.616 -40.787,28.721c0,44.925 119.325,33.612 119.325,111.016c0,51.759 -43.434,78.934 -88.734,78.934Z" style="fill:#0d0d0d;fill-rule:nonzero;"/><path d="M835.017,400.704l125.766,0l0,41.9l-83.845,0l0,50.608l83.845,0l0,41.938l-83.845,0l0,75.533l83.845,0l0,41.904l-125.766,0l0,-251.883Z" style="fill:#0d0d0d;fill-rule:nonzero;"/><path d="M1113.36,400.704l0,159.734c0,36.633 18.884,54.383 41.921,54.383c23.021,0 41.904,-17.75 41.904,-54.384l0,-159.733l42.317,0l0,159.734c0,61.954 -37.767,96.304 -84.221,96.304c-46.096,0 -83.862,-34.35 -83.862,-96.304l0,-159.734l41.941,0Z" style="fill:#0d0d0d;fill-rule:nonzero;"/><path d="M1519.71,652.588l0,-151.821l-60.787,114.054l-8.325,0l-60.804,-114.054l0,151.821l-40.034,0l0,-251.884l34.388,0l70.621,132.542l70.608,-132.542l34.367,0l0,251.884l-40.034,0Z" style="fill:#0d0d0d;fill-rule:nonzero;"/><path d="M1727.82,656.742c-27.213,0 -47.604,-8.688 -71.021,-26.817l4.929,-37.367c25.304,13.575 46.059,22.263 67.604,22.263c18.884,0 43.034,-10.196 43.034,-30.592c0,-47.962 -118.967,-29.437 -118.967,-113.658c0,-43.829 38.525,-74.025 83.108,-74.025c28.325,0 47.567,9.804 73.625,30.196l-13.2,33.233c-17.75,-11.704 -38.916,-21.904 -58.916,-21.904c-25.304,0 -40.788,13.616 -40.788,28.721c0,44.925 119.325,33.612 119.325,111.016c0,51.759 -43.433,78.934 -88.733,78.934Z" style="fill:#0d0d0d;fill-rule:nonzero;"/><path d="M363.542,823.763c1.058,-0.53 3.171,-1.076 5.287,-1.076c5.042,0 12.425,1.588 14.804,6.346c-7.383,17.184 -24.32,60.821 -34.083,88.296c-1.342,3.459 -0.283,4.779 1.3,4.779c3.967,0 14.804,-6.079 26.438,-17.183c2.133,0 4.229,1.583 4.229,5.004c-11.629,14.804 -32.25,29.625 -49.171,29.625c-6.325,0 -8.704,-5.304 -8.704,-8.475c0,-2.625 0.791,-5.554 2.625,-10.842l9.516,-25.112l-0.795,0c-18.484,25.112 -44.942,44.429 -60.255,44.429c-8.479,0 -14.295,-7.421 -14.295,-15.862c0,-10.329 10.575,-37.009 30.95,-60.029c11.879,-13.217 24.037,-21.413 33.045,-26.171c7.913,-4.213 14.259,-5.796 20.6,-5.796c2.138,0 4.234,1.037 6.1,1.829c1.305,0.796 3.967,2.929 5.555,5.025l6.854,-14.787Zm-43.867,30.383c-14.825,16.146 -28.571,46.021 -29.079,63.466c0,2.909 1.037,5.288 3.171,5.288c4.212,0 15.316,-9.537 26.946,-21.15c13.22,-14.008 25.379,-37.558 29.083,-49.717c-2.117,-6.345 -6.346,-9.237 -11.633,-9.237c-5.817,0 -10.046,2.379 -18.488,11.35Z" style="fill:#0d0d0d;fill-rule:nonzero;"/><path d="M399.758,922.371c0,-5.834 4.213,-12.688 10.046,-12.688c2.096,0 3.967,1.584 5.817,3.68c6.875,7.425 12.687,11.916 20.092,11.916c5.55,0 10.575,-3.962 10.575,-9.533c0,-8.725 -8.196,-17.958 -13.238,-24.304c-7.383,-9.538 -11.083,-18.525 -11.083,-25.117c0,-11.1 5.816,-20.108 15.333,-28.287c7.4,-6.342 16.917,-10.063 23.792,-10.063c12.141,0 21.15,8.988 21.15,18.242c0,7.137 -5.838,11.104 -8.459,11.104c-2.379,0 -4.233,-1.042 -5.816,-3.175c-7.404,-8.458 -11.634,-11.35 -18.509,-11.35c-5.812,0 -8.987,4.475 -8.987,8.179c0,8.725 8.725,16.392 13.483,22.733c7.667,10.313 11.896,17.734 11.35,28.042c0,8.971 -4.741,19.038 -14.787,27.213c-7.95,6.629 -18.504,10.591 -29.609,10.591c-11.104,0 -21.15,-7.929 -21.15,-17.183Z" style="fill:#0d0d0d;fill-rule:nonzero;"/><path d="M494.929,922.371c0,-5.834 4.213,-12.688 10.046,-12.688c2.096,0 3.967,1.584 5.817,3.68c6.875,7.425 12.691,11.916 20.091,11.916c5.555,0 10.575,-3.962 10.575,-9.533c0,-8.725 -8.195,-17.958 -13.216,-24.304c-7.404,-9.538 -11.104,-18.525 -11.104,-25.117c0,-11.1 5.816,-20.108 15.333,-28.287c7.404,-6.342 16.921,-10.063 23.792,-10.063c12.141,0 21.15,8.988 21.15,18.242c0,7.137 -5.834,11.104 -8.459,11.104c-2.379,0 -4.229,-1.042 -5.816,-3.175c-7.405,-8.458 -11.634,-11.35 -18.505,-11.35c-5.816,0 -8.991,4.475 -8.991,8.179c0,8.725 8.725,16.392 13.483,22.733c7.667,10.313 11.896,17.734 11.367,28.042c0,8.971 -4.759,19.038 -14.804,27.213c-7.95,6.629 -18.505,10.591 -29.609,10.591c-11.104,0 -21.15,-7.929 -21.15,-17.183Z" style="fill:#0d0d0d;fill-rule:nonzero;"/><path d="M629.229,845.688c15.067,-14.275 28.288,-17.713 40.184,-17.713c23.529,0 33.045,16.125 32.516,35.971c0,16.371 -8.196,40.429 -25.908,57.371c-15.333,15.066 -30.138,18.237 -41.771,18.237c-22.204,0 -33.308,-15.35 -32.8,-34.629c0.55,-19.321 11.388,-44.433 27.779,-59.237Zm26.171,68.754c9.517,-13.767 22.208,-45.492 22.208,-62.675c0,-7.138 -1.058,-14.275 -8.479,-14.275c-4.758,0 -10.291,2.925 -17.166,11.65c-12.425,16.108 -26.171,47.566 -26.171,67.129c0,7.933 3.437,13.767 9.5,13.767c6.362,0 12.179,-4.246 20.108,-15.596Z" style="fill:#0d0d0d;fill-rule:nonzero;"/><path d="M733.388,910.475c0,-17.446 10.841,-43.638 29.875,-62.408c14.012,-13.746 28.02,-20.092 42.016,-20.092c13.763,0 23.017,7.4 22.734,17.996c0,10.308 -9.763,14.521 -15.842,14.521c-4.513,0 -7.688,-2.646 -7.934,-7.384c-0.545,-5.837 0.246,-14.558 -6.608,-14.558c-5.287,0 -12.158,5.288 -19.562,16.938c-8.213,12.933 -16.654,32.495 -16.654,51.816c0,11.896 4.474,15.863 10.82,15.863c7.95,0 17.467,-5.042 28.288,-16.146c3.171,0 5.304,2.112 4.758,5.287c-9.762,12.971 -29.062,27.246 -48.625,27.246c-14.275,0 -23.266,-10.062 -23.266,-29.079Z" style="fill:#0d0d0d;fill-rule:nonzero;"/><path d="M880.358,916.029c-1.058,2.621 -1.304,5 0.792,5c4.25,0 18.771,-10.042 26.438,-18.237c2.925,0 5.02,2.641 4.512,5.304c-7.421,11.104 -32.8,31.458 -52.871,31.458c-4.496,0 -8.462,-5.833 -8.462,-8.212c0,-2.888 0.512,-5.817 2.379,-10.313l29.325,-69.508c1.058,-2.663 1.058,-4.25 -0.525,-4.25c-3.175,0 -14.279,6.875 -22.717,14.296c-2.662,0 -4.496,-3.171 -3.704,-5.288c14.258,-16.654 36.746,-28.304 48.646,-28.304c3.679,0 7.929,3.721 8.721,7.4c0.512,2.117 -0.284,5.838 -2.925,11.388l-29.609,69.266Zm14.804,-132.45c0,-9.008 6.346,-19.316 17.975,-19.316c7.934,0 12.692,4.512 12.692,12.954c0,10.046 -7.383,19.3 -17.979,19.3c-8.438,0 -12.688,-6.084 -12.688,-12.938Z" style="fill:#0d0d0d;fill-rule:nonzero;"/><path d="M1039.5,823.763c1.059,-0.53 3.175,-1.076 5.288,-1.076c5.041,0 12.425,1.588 14.804,6.346c-7.383,17.184 -24.321,60.821 -34.1,88.296c-1.321,3.459 -0.267,4.779 1.321,4.779c3.966,0 14.804,-6.079 26.437,-17.183c2.134,0 4.229,1.583 4.229,5.004c-11.633,14.804 -32.254,29.625 -49.17,29.625c-6.346,0 -8.725,-5.304 -8.725,-8.475c0,-2.625 0.791,-5.554 2.641,-10.842l9.517,-25.112l-0.792,0c-18.504,25.112 -44.942,44.429 -60.258,44.429c-8.475,0 -14.292,-7.421 -14.292,-15.862c0,-10.329 10.575,-37.009 30.929,-60.029c11.896,-13.217 24.059,-21.413 33.046,-26.171c7.934,-4.213 14.275,-5.796 20.621,-5.796c2.133,0 4.229,1.037 6.079,1.829c1.325,0.796 3.967,2.929 5.554,5.025l6.871,-14.787Zm-43.883,30.383c-14.804,16.146 -28.55,46.021 -29.079,63.466c0,2.909 1.058,5.288 3.17,5.288c4.23,0 15.334,-9.537 26.967,-21.15c13.217,-14.008 25.379,-37.558 29.079,-49.717c-2.112,-6.345 -6.346,-9.237 -11.633,-9.237c-5.813,0 -10.046,2.379 -18.504,11.35Z" style="fill:#0d0d0d;fill-rule:nonzero;"/><path d="M1142.06,844.896l-23.775,68.466c-1.588,4.25 -1.059,6.346 1.587,6.346c4.208,0 19.563,-11.612 29.079,-22.204c3.171,0.529 4.759,2.113 4.209,5.833c-11.613,17.45 -37.521,36.217 -54.459,36.217c-5.266,0 -9.496,-4.758 -9.496,-9.004c0,-3.683 0.792,-7.383 3.171,-14.521l24.321,-71.133l-20.092,0c-1.587,-2.384 0,-6.858 2.646,-8.442l22.204,-4.25l16.921,-25.625c1.588,-1.075 3.684,-1.342 6.346,-1.342c3.679,0 7.4,1.342 8.438,3.438l-7.384,24.604l26.438,0c3.175,3.175 1.058,10.029 -2.113,11.617l-28.041,0Z" style="fill:#0d0d0d;fill-rule:nonzero;"/><path d="M1217.42,916.029c-1.058,2.621 -1.321,5 0.792,5c4.229,0 18.771,-10.042 26.437,-18.237c2.909,0 5.021,2.641 4.492,5.304c-7.4,11.104 -32.779,31.458 -52.871,31.458c-4.496,0 -8.458,-5.833 -8.458,-8.212c0,-2.888 0.529,-5.817 2.379,-10.313l29.342,-69.508c1.058,-2.663 1.058,-4.25 -0.525,-4.25c-3.175,0 -14.28,6.875 -22.738,14.296c-2.642,0 -4.496,-3.171 -3.7,-5.288c14.275,-16.654 36.746,-28.304 48.642,-28.304c3.7,0 7.929,3.721 8.725,7.4c0.529,2.117 -0.267,5.838 -2.909,11.388l-29.608,69.266Zm14.804,-132.45c0,-9.008 6.346,-19.316 17.975,-19.316c7.934,0 12.692,4.512 12.692,12.954c0,10.046 -7.404,19.3 -17.979,19.3c-8.459,0 -12.688,-6.084 -12.688,-12.938Z" style="fill:#0d0d0d;fill-rule:nonzero;"/><path d="M1309.16,845.688c15.071,-14.275 28.288,-17.713 40.184,-17.713c23.529,0 33.046,16.125 32.516,35.971c0,16.371 -8.191,40.429 -25.908,57.371c-15.329,15.066 -30.137,18.237 -41.767,18.237c-22.208,0 -33.312,-15.35 -32.8,-34.629c0.546,-19.321 11.388,-44.433 27.775,-59.237Zm26.175,68.754c9.517,-13.767 22.188,-45.492 22.188,-62.675c0,-7.138 -1.042,-14.275 -8.463,-14.275c-4.758,0 -10.308,2.925 -17.162,11.65c-12.425,16.108 -26.192,47.566 -26.192,67.129c0,7.933 3.454,13.767 9.517,13.767c6.362,0 12.179,-4.246 20.112,-15.596Z" style="fill:#0d0d0d;fill-rule:nonzero;"/><path d="M1535.44,842.796c0,5.004 -2.096,14.012 -4.759,20.867c-4.758,12.975 -17.429,41.77 -21.658,52.366c-1.321,3.171 -1.588,5.288 0.508,5.288c4.25,0 16.938,-9.538 24.321,-17.979c3.175,-0.546 4.758,1.587 4.758,4.758c-8.966,14.804 -30.116,31.458 -50.737,31.458c-4.759,0 -9.009,-4.758 -9.009,-8.475c0,-3.175 1.08,-6.875 4.759,-15.6c6.875,-15.862 15.883,-37.804 22.225,-53.4c2.096,-5.271 4.233,-11.633 4.233,-15.862c0,-2.379 -0.55,-4.496 -3.721,-4.496c-4.475,0 -15.862,8.217 -28.004,23.529c-14.275,18.525 -27.229,42.846 -40.183,70.058c-1.588,3.171 -4.759,4.246 -9.009,4.246c-4.758,0 -14.012,-1.583 -11.633,-9.004c1.079,-3.437 25.4,-68.983 28.042,-76.404c1.587,-4.208 2.116,-7.929 -1.059,-7.929c-5.283,0 -15.35,6.891 -22.733,13.766c-2.662,0 -4.25,-2.137 -4.25,-4.25c8.463,-13.483 27.496,-27.758 45.471,-27.758c9.517,0 10.312,7.929 7.933,13.746l-16.108,40.979l1.058,0c16.634,-23.512 40.959,-54.725 63.713,-54.725c11.629,0 15.841,7.4 15.841,14.821Z" style="fill:#0d0d0d;fill-rule:nonzero;"/></g></svg>