<?xml version="1.0" encoding="UTF-8" standalone="no"?><!DOCTYPE svg PUBLIC "-//W3C//DTD SVG 1.1//EN" "http://www.w3.org/Graphics/SVG/1.1/DTD/svg11.dtd"><svg width="100%" height="100%" viewBox="0 0 814 285" version="1.1" xmlns="http://www.w3.org/2000/svg" xmlns:xlink="http://www.w3.org/1999/xlink" xml:space="preserve" xmlns:serif="http://www.serif.com/" style="fill-rule:evenodd;clip-rule:evenodd;stroke-linejoin:round;stroke-miterlimit:2;"><g><path d="M312.582,282.044c-3.119,1.118 -3.169,1.09 -6.475,1.09c-3.309,0 -3.309,-0.668 -6.619,-0.668l-6.615,0c-3.307,0 -3.307,-0.372 -6.616,-0.372c-3.306,0 -3.306,-0.466 -6.616,-0.466c-3.309,0 -3.309,0.506 -6.615,0.506c-3.316,0 -3.316,0.072 -6.622,0.072c-3.316,0 -3.316,0.144 -6.631,0.144c-3.307,0 -3.307,0.419 -6.616,0.419c-3.312,0 -3.312,-0.581 -6.622,-0.581c-3.306,0 -3.306,0.884 -6.615,0.884c-3.31,0 -3.31,-1.213 -6.622,-1.213c-3.31,0 -3.31,0.841 -6.622,0.841c-3.316,0 -3.316,-0.419 -6.622,-0.419c-3.316,0 -3.316,0.216 -6.625,0.216c-3.306,0 -3.306,0.681 -6.622,0.681c-3.306,0 -3.306,-0.187 -6.622,-0.187c-3.312,0 -3.312,-0.5 -6.628,-0.5c-3.309,0 -3.309,0.425 -6.622,0.425c-3.309,0 -3.309,-0.835 -6.622,-0.835c-3.315,0 -3.315,0.157 -6.622,0.157c-3.315,0 -3.315,-0.485 -6.628,-0.485c-3.303,0 -3.303,0.578 -6.609,0.578c-3.309,0 -3.309,-0.334 -6.619,-0.334c-3.312,0 -3.312,-0.063 -6.628,-0.063c-3.306,0 -3.306,0.394 -6.616,0.394c0,0 -3.306,-0.272 -6.612,-0.272c-3.306,0 -3.306,-0.19 -6.616,-0.19c-3.315,0 -3.315,0.8 -6.628,0.8c-3.312,0 -3.312,0.687 -6.622,0.687c-3.309,0 -3.309,-0.981 -6.618,-0.981c-3.313,0 -3.313,-0.11 -6.625,-0.11c-3.316,0 -3.316,-0.256 -6.635,-0.256c-3.309,0 -3.309,0.4 -6.622,0.4c-3.315,0 -3.315,0.347 -6.631,0.347c-3.316,0 -3.316,0.138 -6.628,0.138c-3.319,0 -3.319,0.031 -6.638,0.031c-3.315,0 -3.315,-0.638 -6.628,-0.638c-3.318,0 -3.318,-0.347 -6.634,-0.347c-3.316,0 -3.316,0.56 -6.634,0.56c-3.31,0 -3.31,0.562 -6.622,0.562c-3.316,0 -3.316,-0.587 -6.632,-0.587c-3.318,0 -3.318,-0.291 -6.637,-0.291c-3.322,0 -3.322,0.269 -6.641,0.269c-3.322,0 -3.322,0.062 -6.643,0.062c-3.325,0 -3.325,-0.115 -6.65,-0.115c-3.329,0 -3.791,1.897 -6.138,-0.46c-2.356,-2.368 -0.622,-2.828 -0.622,-6.171c0,-3.344 0.141,-3.344 0.141,-6.688c0,-3.347 0.637,-3.347 0.637,-6.694c0,-3.34 -0.578,-3.34 -0.578,-6.681c0,-3.344 -0.209,-3.344 -0.209,-6.687c0,-3.341 0.478,-3.341 0.478,-6.685c0,-3.34 -0.525,-3.34 -0.525,-6.684c0,-3.347 -0.391,-3.347 -0.391,-6.694c0,-3.344 0.469,-3.344 0.469,-6.687c0,-3.344 0.016,-3.344 0.016,-6.688c0,-3.344 -0.041,-3.344 -0.041,-6.684c0,-3.347 0.153,-3.347 0.153,-6.691c0,-3.347 -0.078,-3.347 -0.078,-6.694c0,-3.347 0.1,-2.409 0.1,-6.687c0,-1.881 -0.062,-4.122 -0.062,-6.678c0,-2.038 0.028,-4.275 0.028,-6.694c0,-2.1 0.465,-4.331 0.465,-6.684c0,-2.135 -0.084,-4.366 -0.084,-6.685c0,-2.159 -0.388,-4.39 -0.388,-6.69c0,-2.172 0.057,-4.407 0.057,-6.688c0,-2.184 -0.332,-4.416 -0.332,-6.684c0,-2.194 0.279,-4.425 0.279,-6.688c0,-2.203 -0.532,-4.431 -0.532,-6.69c0,-2.21 0.982,-4.441 0.982,-6.691c0,-2.216 -1.004,-4.45 -1.004,-6.694c0,-2.219 0.788,-4.45 0.788,-6.687c0,-2.225 0.1,-4.46 0.1,-6.694c0,-2.231 -0.456,-4.469 -0.456,-6.703c0,-2.238 -0.057,-4.475 -0.057,-6.703c0,-2.247 -0.04,-4.485 -0.04,-6.71c0,-2.25 0.259,-4.487 0.259,-6.706c0,-2.256 0.025,-4.49 0.025,-6.706c0,-2.256 -0.15,-4.494 -0.15,-6.697c0,-2.269 -0.422,-4.503 -0.422,-6.7c0,-2.278 -0.037,-4.516 -0.037,-6.703c0,-2.288 -0.06,-4.522 -0.06,-6.7c0,-2.31 -0.025,-4.553 -0.025,-6.719c0,-2.325 1.294,-4.562 1.294,-6.7c0,-2.359 -0.553,-4.6 -0.553,-6.706c0,-2.416 0.1,-4.65 0.1,-6.688c0,-2.562 -0.241,-4.803 -0.241,-6.687c0,-4.269 -3.065,-5.338 0.072,-6.475c3.113,-1.131 3.238,0.066 6.547,0.066c3.31,0 2.344,-0.41 6.619,-0.41c1.853,0 4.072,-0.059 6.619,-0.059c2.006,0 4.215,0.465 6.615,0.465c2.075,0 4.285,-0.6 6.625,-0.6c2.103,0 4.31,-0.359 6.613,-0.359c2.122,0 4.331,0.859 6.612,0.859c2.138,0 4.344,0.069 6.61,0.069c2.15,0 4.356,-0.653 6.612,-0.653c2.16,0 4.366,0.384 6.616,0.384c2.166,0 4.372,-0.209 6.615,-0.209c2.175,0 4.382,-0.006 6.619,-0.006c2.178,0 4.385,0.275 6.622,0.275c2.178,0 4.388,0.425 6.619,0.425c2.187,0 4.397,-0.26 6.622,-0.26c2.187,0 4.393,-0.918 6.615,-0.918c2.191,0 4.397,1.062 6.616,1.062c2.194,0 4.403,-0.819 6.622,-0.819c2.197,0 4.406,0.035 6.622,0.035c2.2,0 4.409,0.437 6.625,0.437c2.203,0 4.412,0.028 6.628,0.028c2.2,0 4.406,-0.446 6.615,-0.446c2.207,0 4.416,0.753 6.625,0.753c2.21,0 4.422,-0.569 6.632,-0.569c2.215,0 4.428,0.031 6.637,0.031c2.216,0 4.431,-0.056 6.647,-0.056c2.216,0 4.438,-0.385 6.647,-0.385c2.222,0 4.444,1.491 6.653,1.491c2.216,0 4.425,-0.834 6.628,-0.834c2.222,0 4.431,0.103 6.635,0.103c2.221,0 4.431,-0.519 6.628,-0.519c2.228,0 4.443,0.472 6.634,0.472c2.234,0 4.444,0.088 6.634,0.088c2.235,0 4.45,-0.422 6.641,-0.422c2.234,0 4.45,0.406 6.634,0.406c2.241,0 4.45,0.256 6.635,0.256c2.24,0 4.456,-1.134 6.631,-1.134c2.25,0 4.459,0.272 6.628,0.272c2.256,0 4.466,-0.163 6.628,-0.163c2.263,0 4.472,1.291 6.629,1.291c2.274,0 4.484,-1.419 6.634,-1.419c2.281,0 4.49,0.994 6.622,0.994c2.306,0 4.515,-0.503 6.622,-0.503c2.35,0 4.565,0.765 6.64,0.765c2.4,0 4.61,-0.875 6.616,-0.875c2.553,0 4.769,1.306 6.619,1.306c4.271,0 6.187,-4.265 7.281,-1.146c1.103,3.153 -0.325,3.575 -0.325,6.918c0,3.344 -0.047,2.378 -0.047,6.691c0,1.875 0.169,4.113 0.169,6.684c0,2.032 -0.282,4.266 -0.282,6.688c0,2.09 -0.046,4.325 -0.046,6.684c0,2.128 -0.71,4.363 -0.71,6.691c0,2.15 0.641,4.381 0.641,6.687c0,2.166 -0.538,4.394 -0.538,6.685c0,2.175 1.057,4.406 1.057,6.687c0,2.181 -0.782,4.413 -0.782,6.685c0,2.19 0.575,4.422 0.575,6.687c0,2.197 -0.915,4.428 -0.915,6.688c0,2.203 0.443,4.434 0.443,6.69c0,2.206 -0.456,4.435 -0.456,6.685c0,2.209 0.019,4.44 0.019,6.687c0,2.213 0.678,4.444 0.678,6.691c0,2.218 0.134,4.447 0.134,6.69c0,2.222 -0.518,4.454 -0.518,6.694c0,2.219 -0.41,4.444 -0.41,6.675c0,2.225 1.097,4.453 1.097,6.688c0,2.228 -0.59,4.459 -0.59,6.69c0,2.235 0.262,4.469 0.262,6.703c0,2.238 0.213,4.472 0.213,6.707c0,2.24 0.068,4.478 0.068,6.709c0,2.244 -0.625,4.484 -0.625,6.716c0,2.24 0.766,4.475 0.766,6.696c0,2.244 -0.569,4.482 -0.569,6.701c0,2.246 0.738,4.484 0.738,6.699c0,2.254 -0.725,4.488 -0.725,6.704c0,2.256 -0.782,4.49 -0.782,6.7c0,2.259 1.057,4.493 1.057,6.7c0,2.265 -0.332,4.496 -0.332,6.697c0,2.271 0.397,4.503 0.397,6.696c0,2.275 -0.437,4.507 -0.437,6.694c0,2.285 -0.497,4.516 -0.497,6.697c0,2.294 0.703,4.528 0.703,6.694c0,2.309 -0.512,4.54 -0.512,6.69c0,2.335 0.859,4.569 0.859,6.7c0,2.369 -0.672,4.607 -0.672,6.704c0,2.421 0.941,4.656 0.941,6.684c0,2.569 -0.457,4.809 -0.457,6.681c0,4.3 2.729,5.144 -0.409,6.266Z" style="fill:#fff;"/><path d="M216.782,283.956c0,-5.556 0.803,-5.556 0.803,-11.109c0,-5.55 -0.444,-5.55 -0.444,-11.097c0,-5.553 0.316,-5.553 0.316,-11.109c0,-5.553 -0.175,-5.553 -0.175,-11.11c0,-5.556 0.134,-5.556 0.134,-11.115c0,-5.566 -0.562,-5.566 -0.562,-11.132c0,-5.565 -0.05,-5.565 -0.05,-11.131c0,-3.653 -0.903,-6.981 -2.609,-9.756c1.825,-2.347 2.734,-5.303 2.734,-8.525c0,-2.003 -0.484,-4.066 -1.241,-5.785c2.728,-3.393 4.772,-7.568 4.86,-12.262c4.706,2.147 10.028,3.794 15.606,3.603c3.95,-0.137 7.884,-0.903 11.366,-2.266c3.593,-1.406 6.828,-3.778 9.74,-6.287c2.881,-2.484 5.163,-5.672 7.2,-9.041c1.953,-3.231 3.385,-6.818 4.403,-10.681c0.95,-3.634 1.935,-7.456 1.928,-11.497c0,-3.5 -1.159,-6.797 -2.056,-10.059c-0.915,-3.334 -1.575,-6.791 -3.284,-9.738c-1.722,-2.962 -3.856,-5.756 -6.244,-8.187c-2.381,-2.425 -5.544,-3.897 -8.447,-5.653c-2.894,-1.744 -5.597,-4.128 -8.868,-5.063c-3.207,-0.922 -6.722,-0.54 -10.157,-0.562c-5.437,-0.006 -5.437,-0.822 -10.878,-0.822c-5.444,0 -5.444,0.462 -10.887,0.462c-5.444,0 -5.444,0.103 -10.888,0.103c-5.447,0 -5.447,0.485 -10.891,0.485c-5.443,0 -5.443,-1.066 -10.887,-1.066c-5.45,0 -5.45,-0.09 -10.894,-0.09c-5.45,0 -5.45,0.984 -10.897,0.984c-5.447,0 -5.447,0.162 -10.897,0.162c-5.443,0 -5.443,-0.656 -10.884,-0.656c-5.447,0 -5.447,0.666 -10.897,0.666c-5.447,0 -5.447,-0.756 -10.897,-0.756c-5.45,0 -5.45,0.14 -10.9,0.14c-5.459,0 -5.459,0.207 -10.922,0.207c-5.456,0 -5.459,-0.241 -10.915,-0.232c-3.447,0.019 -6.716,0.947 -9.922,1.866c-3.278,0.937 -6.172,2.537 -9.066,4.278c-2.915,1.753 -5.615,3.644 -8.003,6.069c-2.394,2.431 -4.75,4.878 -6.475,7.84c-1.715,2.944 -2.9,6.157 -3.815,9.491c-0.9,3.266 -1.872,6.628 -1.875,10.131c-0.007,4.041 0.568,7.975 1.521,11.607c1.019,3.865 2.56,7.531 4.513,10.765c2.037,3.369 4.391,6.644 7.272,9.131c2.912,2.513 6.794,3.513 10.39,4.925c3.479,1.357 7.007,3.041 10.96,3.178c5.584,0.194 11.044,-1.587 15.753,-3.734c0.087,4.694 1.15,9.5 3.872,12.891c-0.756,1.722 -0.206,3.45 -0.206,5.453c0,3.222 0.821,6.178 2.65,8.525c-1.713,2.772 -2.438,6.103 -2.438,9.756c0,5.553 -0.037,5.553 -0.037,11.1c0,5.55 -0.272,5.55 -0.272,11.097c0,5.55 0.172,5.55 0.172,11.106c0,5.553 -0.166,5.553 -0.166,11.1c0,5.553 -0.441,5.553 -0.441,11.103c0,5.553 -0.018,5.553 -0.018,11.113c0,5.556 0.159,5.556 0.159,11.109" style="fill:#5f6062;fill-rule:nonzero;"/><path d="M106.654,155.381c-2.247,0 -3.547,-2.147 -3.547,-4.428c0,-2.281 1.3,-4.066 3.547,-4.066c5.366,0 5.366,-0.103 10.728,-0.103c5.366,0 4.197,-0.487 10.734,-0.487c3.113,0 6.754,1.066 10.729,1.066c3.378,0 6.996,0.09 10.731,0.09c3.512,0 7.128,-0.984 10.74,-0.984c3.622,0 7.241,-0.163 10.75,-0.163c3.747,0 7.372,0.657 10.754,0.657c3.981,0 7.631,-0.666 10.743,-0.666c6.532,0 5.36,0.756 10.722,0.756c2.241,0 3.969,1.619 3.969,3.9c0,2.281 -1.728,4.247 -3.969,4.247c-5.362,0 -5.362,-0.228 -10.728,-0.228c-5.372,0 -5.372,0.437 -10.737,0.437c-5.366,0 -5.366,0.303 -10.729,0.303c-5.365,0 -5.365,-0.196 -10.725,-0.196c-5.365,0 -5.365,-0.394 -10.731,-0.394c-5.369,0 -5.369,0.175 -10.734,0.175c-5.369,0 -5.369,-0.509 -10.738,-0.509c-5.378,0 -5.381,-0.038 -10.759,0.062c-5.378,0.097 -5.372,0.531 -10.75,0.531Zm79.553,13.978c0,4.663 -4.009,7.928 -8.594,7.928c-4.575,0 -8.243,-3.265 -8.243,-7.928c0,-4.662 3.668,-8.493 8.243,-8.493c4.585,0 8.594,3.831 8.594,8.493Zm-22.644,0c0,4.663 -4.012,7.928 -8.597,7.928c-4.581,0 -8.24,-3.265 -8.24,-7.928c0,-4.662 3.659,-8.493 8.24,-8.493c4.585,0 8.597,3.831 8.597,8.493Zm-22.647,0c0,4.663 -4.012,7.928 -8.596,7.928c-4.582,0 -8.241,-3.265 -8.241,-7.928c0,-4.662 3.659,-8.493 8.241,-8.493c4.584,0 8.596,3.831 8.596,8.493Zm50.066,-30.647c-4.375,0.391 -10.912,-0.675 -13.65,0.182c-2.737,0.853 -5.109,0.094 -5.109,0.094c-0.997,-0.635 -8.747,0 -8.747,0c-1.41,0.534 -4.569,0.196 -4.569,0.196c-1.39,-0.597 -27.825,-0.196 -27.825,-0.196c-1.434,0.534 -6.162,0.196 -6.162,0.196c-2.582,-0.396 -16.413,0.182 -16.413,0.182c-1.253,0 -1.784,-1.322 -1.862,-2.594c-0.266,-4.175 -1.897,-8.153 -3.941,-11.838c-0.413,-0.747 -0.491,-1.656 -0.066,-2.4c0.425,-0.74 1.244,-1.703 2.088,-1.703c5.578,0 5.578,1.066 11.156,1.066c5.581,0 5.581,0.091 11.163,0.091c5.581,0 5.581,-0.985 11.162,-0.985c5.581,0 5.581,-0.162 11.159,-0.162c5.582,0 5.582,0.656 11.163,0.656c5.575,0 5.575,-0.666 11.159,-0.666c5.578,0 5.578,0.756 11.163,0.756c5.59,0 5.59,-0.14 11.181,-0.14c5.591,0 5.591,-0.206 11.184,-0.206c0.841,0 1.525,0.631 1.957,1.371c0.422,0.741 0.8,1.766 0.39,2.513c-2.043,3.687 -2.878,7.55 -3.14,11.719c-0.082,1.275 -2.103,3.759 -2.938,2.819c-0.6,-0.679 -6.131,-1.341 -10.503,-0.951Zm-81.309,21.894c4.581,0 7.79,4.091 7.79,8.753c0,4.663 -3.209,8.391 -7.79,8.391c-4.582,0 -8.344,-3.728 -8.344,-8.391c0,-4.662 3.762,-8.753 8.344,-8.753Zm-1.172,123.497c-1.138,0.231 -4.163,0.06 -4.163,0.06c0,-3.688 -0.972,-7.422 -0.972,-11.157c0,-3.744 -0.159,-7.478 -0.159,-11.172c0,-3.784 0.647,-7.518 0.647,-11.162c0,-3.856 -0.653,-7.603 -0.653,-11.175c0,-3.956 0.744,-7.71 0.744,-11.166c0,-4.194 -0.138,-7.959 -0.138,-11.147c0,-6.928 -0.206,-5.565 -0.206,-11.137c0,-5.016 3.834,-7.184 7.287,-7.184c3.46,0 7.494,2.168 7.494,7.184c0,5.572 0.297,4.209 0.297,11.14c0,3.188 -0.191,6.954 -0.191,11.15c0,3.454 -0.384,7.197 -0.384,11.154c0,3.562 0.169,7.3 0.169,11.15c0,3.631 -0.497,7.362 -0.497,11.146c0,3.685 0.056,7.422 0.056,11.157c0,3.734 0.784,7.565 -0.016,11.162c-0.253,1.144 -9.315,-0.003 -9.315,-0.003Zm28.097,0.038c-1.863,-0.047 -10.222,0.022 -10.222,0.022c0,-3.688 -0.969,-7.422 -0.969,-11.157c0,-3.744 -0.159,-7.478 -0.159,-11.172c0,-3.784 0.647,-7.518 0.647,-11.162c0,-3.856 -0.654,-7.603 -0.654,-11.175c0,-3.956 0.744,-7.71 0.744,-11.166c0,-4.194 -0.137,-7.959 -0.137,-11.147c0,-6.928 -0.207,-5.565 -0.207,-11.137c0,-5.016 3.829,-7.184 7.288,-7.184c3.456,0 7.491,2.168 7.491,7.184c0,5.572 0.296,4.209 0.296,11.14c0,3.188 -0.19,6.954 -0.19,11.15c0,3.454 -0.388,7.197 -0.388,11.154c0,3.562 0.169,7.3 0.169,11.15c0,3.631 -0.497,7.362 -0.497,11.146c0,3.685 0.06,7.422 0.06,11.157c0,3.734 0.625,7.531 -0.016,11.162c-0.106,0.6 -3.256,0.035 -3.256,0.035Zm10.781,-0.241c-0.763,-3.606 0.066,-7.159 0.066,-10.894c0,-3.744 -0.16,-7.478 -0.16,-11.172c0,-3.784 0.644,-7.518 0.644,-11.162c0,-3.856 -0.653,-7.603 -0.653,-11.175c0,-3.956 0.744,-7.71 0.744,-11.166c0,-4.194 -0.138,-7.959 -0.138,-11.147c0,-6.928 -0.203,-5.565 -0.203,-11.137c0,-5.016 3.831,-7.184 7.291,-7.184c3.453,0 7.493,2.168 7.493,7.184c0,5.572 0.291,4.209 0.291,11.14c0,3.188 -0.188,6.954 -0.188,11.15c0,3.454 -0.384,7.197 -0.384,11.154c0,3.562 0.172,7.3 0.172,11.15c0,3.631 -0.5,7.362 -0.5,11.146c0,3.685 0.059,7.422 0.059,11.157c0,3.734 -0.031,5.806 -0.031,9.49c0,0 0.441,1.516 -1.553,1.391c0,0 -3.781,0.209 -5.881,-0.106c0,0 -6.91,0.937 -7.069,0.181Zm23.075,0.263c-0.309,-3.675 -0.969,-7.422 -0.969,-11.157c0,-3.744 -0.159,-7.478 -0.159,-11.172c0,-3.784 0.647,-7.518 0.647,-11.162c0,-3.856 -0.653,-7.603 -0.653,-11.175c0,-3.956 0.743,-7.71 0.743,-11.166c0,-4.194 -0.137,-7.959 -0.137,-11.147c0,-6.928 -0.203,-5.565 -0.203,-11.137c0,-5.016 3.828,-7.184 7.287,-7.184c3.456,0 7.491,2.168 7.491,7.184c0,5.572 0.297,4.209 0.297,11.14c0,3.188 -0.188,6.954 -0.188,11.15c0,3.454 -0.39,7.197 -0.39,11.154c0,3.562 0.168,7.3 0.168,11.15c0,3.631 -0.493,7.362 -0.493,11.146c0,3.685 0.056,7.422 0.056,11.157c0,3.734 -0.013,7.478 -0.013,11.162c0,0 0.941,0.494 -2.547,0.319c0,0 -2.959,-0.347 -4.7,0.175c0,0 -2.262,0.522 -3.309,0.172c0,0 -2.891,-0.175 -2.928,-0.609Zm32.184,-0.26c-0.697,-0.347 -6.268,0.175 -6.268,0.175c-1.738,0.694 -3.875,0.085 -3.875,0.085c0,-3.688 -0.969,-7.422 -0.969,-11.157c0,-3.744 -0.159,-7.478 -0.159,-11.172c0,-3.784 0.646,-7.518 0.646,-11.162c0,-3.856 -0.653,-7.603 -0.653,-11.175c0,-3.956 0.744,-7.71 0.744,-11.166c0,-4.194 -0.141,-7.959 -0.141,-11.147c0,-6.928 -0.2,-5.565 -0.2,-11.137c0,-5.016 3.825,-7.184 7.288,-7.184c3.453,0 7.487,2.168 7.487,7.184c0,5.572 0.3,4.209 0.3,11.14c0,3.188 -0.19,6.954 -0.19,11.15c0,3.454 -0.391,7.197 -0.391,11.154c0,3.562 0.172,7.3 0.172,11.15c0,3.631 -0.494,7.362 -0.494,11.146c0,3.685 0.056,7.422 0.056,11.157c0,3.734 -0.012,7.478 -0.012,11.162l-3.341,-0.203Zm0.647,-91.709c-5.362,0 -5.362,-0.819 -10.728,-0.819c-5.372,0 -5.372,0.459 -10.737,0.459c-5.366,0 -5.366,0.107 -10.729,0.107c-5.365,0 -5.365,0.484 -10.725,0.484c-5.365,0 -5.365,-1.066 -10.731,-1.066c-5.369,0 -5.369,-0.093 -10.734,-0.093c-5.369,0 -5.369,0.987 -10.738,0.987c-5.378,0 -5.378,0.163 -10.756,0.163c-5.375,0 -5.375,-0.657 -10.753,-0.657c-2.247,0 -4.575,-1.709 -4.575,-3.993c0,-2.285 2.328,-3.897 4.575,-3.897c5.366,0 5.366,-0.141 10.728,-0.141c5.366,0 4.197,-0.209 10.734,-0.209c3.113,0 6.754,0.231 10.725,0.231c3.382,0 7,-0.438 10.735,-0.438c3.512,0 7.128,-0.303 10.74,-0.303c3.622,0 7.241,0.194 10.75,0.194c3.747,0 7.372,0.394 10.754,0.394c3.981,0 7.631,-0.172 10.743,-0.172c6.532,0 5.36,0.503 10.722,0.503c2.241,0 3.828,1.553 3.828,3.838c0,2.284 -1.587,4.428 -3.828,4.428Zm-3.019,-14.085c-4.584,0 -7.796,-4.087 -7.796,-8.75c0,-4.662 3.212,-8.39 7.796,-8.39c4.582,0 8.341,3.728 8.341,8.39c0,4.663 -3.759,8.75 -8.341,8.75Zm32.713,-38.6c0.325,0.179 0.741,0.675 1.734,0.532c2.16,-0.31 3.003,-2.316 2.985,-6.21c-0.007,-1.656 -0.244,-3.337 -1.507,-4.565c-1.715,-1.675 -4.537,-2.635 -7.178,-2.525c-3.375,0.143 -5.756,1.931 -7.006,3.343c-2.272,2.563 -3.809,6.5 -3.566,10.435c0.25,4.103 3.169,7.172 6.182,9.65c2.862,2.356 6.293,4.512 10.443,4.368c3.585,-0.124 6.372,-1.915 8.816,-3.793c2.569,-1.975 5.144,-4.238 6.425,-7.344c1.241,-3 0.884,-6.519 0.884,-9.828c-0.006,-3.747 -0.725,-7.163 -2.518,-10.247c-1.819,-3.134 -4.457,-5.453 -7.538,-7.313c-3.034,-1.824 -6.25,-2.849 -9.937,-2.874c-5.432,-0.007 -5.432,-0.276 -10.872,-0.276c-5.438,0 -5.438,0.175 -10.875,0.175c-5.438,0 -5.438,-0.168 -10.875,-0.168c-5.447,0 -4.147,-0.45 -10.891,-0.45c-3.125,0 -6.8,-0.016 -10.887,-0.016c-3.375,0 -7.038,0.159 -10.885,0.159c-3.493,0 -7.147,0.266 -10.89,0.266c-3.563,0 -7.21,0.222 -10.885,0.222c-3.625,0 -7.275,-0.969 -10.897,-0.969c-3.681,0 -7.331,0.338 -10.9,0.338c-3.753,0 -7.409,0.206 -10.912,0.206c-3.853,0 -7.516,-0.078 -10.903,-0.078c-4.085,0 -7.76,-0.481 -10.881,-0.481c-6.738,0 -5.438,0.421 -10.875,0.437c-3.688,0.022 -7.285,1.044 -10.316,2.866c-3.088,1.859 -5.431,4.768 -7.256,7.903c-1.8,3.087 -2.616,6.553 -2.619,10.3c-0.003,3.309 -0.128,6.803 1.116,9.809c1.281,3.1 3.731,5.475 6.3,7.441c2.446,1.881 5.306,3.362 8.884,3.487c4.15,0.144 8.216,-0.975 11.081,-3.331c3.016,-2.481 4.719,-6.397 4.969,-10.494c0.244,-3.937 -1.206,-7.39 -3.481,-9.959c-1.25,-1.412 -3.182,-2.834 -6.557,-2.975c-2.637,-0.113 -4.887,0.612 -6.609,2.287c-1.262,1.225 -1.75,2.341 -1.759,3.997c-0.019,3.891 0.509,6.491 2.665,6.813c1.2,0.178 0.625,0.241 1.741,-0.041c0.241,-0.059 0.753,-0.428 0.972,-0.859c0.178,-0.356 0.072,-0.784 -0.038,-1.166c-0.797,-2.115 -0.247,-4.325 1.832,-5.168c2.106,-0.86 4.031,0.193 4.89,2.293c0.631,1.547 1.206,3.838 0.478,6.25c-1.384,4.569 -5.628,6.825 -10.956,6.05c-3.456,-0.503 -6.384,-1.828 -8.147,-4.647c-1.522,-2.443 -2.419,-5.768 -2.403,-9.568c0.022,-3.907 1.744,-7.713 4.6,-10.491c3.353,-3.262 8.219,-5.259 13.116,-5.047c4.865,0.203 9.647,2.413 12.909,6.094c1.913,2.159 3.066,5.059 3.966,7.922c0.862,2.74 0.718,5.69 0.534,8.706c-0.259,4.228 -1.622,7.825 -3.856,11.094c-2.26,3.309 -5.019,6.128 -8.688,7.912c-3.468,1.691 -7.353,2.869 -11.54,2.719c-3.657,-0.125 -7.141,-0.947 -10.172,-2.478c-3.125,-1.578 -5.563,-4.194 -7.794,-6.988c-2.131,-2.665 -4.409,-5.515 -5.516,-9.04c-1.012,-3.222 -0.828,-6.882 -0.825,-10.632c0.004,-3.918 0.047,-7.878 1.507,-11.337c1.487,-3.525 4.509,-6.1 7.162,-8.794c2.65,-2.694 5.425,-5.19 8.891,-6.709c3.394,-1.481 7.044,-2.328 10.894,-2.35c5.437,-0.006 5.437,-0.047 10.871,-0.047c5.444,0 5.444,0.253 10.888,0.253c5.437,0 5.437,-0.484 10.878,-0.484c5.444,0 5.444,-0.057 10.891,-0.057c5.44,0 5.44,0.076 10.881,0.076c5.444,0 5.444,0.493 10.887,0.493c5.447,0 5.447,0.166 10.894,0.166c5.444,0 5.444,-0.588 10.894,-0.588c5.437,0 5.437,0.413 10.881,0.413c5.447,0 5.447,0.075 10.891,0.075c5.45,0 5.45,-0.775 10.894,-0.775c5.45,0 5.45,-0.006 10.893,-0.006c5.46,0 5.46,0.343 10.922,0.343c5.456,0 5.456,-0.362 10.913,-0.353c3.843,0.022 7.731,0.797 11.125,2.282c3.462,1.518 6.128,4.443 8.778,7.137c2.65,2.7 4.725,5.759 6.212,9.281c1.453,3.46 2.125,7.066 2.132,10.981c0,3.75 0.309,7.388 -0.704,10.613c-1.109,3.525 -2.971,6.691 -5.103,9.356c-2.231,2.794 -5.187,4.788 -8.312,6.366c-3.031,1.525 -6.353,2.856 -10.01,2.981c-4.187,0.15 -7.934,-1.509 -11.4,-3.2c-3.668,-1.784 -6.959,-4.031 -9.218,-7.337c-2.232,-3.269 -3.71,-7.11 -3.966,-11.332c-0.191,-3.018 -0.275,-6.146 0.584,-8.887c0.907,-2.863 3.225,-4.95 5.141,-7.11c3.259,-3.684 7.359,-5.556 12.225,-5.762c4.894,-0.206 9.844,0.659 13.203,3.922c2.856,2.778 4.706,6.709 4.722,10.616c0.019,3.8 -1.422,6.937 -2.947,9.381c-1.756,2.818 -4.272,5.209 -7.728,5.712c-5.328,0.775 -9.684,-2.356 -11.072,-6.925c-0.731,-2.403 -0.45,-4.809 0.178,-6.365c0.86,-2.122 3.144,-3.26 5.257,-2.407c2.081,0.841 2.971,3.322 2.171,5.472c0,0 0.054,0.619 0.488,0.853Z" style="fill:#fff;fill-rule:nonzero;"/></g><g><path d="M387.356,90.379l-10.061,0l0,-38.25c0,-14.956 9.064,-23.199 20.122,-23.199c11.149,0 20.213,8.243 20.213,23.199l0,38.25l-10.152,0l0,-20.122l-20.122,0l0,20.122Zm20.122,-38.25c0,-8.883 -4.532,-13.138 -10.061,-13.138c-5.529,0 -10.061,4.255 -10.061,13.138l0,8.067l20.122,0l0,-8.067Z" style="fill:#fff;fill-rule:nonzero;"/><path d="M454.162,80.322l17.127,0l0,10.057l-27.192,0l0,-60.452l10.065,0l0,50.395Z" style="fill:#fff;fill-rule:nonzero;"/><path d="M500.747,90.379l-10.066,0l0,-38.25c0,-14.956 9.064,-23.199 20.127,-23.199c11.148,0 20.212,8.243 20.212,23.199l0,38.25l-10.156,0l0,-20.122l-20.117,0l0,20.122Zm20.117,-38.25c0,-8.883 -4.532,-13.138 -10.056,-13.138c-5.529,0 -10.061,4.255 -10.061,13.138l0,8.067l20.117,0l0,-8.067Z" style="fill:#fff;fill-rule:nonzero;"/><path d="M557.483,29.927l21.123,0c8.883,0 16.134,7.246 16.134,16.129c0,4.17 -1.269,7.256 -3.535,9.97c4.618,3.54 7.614,8.616 7.614,15.232c0,10.601 -8.611,19.121 -19.125,19.121l-22.211,0l0,-60.452Zm10.065,22.202l11.058,0c3.354,0 6.069,-2.719 6.069,-6.073c0,-3.349 -2.715,-6.073 -6.069,-6.073l-11.058,0l0,12.146Zm0,28.193l12.146,0c4.981,0 9.064,-4.083 9.064,-9.064c0,-5.075 -4.083,-9.064 -9.064,-9.064l-12.146,0l0,18.128Z" style="fill:#fff;fill-rule:nonzero;"/><path d="M634.345,90.379l-10.061,0l0,-38.25c0,-14.956 9.064,-23.199 20.122,-23.199c11.149,0 20.213,8.243 20.213,23.199l0,38.25l-10.152,0l0,-20.122l-20.122,0l0,20.122Zm20.122,-38.25c0,-8.883 -4.532,-13.138 -10.061,-13.138c-5.529,0 -10.061,4.255 -10.061,13.138l0,8.067l20.122,0l0,-8.067Z" style="fill:#fff;fill-rule:nonzero;"/><path d="M731.874,90.379l0,-36.437l-14.593,27.373l-1.994,0l-14.594,-27.373l0,36.437l-9.607,0l0,-60.452l8.248,0l16.95,31.81l16.949,-31.81l8.248,0l0,60.452l-9.607,0Z" style="fill:#fff;fill-rule:nonzero;"/><path d="M778.014,90.379l-10.066,0l0,-38.25c0,-14.956 9.064,-23.199 20.122,-23.199c11.149,0 20.213,8.243 20.213,23.199l0,38.25l-10.152,0l0,-20.122l-20.117,0l0,20.122Zm20.117,-38.25c0,-8.883 -4.532,-13.138 -10.061,-13.138c-5.524,0 -10.056,4.255 -10.056,13.138l0,8.067l20.117,0l0,-8.067Z" style="fill:#fff;fill-rule:nonzero;"/><path d="M418.038,185.551l0,-36.437l-14.593,27.373l-1.994,0l-14.598,-27.373l0,36.437l-9.603,0l0,-60.452l8.248,0l16.945,31.81l16.954,-31.81l8.249,0l0,60.452l-9.608,0Z" style="fill:#fff;fill-rule:nonzero;"/><path d="M464.178,125.099l0,38.336c0,8.792 4.532,13.052 10.057,13.052c5.529,0 10.061,-4.26 10.061,-13.052l0,-38.336l10.151,0l0,38.336c0,14.869 -9.064,23.113 -20.212,23.113c-11.059,0 -20.122,-8.244 -20.122,-23.113l0,-38.336l10.065,0Z" style="fill:#fff;fill-rule:nonzero;"/><path d="M534.782,186.548c-6.531,0 -11.425,-2.085 -17.045,-6.436l1.183,-8.968c6.068,3.258 11.053,5.343 16.224,5.343c4.532,0 10.329,-2.447 10.329,-7.342c0,-11.511 -28.552,-7.065 -28.552,-27.278c0,-10.519 9.246,-17.766 19.946,-17.766c6.798,0 11.416,2.353 17.67,7.247l-3.168,7.976c-4.265,-2.809 -9.34,-5.257 -14.14,-5.257c-6.073,0 -9.789,3.268 -9.789,6.893c0,10.782 28.638,8.067 28.638,26.644c0,12.422 -10.424,18.944 -21.296,18.944Z" style="fill:#fff;fill-rule:nonzero;"/><path d="M577.654,125.099l30.184,0l0,10.056l-20.123,0l0,12.146l20.123,0l0,10.065l-20.123,0l0,18.128l20.123,0l0,10.057l-30.184,0l0,-60.452Z" style="fill:#fff;fill-rule:nonzero;"/><path d="M644.456,125.099l0,38.336c0,8.792 4.532,13.052 10.061,13.052c5.525,0 10.057,-4.26 10.057,-13.052l0,-38.336l10.156,0l0,38.336c0,14.869 -9.064,23.113 -20.213,23.113c-11.063,0 -20.127,-8.244 -20.127,-23.113l0,-38.336l10.066,0Z" style="fill:#fff;fill-rule:nonzero;"/><path d="M741.98,185.551l0,-36.437l-14.589,27.373l-1.998,0l-14.593,-27.373l0,36.437l-9.608,0l0,-60.452l8.253,0l16.949,31.81l16.946,-31.81l8.248,0l0,60.452l-9.608,0Z" style="fill:#fff;fill-rule:nonzero;"/><path d="M791.927,186.548c-6.531,0 -11.425,-2.085 -17.045,-6.436l1.183,-8.968c6.073,3.258 11.054,5.343 16.225,5.343c4.532,0 10.328,-2.447 10.328,-7.342c0,-11.511 -28.552,-7.065 -28.552,-27.278c0,-10.519 9.246,-17.766 19.946,-17.766c6.798,0 11.416,2.353 17.67,7.247l-3.168,7.976c-4.26,-2.809 -9.34,-5.257 -14.14,-5.257c-6.073,0 -9.789,3.268 -9.789,6.893c0,10.782 28.638,8.067 28.638,26.644c0,12.422 -10.424,18.944 -21.296,18.944Z" style="fill:#fff;fill-rule:nonzero;"/><path d="M464.5,226.633c0.254,-0.127 0.761,-0.258 1.269,-0.258c1.21,0 2.982,0.381 3.553,1.523c-1.772,4.124 -5.837,14.597 -8.18,21.191c-0.322,0.83 -0.068,1.147 0.312,1.147c0.952,0 3.553,-1.459 6.345,-4.124c0.512,0 1.015,0.38 1.015,1.201c-2.791,3.553 -7.74,7.11 -11.801,7.11c-1.518,0 -2.089,-1.273 -2.089,-2.034c0,-0.63 0.19,-1.333 0.63,-2.602l2.284,-6.027l-0.191,0c-4.436,6.027 -10.786,10.663 -14.461,10.663c-2.035,0 -3.431,-1.781 -3.431,-3.807c0,-2.479 2.538,-8.882 7.428,-14.407c2.851,-3.172 5.769,-5.139 7.931,-6.281c1.899,-1.011 3.422,-1.391 4.944,-1.391c0.513,0 1.016,0.249 1.464,0.439c0.313,0.191 0.952,0.703 1.333,1.206l1.645,-3.549Zm-10.528,7.292c-3.558,3.875 -6.857,11.045 -6.979,15.232c0,0.698 0.249,1.269 0.761,1.269c1.011,0 3.676,-2.289 6.467,-5.076c3.173,-3.362 6.091,-9.014 6.98,-11.932c-0.508,-1.523 -1.523,-2.217 -2.792,-2.217c-1.396,0 -2.411,0.571 -4.437,2.724Z" style="fill:#fff;fill-rule:nonzero;"/><path d="M473.192,250.299c0,-1.4 1.011,-3.045 2.411,-3.045c0.503,0 0.952,0.38 1.396,0.883c1.65,1.782 3.045,2.86 4.822,2.86c1.332,0 2.538,-0.951 2.538,-2.288c0,-2.094 -1.967,-4.31 -3.177,-5.833c-1.772,-2.289 -2.66,-4.446 -2.66,-6.028c0,-2.664 1.396,-4.826 3.68,-6.789c1.776,-1.522 4.06,-2.415 5.71,-2.415c2.914,0 5.076,2.157 5.076,4.378c0,1.713 -1.401,2.665 -2.03,2.665c-0.571,0 -1.016,-0.25 -1.396,-0.762c-1.777,-2.03 -2.792,-2.724 -4.442,-2.724c-1.395,0 -2.157,1.074 -2.157,1.963c0,2.094 2.094,3.934 3.236,5.456c1.84,2.475 2.855,4.256 2.724,6.73c0,2.153 -1.138,4.569 -3.549,6.531c-1.908,1.591 -4.441,2.542 -7.106,2.542c-2.665,0 -5.076,-1.903 -5.076,-4.124Z" style="fill:#fff;fill-rule:nonzero;"/><path d="M496.033,250.299c0,-1.4 1.011,-3.045 2.411,-3.045c0.503,0 0.952,0.38 1.396,0.883c1.65,1.782 3.046,2.86 4.822,2.86c1.333,0 2.538,-0.951 2.538,-2.288c0,-2.094 -1.967,-4.31 -3.172,-5.833c-1.777,-2.289 -2.665,-4.446 -2.665,-6.028c0,-2.664 1.396,-4.826 3.68,-6.789c1.777,-1.522 4.061,-2.415 5.71,-2.415c2.914,0 5.076,2.157 5.076,4.378c0,1.713 -1.4,2.665 -2.03,2.665c-0.571,0 -1.015,-0.25 -1.396,-0.762c-1.777,-2.03 -2.792,-2.724 -4.441,-2.724c-1.396,0 -2.158,1.074 -2.158,1.963c0,2.094 2.094,3.934 3.236,5.456c1.84,2.475 2.855,4.256 2.728,6.73c0,2.153 -1.142,4.569 -3.553,6.531c-1.908,1.591 -4.441,2.542 -7.106,2.542c-2.665,0 -5.076,-1.903 -5.076,-4.124Z" style="fill:#fff;fill-rule:nonzero;"/><path d="M528.265,231.895c3.616,-3.426 6.789,-4.251 9.644,-4.251c5.647,0 7.931,3.87 7.804,8.633c0,3.929 -1.967,9.703 -6.218,13.769c-3.68,3.616 -7.233,4.377 -10.025,4.377c-5.329,0 -7.994,-3.684 -7.872,-8.311c0.132,-4.637 2.733,-10.664 6.667,-14.217Zm6.281,16.501c2.284,-3.304 5.33,-10.918 5.33,-15.042c0,-1.713 -0.254,-3.426 -2.035,-3.426c-1.142,0 -2.47,0.702 -4.12,2.796c-2.982,3.866 -6.281,11.416 -6.281,16.111c0,1.904 0.825,3.304 2.28,3.304c1.527,0 2.923,-1.019 4.826,-3.743Z" style="fill:#fff;fill-rule:nonzero;"/><path d="M553.263,247.444c0,-4.187 2.602,-10.473 7.17,-14.978c3.363,-3.299 6.725,-4.822 10.084,-4.822c3.303,0 5.524,1.776 5.456,4.319c0,2.474 -2.343,3.485 -3.802,3.485c-1.083,0 -1.845,-0.635 -1.904,-1.772c-0.131,-1.401 0.059,-3.494 -1.586,-3.494c-1.269,0 -2.918,1.269 -4.695,4.065c-1.971,3.104 -3.997,7.799 -3.997,12.436c0,2.855 1.074,3.807 2.597,3.807c1.908,0 4.192,-1.21 6.789,-3.875c0.761,0 1.273,0.507 1.142,1.269c-2.343,3.113 -6.975,6.539 -11.67,6.539c-3.426,0 -5.584,-2.415 -5.584,-6.979Z" style="fill:#fff;fill-rule:nonzero;"/><path d="M588.536,248.777c-0.254,0.629 -0.313,1.2 0.19,1.2c1.02,0 4.505,-2.41 6.345,-4.377c0.702,0 1.205,0.634 1.083,1.273c-1.781,2.665 -7.872,7.55 -12.689,7.55c-1.079,0 -2.031,-1.4 -2.031,-1.971c0,-0.693 0.123,-1.396 0.571,-2.475l7.038,-16.682c0.254,-0.639 0.254,-1.02 -0.126,-1.02c-0.762,0 -3.427,1.65 -5.452,3.431c-0.639,0 -1.079,-0.761 -0.889,-1.269c3.422,-3.997 8.819,-6.793 11.675,-6.793c0.883,0 1.903,0.893 2.093,1.776c0.123,0.508 -0.068,1.401 -0.702,2.733l-7.106,16.624Zm3.553,-31.788c0,-2.162 1.523,-4.636 4.314,-4.636c1.904,0 3.046,1.083 3.046,3.109c0,2.411 -1.772,4.632 -4.315,4.632c-2.025,0 -3.045,-1.46 -3.045,-3.105Z" style="fill:#fff;fill-rule:nonzero;"/><path d="M626.731,226.633c0.254,-0.127 0.762,-0.258 1.269,-0.258c1.21,0 2.982,0.381 3.553,1.523c-1.772,4.124 -5.837,14.597 -8.184,21.191c-0.317,0.83 -0.064,1.147 0.317,1.147c0.952,0 3.553,-1.459 6.345,-4.124c0.512,0 1.015,0.38 1.015,1.201c-2.792,3.553 -7.741,7.11 -11.801,7.11c-1.523,0 -2.094,-1.273 -2.094,-2.034c0,-0.63 0.19,-1.333 0.634,-2.602l2.284,-6.027l-0.19,0c-4.441,6.027 -10.786,10.663 -14.462,10.663c-2.034,0 -3.43,-1.781 -3.43,-3.807c0,-2.479 2.538,-8.882 7.423,-14.407c2.855,-3.172 5.774,-5.139 7.931,-6.281c1.904,-1.011 3.426,-1.391 4.949,-1.391c0.512,0 1.015,0.249 1.459,0.439c0.318,0.191 0.952,0.703 1.333,1.206l1.649,-3.549Zm-10.532,7.292c-3.553,3.875 -6.852,11.045 -6.979,15.232c0,0.698 0.254,1.269 0.761,1.269c1.015,0 3.68,-2.289 6.472,-5.076c3.172,-3.362 6.091,-9.014 6.979,-11.932c-0.507,-1.523 -1.523,-2.217 -2.792,-2.217c-1.395,0 -2.411,0.571 -4.441,2.724Z" style="fill:#fff;fill-rule:nonzero;"/><path d="M651.345,231.705l-5.706,16.432c-0.381,1.02 -0.254,1.523 0.381,1.523c1.01,0 4.695,-2.787 6.979,-5.329c0.761,0.127 1.142,0.507 1.01,1.4c-2.787,4.188 -9.005,8.692 -13.07,8.692c-1.264,0 -2.279,-1.142 -2.279,-2.161c0,-0.884 0.19,-1.772 0.761,-3.485l5.837,-17.072l-4.822,0c-0.381,-0.572 0,-1.646 0.635,-2.026l5.329,-1.02l4.061,-6.15c0.381,-0.258 0.884,-0.322 1.523,-0.322c0.883,0 1.776,0.322 2.025,0.825l-1.772,5.905l6.345,0c0.762,0.762 0.254,2.407 -0.507,2.788l-6.73,0Z" style="fill:#fff;fill-rule:nonzero;"/><path d="M669.432,248.777c-0.254,0.629 -0.317,1.2 0.19,1.2c1.015,0 4.505,-2.41 6.345,-4.377c0.698,0 1.205,0.634 1.078,1.273c-1.776,2.665 -7.867,7.55 -12.689,7.55c-1.079,0 -2.03,-1.4 -2.03,-1.971c0,-0.693 0.127,-1.396 0.571,-2.475l7.042,-16.682c0.254,-0.639 0.254,-1.02 -0.126,-1.02c-0.762,0 -3.427,1.65 -5.457,3.431c-0.634,0 -1.079,-0.761 -0.888,-1.269c3.426,-3.997 8.819,-6.793 11.674,-6.793c0.888,0 1.903,0.893 2.094,1.776c0.127,0.508 -0.064,1.401 -0.698,2.733l-7.106,16.624Zm3.553,-31.788c0,-2.162 1.523,-4.636 4.314,-4.636c1.904,0 3.046,1.083 3.046,3.109c0,2.411 -1.777,4.632 -4.315,4.632c-2.03,0 -3.045,-1.46 -3.045,-3.105Z" style="fill:#fff;fill-rule:nonzero;"/><path d="M691.448,231.895c3.617,-3.426 6.789,-4.251 9.644,-4.251c5.647,0 7.931,3.87 7.804,8.633c0,3.929 -1.966,9.703 -6.218,13.769c-3.679,3.616 -7.233,4.377 -10.024,4.377c-5.33,0 -7.995,-3.684 -7.872,-8.311c0.131,-4.637 2.733,-10.664 6.666,-14.217Zm6.282,16.501c2.284,-3.304 5.325,-10.918 5.325,-15.042c0,-1.713 -0.25,-3.426 -2.031,-3.426c-1.142,0 -2.474,0.702 -4.119,2.796c-2.982,3.866 -6.286,11.416 -6.286,16.111c0,1.904 0.829,3.304 2.284,3.304c1.527,0 2.923,-1.019 4.827,-3.743Z" style="fill:#fff;fill-rule:nonzero;"/><path d="M745.755,231.201c0,1.201 -0.503,3.363 -1.142,5.008c-1.142,3.114 -4.183,10.025 -5.198,12.568c-0.317,0.761 -0.381,1.269 0.122,1.269c1.02,0 4.065,-2.289 5.837,-4.315c0.762,-0.131 1.142,0.381 1.142,1.142c-2.152,3.553 -7.228,7.55 -12.177,7.55c-1.142,0 -2.162,-1.142 -2.162,-2.034c0,-0.762 0.259,-1.65 1.142,-3.744c1.65,-3.807 3.812,-9.073 5.334,-12.816c0.503,-1.265 1.016,-2.792 1.016,-3.807c0,-0.571 -0.132,-1.079 -0.893,-1.079c-1.074,0 -3.807,1.972 -6.721,5.647c-3.426,4.446 -6.535,10.283 -9.644,16.814c-0.381,0.761 -1.142,1.019 -2.162,1.019c-1.142,0 -3.363,-0.38 -2.792,-2.161c0.259,-0.825 6.096,-16.556 6.73,-18.337c0.381,-1.01 0.508,-1.903 -0.254,-1.903c-1.268,0 -3.684,1.654 -5.456,3.304c-0.639,0 -1.02,-0.513 -1.02,-1.02c2.031,-3.236 6.599,-6.662 10.913,-6.662c2.284,0 2.475,1.903 1.904,3.299l-3.866,9.835l0.254,0c3.992,-5.643 9.83,-13.134 15.291,-13.134c2.791,0 3.802,1.776 3.802,3.557Z" style="fill:#fff;fill-rule:nonzero;"/></g></svg>