<?xml version="1.0" encoding="UTF-8" standalone="no"?>
<!DOCTYPE svg PUBLIC "-//W3C//DTD SVG 1.1//EN" "http://www.w3.org/Graphics/SVG/1.1/DTD/svg11.dtd">
<svg width="100%" height="100%" viewBox="0 0 3330 1227" version="1.1" xmlns="http://www.w3.org/2000/svg" xmlns:xlink="http://www.w3.org/1999/xlink" xml:space="preserve" xmlns:serif="http://www.serif.com/" style="fill-rule:evenodd;clip-rule:evenodd;stroke-linejoin:round;stroke-miterlimit:2;">
    <g transform="matrix(5.46986,0,0,5.46986,-7123.55,12.2474)">
        <g transform="matrix(0.395991,0,0,0.395991,952.157,16.095)">
            <path d="M903.765,471.885C903.765,500.235 924.518,520.039 950.969,520.039C971.452,520.039 987.729,509.866 994.782,491.689L979.997,491.689C974.843,502.948 964.805,509.323 950.969,509.323C931.165,509.323 916.38,494.945 916.38,471.885C916.38,448.69 931.165,434.311 950.969,434.311C964.805,434.311 974.843,440.687 979.997,452.081L994.782,452.081C987.729,433.769 971.452,423.46 950.969,423.46C924.518,423.46 903.765,443.535 903.765,471.885Z" style="fill:white;fill-rule:nonzero;"/>
            <path d="M1117.95,452.488C1117.95,463.068 1111.84,470.664 1097.87,470.664L1079.7,470.664L1079.7,434.854L1097.87,434.854C1111.98,434.854 1117.95,441.772 1117.95,452.488ZM1067.35,424.681L1067.35,519.225L1079.7,519.225L1079.7,480.566L1094.62,480.566L1117.13,519.225L1131.92,519.225L1108.18,479.617C1124.05,476.09 1130.7,464.56 1130.7,452.488C1130.7,437.024 1120.12,424.681 1097.87,424.681L1067.35,424.681Z" style="fill:white;fill-rule:nonzero;"/>
            <path d="M1254.95,424.545L1204.08,424.545L1204.08,519.225L1254.95,519.225L1254.95,509.052L1216.43,509.052L1216.43,476.497L1250.88,476.497L1250.88,466.324L1216.43,466.324L1216.43,434.718L1254.95,434.718L1254.95,424.545Z" style="fill:white;fill-rule:nonzero;"/>
            <path d="M1357.36,424.681L1327.93,424.681L1327.93,519.225L1357.36,519.225C1388.42,519.225 1407.55,501.456 1407.55,472.156C1407.55,442.857 1388.42,424.681 1357.36,424.681ZM1340.27,509.052L1340.27,434.718L1357.36,434.718C1382.05,434.718 1394.93,449.097 1394.93,472.156C1394.93,495.216 1382.05,509.052 1357.36,509.052L1340.27,509.052Z" style="fill:white;fill-rule:nonzero;"/>
            <rect x="1478.09" y="424.681" width="12.344" height="94.544" style="fill:white;"/>
            <path d="M1559.88,434.718L1585.79,434.718L1585.79,519.225L1598.13,519.225L1598.13,434.718L1623.9,434.718L1623.9,424.681L1559.88,424.681L1559.88,434.718Z" style="fill:white;fill-rule:nonzero;"/>
            <path d="M1783.56,484.364C1783.56,508.916 1799.56,520.175 1819.1,520.175C1838.63,520.175 1854.77,508.916 1854.77,484.364L1854.77,424.681L1842.43,424.681L1842.43,484.5C1842.43,501.863 1833.2,509.323 1819.23,509.323C1805.26,509.323 1795.9,501.863 1795.9,484.5L1795.9,424.681L1783.56,424.681L1783.56,484.364Z" style="fill:white;fill-rule:nonzero;"/>
            <path d="M1991.64,424.545L1991.64,499.692L1941.99,424.545L1929.65,424.545L1929.65,519.225L1941.99,519.225L1941.99,443.942L1991.64,519.225L2003.98,519.225L2003.98,424.545L1991.64,424.545Z" style="fill:white;fill-rule:nonzero;"/>
            <rect x="2079.26" y="424.681" width="12.344" height="94.544" style="fill:white;"/>
            <path d="M2257.23,471.885C2257.23,443.535 2236.47,423.596 2209.75,423.596C2183.17,423.596 2162.28,443.535 2162.28,471.885C2162.28,500.235 2183.17,520.175 2209.75,520.175C2236.47,520.175 2257.23,500.235 2257.23,471.885ZM2174.89,471.885C2174.89,448.69 2189.81,434.311 2209.75,434.311C2229.69,434.311 2244.61,448.69 2244.61,471.885C2244.61,494.945 2229.69,509.459 2209.75,509.459C2189.81,509.459 2174.89,494.945 2174.89,471.885Z" style="fill:white;fill-rule:nonzero;"/>
            <path d="M2389.75,424.545L2389.75,499.692L2340.11,424.545L2327.76,424.545L2327.76,519.225L2340.11,519.225L2340.11,443.942L2389.75,519.225L2402.1,519.225L2402.1,424.545L2389.75,424.545Z" style="fill:white;fill-rule:nonzero;"/>
        </g>
        <g transform="matrix(0.478311,0,0,0.478311,319.238,-60.7939)">
            <g transform="matrix(1,0,0,1,1699.72,-222.565)">
                <path d="M432.48,344.985L434.941,351.003L384.338,489.137C382.697,493.787 380.508,499.531 377.773,504.181C374.217,510.199 370.114,514.028 355.617,514.028L355.617,519.225L418.803,519.225L418.803,514.028L416.068,514.028C405.947,513.754 392.544,514.301 392.27,503.907C392.27,501.993 393.091,499.257 393.912,496.795L413.606,443.73L470.227,443.73L487.459,490.504C489.648,496.248 491.562,500.351 491.562,505.548C491.562,513.481 482.262,514.028 465.577,514.028L463.115,514.028L463.115,519.225L538.336,519.225L538.336,514.028C524.66,514.028 518.916,511.293 513.445,496.795L456.277,344.985L432.48,344.985ZM441.506,367.962L465.577,431.695L418.256,431.695L441.506,367.962Z" style="fill:white;fill-rule:nonzero;"/>
                <path d="M548.731,349.088L548.731,354.285C567.057,354.559 572.254,357.568 572.254,373.706L572.254,455.219C572.254,500.898 607.267,523.602 651.305,523.602C696.711,523.602 732.271,500.625 732.271,452.483L732.271,378.63C732.271,361.944 739.109,354.559 757.162,354.285L757.162,349.088L692.882,349.088L692.882,354.285C715.312,355.379 719.688,360.303 719.688,384.647L719.688,451.116C719.688,488.589 696.985,509.378 657.323,509.378C615.746,509.378 594.958,486.128 594.958,451.389L594.958,375.074C594.958,359.482 599.334,354.285 617.661,354.285L619.028,354.285L619.028,349.088L548.731,349.088Z" style="fill:white;fill-rule:nonzero;"/>
                <path d="M931.949,387.656C931.949,375.894 927.025,366.047 916.905,358.388C906.784,350.456 886.816,346.626 857.001,346.626C843.051,346.626 830.742,346.9 820.074,347.447L784.789,349.088L784.789,354.285L792.174,354.285C808.86,354.285 815.424,357.021 815.424,376.715L815.424,491.598C815.424,511.84 807.218,514.028 788.892,514.028L782.327,514.028L782.327,519.225L883.534,519.225C903.775,519.225 920.734,511.84 931.128,498.163C937.42,489.957 941.523,478.469 941.523,467.254C941.523,446.192 926.752,429.233 900.766,421.574L900.766,421.027C918.546,418.018 931.949,403.521 931.949,387.656ZM838.128,352.644L863.292,351.823C890.099,352.918 907.331,363.585 907.331,388.477C907.331,409.539 893.928,420.206 869.037,420.206L838.128,420.206L838.128,352.644ZM838.128,425.404L868.763,425.404C894.475,425.404 915.811,442.636 915.811,468.075C915.811,495.428 899.672,511.84 869.31,511.84C844.966,511.84 838.128,503.087 838.128,484.486L838.128,425.404Z" style="fill:white;fill-rule:nonzero;"/>
                <g transform="matrix(1,0,0,1,-10.6677,0)">
                    <path d="M977.355,349.088L977.355,354.285C995.682,354.559 1000.88,357.568 1000.88,373.706L1000.88,455.219C1000.88,500.898 1035.89,523.602 1079.93,523.602C1125.34,523.602 1160.89,500.625 1160.89,452.483L1160.89,378.63C1160.89,361.944 1167.73,354.559 1185.79,354.285L1185.79,349.088L1121.51,349.088L1121.51,354.285C1143.94,355.379 1148.31,360.303 1148.31,384.647L1148.31,451.116C1148.31,488.589 1125.61,509.378 1085.95,509.378C1044.37,509.378 1023.58,486.128 1023.58,451.389L1023.58,375.074C1023.58,359.482 1027.96,354.285 1046.29,354.285L1047.65,354.285L1047.65,349.088L977.355,349.088Z" style="fill:white;fill-rule:nonzero;"/>
                </g>
                <g transform="matrix(1,0,0,1,-10.6677,0)">
                    <path d="M1358.38,395.315C1358.38,380.818 1352.37,369.056 1340.06,360.029C1328.02,351.003 1307.78,346.626 1283.16,346.626C1259.09,346.626 1234.75,348.541 1216.15,349.088L1216.15,354.285L1219.98,354.285C1235.84,354.285 1242.68,356.747 1242.68,375.074L1242.68,492.419C1242.68,511.566 1235.02,514.028 1219.7,514.028L1216.15,514.028L1216.15,519.225L1293.56,519.225L1293.56,514.028L1288.09,514.028C1273.04,514.028 1265.38,511.019 1265.38,494.334L1265.38,447.286C1270.31,447.56 1275.23,447.833 1280.15,447.833C1286.17,447.833 1292.46,447.56 1297.93,447.286C1307.51,453.577 1321.46,466.433 1338.69,484.213C1357.57,503.634 1368.78,512.934 1380.27,517.037C1390.03,519.25 1401.56,519.225 1418.79,519.225C1422.35,519.225 1426.28,519.222 1429.84,519.225L1429.84,514.028C1426.83,513.754 1422.35,513.207 1419.34,512.66C1399.37,508.284 1386.01,500.898 1369.87,484.76C1351.27,465.886 1335.41,450.295 1322.01,439.627C1344.71,433.062 1358.38,415.556 1358.38,395.315ZM1265.38,352.371C1269.49,351.823 1270.58,351.823 1275.78,351.823C1296.57,351.823 1306.96,354.559 1315.99,360.303C1327.48,367.688 1332.67,379.997 1332.67,396.956C1332.67,418.839 1323.65,431.695 1309.97,437.713C1303.68,440.448 1296.29,442.636 1279.06,442.636C1277.69,442.636 1268.67,442.636 1265.38,442.089L1265.38,352.371Z" style="fill:white;fill-rule:nonzero;"/>
                </g>
                <g transform="matrix(1,0,0,1,-41.623,0)">
                    <path d="M1460.96,349.088L1460.96,354.285C1470.81,354.559 1478.19,357.021 1483.94,361.124L1483.94,495.975C1483.94,509.651 1476.83,514.028 1460.41,514.028L1460.41,519.225L1523.87,519.225L1523.87,514.028C1502.26,514.028 1496.25,510.746 1496.25,491.325L1496.25,372.885L1637.93,521.14L1645.05,521.14L1645.05,367.688C1645.05,356.474 1652.16,354.285 1669.94,354.285L1669.94,349.088L1605.93,349.088L1605.93,354.285C1626.99,354.832 1632.74,357.841 1632.74,373.432L1632.74,483.392L1503.9,349.088L1460.96,349.088Z" style="fill:white;fill-rule:nonzero;"/>
                </g>
            </g>
            <g transform="matrix(0.685236,0,0,0.685236,843.591,110.801)">
                <g transform="matrix(1,0,0,1,-30.9553,0)">
                    <path d="M1799.32,349.088L1799.32,354.285C1817.65,354.559 1822.84,357.568 1822.84,373.706L1822.84,455.219C1822.84,500.898 1857.86,523.602 1901.89,523.602C1947.3,523.602 1982.86,500.625 1982.86,452.483L1982.86,378.63C1982.86,361.944 1989.7,354.559 2007.75,354.285L2007.75,349.088L1943.47,349.088L1943.47,354.285C1965.9,355.379 1970.28,360.303 1970.28,384.647L1970.28,451.116C1970.28,488.589 1947.57,509.378 1907.91,509.378C1866.33,509.378 1845.55,486.128 1845.55,451.389L1845.55,375.074C1845.55,359.482 1849.92,354.285 1868.25,354.285L1869.62,354.285L1869.62,349.088L1799.32,349.088Z" style="fill:white;fill-rule:nonzero;"/>
                </g>
                <g transform="matrix(1,0,0,1,-30.9553,0)">
                    <path d="M2041.67,349.088L2041.67,354.285C2051.52,354.559 2058.9,357.021 2064.64,361.124L2064.64,495.975C2064.64,509.651 2057.53,514.028 2041.12,514.028L2041.12,519.225L2104.58,519.225L2104.58,514.028C2082.97,514.028 2076.95,510.746 2076.95,491.325L2076.95,372.885L2218.64,521.14L2225.76,521.14L2225.76,367.688C2225.76,356.474 2232.87,354.285 2250.65,354.285L2250.65,349.088L2186.64,349.088L2186.64,354.285C2207.7,354.832 2213.45,357.841 2213.45,373.432L2213.45,483.392L2084.61,349.088L2041.67,349.088Z" style="fill:white;fill-rule:nonzero;"/>
                </g>
                <g transform="matrix(1,0,0,1,-30.9553,0)">
                    <path d="M2289.49,349.088L2289.49,354.285C2306.17,355.379 2310,360.576 2310,373.159L2310,491.598C2310,508.831 2305.9,513.207 2289.49,514.028L2289.49,519.225L2355.96,519.225L2355.96,514.028C2338.45,514.028 2332.71,509.651 2332.71,493.513L2332.71,375.894C2332.71,359.482 2337.63,354.285 2355.96,354.285L2355.96,349.088L2289.49,349.088Z" style="fill:white;fill-rule:nonzero;"/>
                </g>
                <g transform="matrix(1,0,0,1,-30.9553,0)">
                    <path d="M2391.24,349.088L2391.24,354.285C2408.47,354.285 2411.48,359.209 2418.05,375.621L2477.41,523.602L2491.08,523.602L2545.24,383.28C2553.99,360.576 2560.01,354.559 2575.6,354.285L2575.6,349.088L2512.14,349.088L2512.14,354.285C2531.02,354.559 2537.58,357.568 2537.58,365.5C2537.58,370.15 2535.39,376.168 2532.39,384.374L2489.71,495.701L2440.48,373.159C2439.38,370.424 2438.84,367.962 2438.84,366.047C2438.84,357.568 2448.41,354.832 2466.46,354.285L2466.46,349.088L2391.24,349.088Z" style="fill:white;fill-rule:nonzero;"/>
                </g>
                <g transform="matrix(1,0,0,1,-30.9553,0)">
                    <path d="M2606.51,349.088L2606.51,354.285L2610.07,354.285C2627.03,354.285 2634.41,356.747 2634.41,375.074L2634.41,492.692C2634.41,512.113 2625.66,514.028 2606.79,514.028L2601.04,514.028L2601.04,519.225L2746.29,519.225L2750.66,478.469L2745.74,478.469C2740.27,499.531 2733.16,509.378 2716.2,509.378L2671.07,509.378C2661.49,509.378 2657.12,506.369 2657.12,495.154L2657.12,436.071L2704.16,436.071C2716.47,436.071 2720.03,441.268 2721.94,457.68L2727.14,457.68L2727.14,405.709L2721.94,405.709C2720.58,422.121 2715.1,426.224 2706.62,426.224L2657.12,426.224L2657.12,358.935L2715.38,358.935C2726.59,358.935 2732.06,367.141 2735.07,387.109L2740,387.109L2737.81,349.088L2606.51,349.088Z" style="fill:white;fill-rule:nonzero;"/>
                </g>
                <g transform="matrix(1,0,0,1,-30.9553,0)">
                    <path d="M2932.01,395.315C2932.01,380.818 2926,369.056 2913.69,360.029C2901.65,351.003 2881.41,346.626 2856.79,346.626C2832.72,346.626 2808.38,348.541 2789.78,349.088L2789.78,354.285L2793.61,354.285C2809.47,354.285 2816.31,356.747 2816.31,375.074L2816.31,492.419C2816.31,511.566 2808.65,514.028 2793.33,514.028L2789.78,514.028L2789.78,519.225L2867.19,519.225L2867.19,514.028L2861.72,514.028C2846.67,514.028 2839.01,511.019 2839.01,494.334L2839.01,447.286C2843.94,447.56 2848.86,447.833 2853.78,447.833C2859.8,447.833 2866.09,447.56 2871.57,447.286C2881.14,453.577 2895.09,466.433 2912.32,484.213C2931.2,503.634 2942.41,512.934 2953.9,517.037C2963.47,520.593 2974.41,522.507 2991.64,522.507C2995.2,522.507 2998.76,522.507 3002.31,522.234L3002.31,517.31C2999.3,517.037 2995.2,516.49 2992.19,515.943C2972.22,511.566 2959.64,500.898 2943.5,484.76C2924.9,465.886 2909.04,450.295 2895.64,439.627C2918.34,433.062 2932.01,415.556 2932.01,395.315ZM2839.01,352.371C2843.12,351.823 2844.21,351.823 2849.41,351.823C2870.2,351.823 2880.59,354.559 2889.62,360.303C2901.11,367.688 2906.3,379.997 2906.3,396.956C2906.3,418.839 2897.28,431.695 2883.6,437.713C2877.31,440.448 2869.92,442.636 2852.69,442.636C2851.32,442.636 2842.3,442.636 2839.01,442.089L2839.01,352.371Z" style="fill:white;fill-rule:nonzero;"/>
                </g>
                <g transform="matrix(1,0,0,1,-64.0211,0)">
                    <path d="M3124.86,351.823C3116.92,351.823 3109.26,344.985 3088.2,344.985C3063.04,344.985 3039.24,359.209 3039.24,384.647C3039.24,404.068 3053.74,419.659 3083.01,437.439C3112.55,455.219 3127.04,467.528 3127.04,483.939C3127.04,504.454 3108.99,516.216 3089.3,516.216C3067.69,516.216 3048.81,501.993 3043.07,477.648L3037.87,477.648L3043.62,519.225L3048.27,519.225C3049.63,517.037 3051.55,516.216 3053.74,516.216C3055.38,516.216 3061.4,518.131 3069.33,520.046C3077.81,522.234 3084.65,523.602 3091.76,523.602C3120.2,523.602 3147.56,506.369 3147.56,476.828C3147.56,453.851 3129.23,437.986 3102.15,421.848C3075.07,405.709 3059.76,393.674 3059.76,377.262C3059.76,361.944 3072.06,351.55 3090.39,351.55C3109.26,351.55 3126.77,364.132 3134.43,383.827L3139.08,383.827L3134.43,349.088L3130.05,349.088C3128.68,351.003 3127.32,351.823 3124.86,351.823Z" style="fill:white;fill-rule:nonzero;"/>
                </g>
                <g transform="matrix(1,0,0,1,-64.0211,0)">
                    <path d="M3194.06,349.088L3194.06,354.285C3210.74,355.379 3214.57,360.576 3214.57,373.159L3214.57,491.598C3214.57,508.831 3210.47,513.207 3194.06,514.028L3194.06,519.225L3260.53,519.225L3260.53,514.028C3243.02,514.028 3237.28,509.651 3237.28,493.513L3237.28,375.894C3237.28,359.482 3242.2,354.285 3260.53,354.285L3260.53,349.088L3194.06,349.088Z" style="fill:white;fill-rule:nonzero;"/>
                </g>
                <g transform="matrix(1,0,0,1,-64.0211,0)">
                    <path d="M3303.47,389.297L3308.39,389.297C3312.22,366.594 3316.88,358.935 3327.82,358.935L3375.96,358.935L3375.96,494.881C3375.96,512.113 3368.03,514.028 3350.25,514.028L3344.23,514.028L3344.23,519.225L3430.39,519.225L3430.39,514.028L3424.37,514.028C3406.32,514.028 3398.66,512.113 3398.66,494.881L3398.66,358.935L3446.8,358.935C3457.47,358.935 3462.39,366.321 3466.22,389.297L3471.15,389.297L3466.77,344.985L3461.57,344.985C3461.03,348.268 3456.65,349.088 3453.64,349.088L3320.98,349.088C3317.97,349.088 3313.32,348.268 3313.05,344.985L3307.85,344.985L3303.47,389.297Z" style="fill:white;fill-rule:nonzero;"/>
                </g>
                <g transform="matrix(1,0,0,1,-64.0211,0)">
                    <path d="M3501.24,349.088L3501.24,354.285C3518.74,354.559 3525.58,359.209 3538.71,379.724L3587.4,455.766L3587.4,495.154C3587.4,511.566 3578.1,514.028 3563.33,514.028L3560.32,514.028L3560.32,519.225L3635.54,519.225L3635.54,514.028L3633.35,514.028C3618.03,514.028 3610.1,511.019 3610.1,494.607L3610.1,452.757L3654.69,377.262C3663.71,361.671 3672.19,355.653 3689.7,354.285L3689.7,349.088L3627.88,349.088L3627.88,354.285C3641.01,354.285 3645.93,356.747 3645.93,362.765C3645.93,365.774 3644.29,369.877 3641.56,374.527L3603.26,439.627L3559.22,371.518C3556.49,367.141 3554.85,363.585 3554.85,361.124C3554.85,356.2 3560.87,354.285 3573.99,354.285L3573.99,349.088L3501.24,349.088Z" style="fill:white;fill-rule:nonzero;"/>
                </g>
            </g>
        </g>
    </g>
</svg>
