<?xml version="1.0" encoding="UTF-8" standalone="no"?>
<!DOCTYPE svg PUBLIC "-//W3C//DTD SVG 1.1//EN" "http://www.w3.org/Graphics/SVG/1.1/DTD/svg11.dtd">
<svg width="100%" height="100%" viewBox="0 0 1882 1216" version="1.1" xmlns="http://www.w3.org/2000/svg" xmlns:xlink="http://www.w3.org/1999/xlink" xml:space="preserve" xmlns:serif="http://www.serif.com/" style="fill-rule:evenodd;clip-rule:evenodd;stroke-linecap:round;stroke-linejoin:round;stroke-miterlimit:1.5;">
    <g transform="matrix(1,0,0,1,-143.414,2.00728e-13)">
        <g transform="matrix(1,0,0,1,-846.068,-1017.53)">
            <g transform="matrix(1.73554,0,0,0.962528,-2504.12,-64.6982)">
                <path d="M2557.59,1125.05L2565.92,1129.89L2574.25,1134.73L2582.59,1139.57L2590.92,1144.4L2599.25,1149.24L2607.59,1154.07L2615.92,1158.91L2624.26,1163.74L2632.59,1168.57L2640.93,1173.41L2649.27,1178.24L2657.6,1183.07L2665.94,1187.9L2674.28,1192.73L2682.62,1197.56L2690.96,1202.39L2699.3,1207.22L2707.64,1212.05L2715.98,1216.88L2724.32,1221.7L2732.67,1226.53L2741.01,1231.36L2749.35,1236.18L2757.7,1241.01L2766.04,1245.83L2774.38,1250.65L2782.73,1255.48L2791.08,1260.3L2799.42,1265.12L2807.77,1269.94L2816.11,1274.76L2824.46,1279.58L2832.81,1284.4L2841.16,1289.22L2849.5,1294.04L2857.85,1298.85L2866.2,1303.67L2874.55,1308.48L2882.9,1313.3L2891.25,1318.11L2899.6,1322.93L2907.95,1327.74L2916.3,1332.55L2924.65,1337.36L2933,1342.17L2941.35,1346.98L2949.71,1351.79L2958.06,1356.6L2966.41,1361.41L2974.76,1366.22L2983.12,1371.02L2991.47,1375.83L2999.82,1380.63L3008.18,1385.44L3016.53,1390.24L3024.88,1395.04L3033.24,1399.84L3041.59,1404.64L3049.95,1409.44L3058.3,1414.24L3066.65,1419.04L3075.01,1423.84L3083.36,1428.64L3091.72,1433.43L3093.55,1434.97L3095.12,1437.29L3096.31,1440.24L3097.05,1443.63L3097.29,1447.25L3097.27,1456.88L3097.25,1466.51L3097.22,1476.15L3097.2,1485.78L3097.18,1495.41L3097.16,1505.05L3097.14,1514.68L3097.12,1524.31L3097.11,1533.95L3097.09,1543.58L3097.07,1553.22L3097.06,1562.85L3097.04,1572.49L3097.03,1582.12L3097.01,1591.76L3097,1601.39L3096.99,1611.03L3096.98,1620.66L3096.97,1630.3L3096.96,1639.94L3096.95,1649.57L3096.94,1659.21L3096.94,1668.85L3096.93,1678.48L3096.92,1688.12L3096.92,1697.76L3096.91,1707.39L3096.91,1717.03L3096.91,1726.67L3096.91,1736.3L3096.91,1745.94L3096.91,1755.58L3096.91,1765.21L3096.91,1774.85L3096.91,1784.49L3096.91,1794.12L3096.91,1803.76L3096.92,1813.4L3096.92,1823.04L3096.93,1832.67L3096.94,1842.31L3096.94,1851.94L3096.95,1861.58L3096.96,1871.22L3096.97,1880.85L3096.98,1890.49L3096.99,1900.12L3097,1909.76L3097.01,1919.4L3097.03,1929.03L3097.04,1938.67L3097.06,1948.3L3097.07,1957.94L3097.09,1967.57L3097.11,1977.21L3097.12,1986.84L3097.14,1996.48L3097.16,2006.11L3097.18,2015.74L3097.2,2025.38L3097.22,2035.01L3097.25,2044.64L3097.27,2054.27L3097.29,2063.91L3097.05,2067.53L3096.31,2070.92L3095.12,2073.87L3093.55,2076.18L3091.72,2077.72L3083.36,2082.52L3075.01,2087.31L3066.65,2092.11L3058.3,2096.91L3049.95,2101.71L3041.59,2106.51L3033.24,2111.31L3024.88,2116.11L3016.53,2120.91L3008.18,2125.72L2999.82,2130.52L2991.47,2135.33L2983.12,2140.13L2974.76,2144.94L2966.41,2149.75L2958.06,2154.55L2949.71,2159.36L2941.35,2164.17L2933,2168.98L2924.65,2173.79L2916.3,2178.6L2907.95,2183.41L2899.6,2188.23L2891.25,2193.04L2882.9,2197.86L2874.55,2202.67L2866.2,2207.49L2857.85,2212.3L2849.5,2217.12L2841.16,2221.94L2832.81,2226.76L2824.46,2231.57L2816.11,2236.39L2807.77,2241.21L2799.42,2246.03L2791.08,2250.86L2782.73,2255.68L2774.38,2260.5L2766.04,2265.32L2757.7,2270.15L2749.35,2274.97L2741.01,2279.8L2732.67,2284.62L2724.32,2289.45L2715.98,2294.28L2707.64,2299.11L2699.3,2303.93L2690.96,2308.76L2682.62,2313.59L2674.28,2318.42L2665.94,2323.25L2657.6,2328.08L2649.27,2332.91L2640.93,2337.75L2632.59,2342.58L2624.26,2347.41L2615.92,2352.25L2607.59,2357.08L2599.25,2361.92L2590.92,2366.75L2582.59,2371.59L2574.25,2376.43L2565.92,2381.26L2557.59,2386.1L2555.97,2386.72L2554.31,2386.72L2552.68,2386.1L2544.35,2381.26L2536.02,2376.43L2527.69,2371.59L2519.36,2366.75L2511.02,2361.92L2502.69,2357.08L2494.35,2352.25L2486.02,2347.41L2477.68,2342.58L2469.35,2337.75L2461.01,2332.91L2452.67,2328.08L2444.33,2323.25L2435.99,2318.42L2427.65,2313.59L2419.31,2308.76L2410.97,2303.93L2402.63,2299.11L2394.29,2294.28L2385.95,2289.45L2377.61,2284.62L2369.26,2279.8L2360.92,2274.97L2352.58,2270.15L2344.23,2265.32L2335.89,2260.5L2327.55,2255.68L2319.2,2250.86L2310.85,2246.03L2302.51,2241.21L2294.16,2236.39L2285.81,2231.57L2277.47,2226.76L2269.12,2221.94L2260.77,2217.12L2252.42,2212.3L2244.07,2207.49L2235.72,2202.67L2227.38,2197.86L2219.03,2193.04L2210.68,2188.23L2202.33,2183.41L2193.97,2178.6L2185.62,2173.79L2177.27,2168.98L2168.92,2164.17L2160.57,2159.36L2152.22,2154.55L2143.86,2149.75L2135.51,2144.94L2127.16,2140.13L2118.81,2135.33L2110.45,2130.52L2102.1,2125.72L2093.75,2120.91L2085.39,2116.11L2077.04,2111.31L2068.68,2106.51L2060.33,2101.71L2051.97,2096.91L2043.62,2092.11L2035.27,2087.31L2026.91,2082.52L2018.56,2077.72L2016.72,2076.18L2015.16,2073.87L2013.97,2070.92L2013.23,2067.53L2012.98,2063.91L2013,2054.27L2013.03,2044.64L2013.05,2035.01L2013.07,2025.38L2013.09,2015.74L2013.11,2006.11L2013.13,1996.48L2013.15,1986.84L2013.17,1977.21L2013.18,1967.57L2013.2,1957.94L2013.22,1948.3L2013.23,1938.67L2013.25,1929.03L2013.26,1919.4L2013.27,1909.76L2013.28,1900.12L2013.3,1890.49L2013.31,1880.85L2013.32,1871.22L2013.32,1861.58L2013.33,1851.94L2013.34,1842.31L2013.35,1832.67L2013.35,1823.04L2013.36,1813.4L2013.36,1803.76L2013.36,1794.12L2013.37,1784.49L2013.37,1774.85L2013.37,1765.21L2013.37,1755.58L2013.37,1745.94L2013.37,1736.3L2013.37,1726.67L2013.36,1717.03L2013.36,1707.39L2013.36,1697.76L2013.35,1688.12L2013.35,1678.48L2013.34,1668.85L2013.33,1659.21L2013.32,1649.57L2013.32,1639.94L2013.31,1630.3L2013.3,1620.66L2013.28,1611.03L2013.27,1601.39L2013.26,1591.76L2013.25,1582.12L2013.23,1572.49L2013.22,1562.85L2013.2,1553.22L2013.18,1543.58L2013.17,1533.95L2013.15,1524.31L2013.13,1514.68L2013.11,1505.05L2013.09,1495.41L2013.07,1485.78L2013.05,1476.15L2013.03,1466.51L2013,1456.88L2012.98,1447.25L2013.23,1443.63L2013.97,1440.24L2015.16,1437.29L2016.72,1434.97L2018.56,1433.43L2026.91,1428.64L2035.27,1423.84L2043.62,1419.04L2051.97,1414.24L2060.33,1409.44L2068.68,1404.64L2077.04,1399.84L2085.39,1395.04L2093.75,1390.24L2102.1,1385.44L2110.45,1380.63L2118.81,1375.83L2127.16,1371.02L2135.51,1366.22L2143.86,1361.41L2152.22,1356.6L2160.57,1351.79L2168.92,1346.98L2177.27,1342.17L2185.62,1337.36L2193.97,1332.55L2202.33,1327.74L2210.68,1322.93L2219.03,1318.11L2227.38,1313.3L2235.72,1308.48L2244.07,1303.67L2252.42,1298.85L2260.77,1294.04L2269.12,1289.22L2277.47,1284.4L2285.81,1279.58L2294.16,1274.76L2302.51,1269.94L2310.85,1265.12L2319.2,1260.3L2327.55,1255.48L2335.89,1250.65L2344.23,1245.83L2352.58,1241.01L2360.92,1236.18L2369.26,1231.36L2377.61,1226.53L2385.95,1221.7L2394.29,1216.88L2402.63,1212.05L2410.97,1207.22L2419.31,1202.39L2427.65,1197.56L2435.99,1192.73L2444.33,1187.9L2452.67,1183.07L2461.01,1178.24L2469.35,1173.41L2477.68,1168.57L2486.02,1163.74L2494.35,1158.91L2502.69,1154.07L2511.02,1149.24L2519.36,1144.4L2527.69,1139.57L2536.02,1134.73L2544.35,1129.89L2552.68,1125.05L2554.31,1124.44L2555.97,1124.44L2557.59,1125.05ZM2546.81,1143.63L2538.47,1148.46L2530.14,1153.3L2521.81,1158.14L2513.47,1162.97L2505.14,1167.81L2496.8,1172.64L2488.47,1177.48L2480.13,1182.31L2471.79,1187.14L2463.46,1191.98L2455.12,1196.81L2446.78,1201.64L2438.44,1206.47L2430.1,1211.3L2421.76,1216.13L2413.42,1220.96L2405.08,1225.79L2396.74,1230.62L2388.4,1235.44L2380.05,1240.27L2371.71,1245.1L2363.37,1249.92L2355.02,1254.75L2346.68,1259.57L2338.33,1264.39L2329.99,1269.22L2321.64,1274.04L2313.3,1278.86L2304.95,1283.68L2296.6,1288.5L2288.25,1293.32L2279.91,1298.14L2271.56,1302.96L2263.21,1307.78L2254.86,1312.6L2246.51,1317.41L2238.16,1322.23L2229.81,1327.04L2221.46,1331.86L2213.11,1336.67L2204.76,1341.48L2196.41,1346.3L2188.06,1351.11L2179.71,1355.92L2171.36,1360.73L2163,1365.54L2154.65,1370.35L2146.3,1375.15L2137.95,1379.96L2129.59,1384.77L2121.24,1389.57L2112.89,1394.38L2104.53,1399.18L2096.18,1403.99L2087.82,1408.79L2079.47,1413.59L2071.11,1418.39L2062.76,1423.19L2054.4,1427.99L2046.05,1432.79L2037.69,1437.59L2029.34,1442.39L2020.98,1447.18L2021.01,1456.82L2021.03,1466.45L2021.05,1476.09L2021.07,1485.72L2021.1,1495.36L2021.12,1504.99L2021.13,1514.63L2021.15,1524.27L2021.17,1533.9L2021.19,1543.54L2021.2,1553.17L2021.22,1562.81L2021.24,1572.45L2021.25,1582.09L2021.26,1591.72L2021.28,1601.36L2021.29,1611L2021.3,1620.64L2021.31,1630.27L2021.32,1639.91L2021.33,1649.55L2021.33,1659.19L2021.34,1668.83L2021.35,1678.47L2021.35,1688.11L2021.36,1697.74L2021.36,1707.38L2021.37,1717.02L2021.37,1726.66L2021.37,1736.3L2021.37,1745.94L2021.37,1755.58L2021.37,1765.22L2021.37,1774.86L2021.37,1784.49L2021.37,1794.13L2021.36,1803.77L2021.36,1813.41L2021.35,1823.05L2021.35,1832.69L2021.34,1842.33L2021.33,1851.97L2021.33,1861.6L2021.32,1871.24L2021.31,1880.88L2021.3,1890.52L2021.29,1900.16L2021.28,1909.79L2021.26,1919.43L2021.25,1929.07L2021.24,1938.71L2021.22,1948.34L2021.2,1957.98L2021.19,1967.62L2021.17,1977.25L2021.15,1986.89L2021.13,1996.53L2021.12,2006.16L2021.1,2015.8L2021.07,2025.43L2021.05,2035.07L2021.03,2044.7L2021.01,2054.34L2020.98,2063.97L2029.34,2068.77L2037.69,2073.57L2046.05,2078.36L2054.4,2083.16L2062.76,2087.96L2071.11,2092.76L2079.47,2097.56L2087.82,2102.37L2096.18,2107.17L2104.53,2111.97L2112.89,2116.78L2121.24,2121.58L2129.59,2126.39L2137.95,2131.19L2146.3,2136L2154.65,2140.81L2163,2145.62L2171.36,2150.43L2179.71,2155.24L2188.06,2160.05L2196.41,2164.86L2204.76,2169.67L2213.11,2174.48L2221.46,2179.3L2229.81,2184.11L2238.16,2188.93L2246.51,2193.74L2254.86,2198.56L2263.21,2203.38L2271.56,2208.19L2279.91,2213.01L2288.25,2217.83L2296.6,2222.65L2304.95,2227.47L2313.3,2232.29L2321.64,2237.11L2329.99,2241.94L2338.33,2246.76L2346.68,2251.58L2355.02,2256.41L2363.37,2261.23L2371.71,2266.06L2380.05,2270.88L2388.4,2275.71L2396.74,2280.54L2405.08,2285.37L2413.42,2290.2L2421.76,2295.02L2430.1,2299.85L2438.44,2304.68L2446.78,2309.51L2455.12,2314.35L2463.46,2319.18L2471.79,2324.01L2480.13,2328.84L2488.47,2333.68L2496.8,2338.51L2505.14,2343.35L2513.47,2348.18L2521.81,2353.02L2530.14,2357.85L2538.47,2362.69L2546.81,2367.53L2555.14,2372.37L2563.47,2367.53L2571.8,2362.69L2580.13,2357.85L2588.47,2353.02L2596.8,2348.18L2605.14,2343.35L2613.47,2338.51L2621.81,2333.68L2630.14,2328.84L2638.48,2324.01L2646.82,2319.18L2655.16,2314.35L2663.49,2309.51L2671.83,2304.68L2680.17,2299.85L2688.51,2295.02L2696.85,2290.2L2705.2,2285.37L2713.54,2280.54L2721.88,2275.71L2730.22,2270.88L2738.56,2266.06L2746.91,2261.23L2755.25,2256.41L2763.6,2251.58L2771.94,2246.76L2780.29,2241.94L2788.63,2237.11L2796.98,2232.29L2805.33,2227.47L2813.67,2222.65L2822.02,2217.83L2830.37,2213.01L2838.72,2208.19L2847.06,2203.38L2855.41,2198.56L2863.76,2193.74L2872.11,2188.93L2880.46,2184.11L2888.81,2179.3L2897.16,2174.48L2905.51,2169.67L2913.86,2164.86L2922.22,2160.05L2930.57,2155.24L2938.92,2150.43L2947.27,2145.62L2955.62,2140.81L2963.98,2136L2972.33,2131.19L2980.68,2126.39L2989.04,2121.58L2997.39,2116.78L3005.74,2111.97L3014.1,2107.17L3022.45,2102.37L3030.81,2097.56L3039.16,2092.76L3047.51,2087.96L3055.87,2083.16L3064.22,2078.36L3072.58,2073.57L3080.94,2068.77L3089.29,2063.97L3089.27,2054.34L3089.24,2044.7L3089.22,2035.07L3089.2,2025.43L3089.18,2015.8L3089.16,2006.16L3089.14,1996.53L3089.12,1986.89L3089.1,1977.25L3089.09,1967.62L3089.07,1957.98L3089.05,1948.34L3089.04,1938.71L3089.03,1929.07L3089.01,1919.43L3089,1909.79L3088.99,1900.16L3088.98,1890.52L3088.97,1880.88L3088.96,1871.24L3088.95,1861.6L3088.94,1851.97L3088.93,1842.33L3088.93,1832.69L3088.92,1823.05L3088.92,1813.41L3088.91,1803.77L3088.91,1794.13L3088.91,1784.49L3088.9,1774.86L3088.9,1765.22L3088.9,1755.58L3088.9,1745.94L3088.9,1736.3L3088.91,1726.66L3088.91,1717.02L3088.91,1707.38L3088.92,1697.74L3088.92,1688.11L3088.93,1678.47L3088.93,1668.83L3088.94,1659.19L3088.95,1649.55L3088.96,1639.91L3088.97,1630.27L3088.98,1620.64L3088.99,1611L3089,1601.36L3089.01,1591.72L3089.03,1582.09L3089.04,1572.45L3089.05,1562.81L3089.07,1553.17L3089.09,1543.54L3089.1,1533.9L3089.12,1524.27L3089.14,1514.63L3089.16,1504.99L3089.18,1495.36L3089.2,1485.72L3089.22,1476.09L3089.24,1466.45L3089.27,1456.82L3089.29,1447.18L3080.94,1442.39L3072.58,1437.59L3064.22,1432.79L3055.87,1427.99L3047.51,1423.19L3039.16,1418.39L3030.81,1413.59L3022.45,1408.79L3014.1,1403.99L3005.74,1399.18L2997.39,1394.38L2989.04,1389.57L2980.68,1384.77L2972.33,1379.96L2963.98,1375.15L2955.62,1370.35L2947.27,1365.54L2938.92,1360.73L2930.57,1355.92L2922.22,1351.11L2913.86,1346.3L2905.51,1341.48L2897.16,1336.67L2888.81,1331.86L2880.46,1327.04L2872.11,1322.23L2863.76,1317.41L2855.41,1312.6L2847.06,1307.78L2838.72,1302.96L2830.37,1298.14L2822.02,1293.32L2813.67,1288.5L2805.33,1283.68L2796.98,1278.86L2788.63,1274.04L2780.29,1269.22L2771.94,1264.39L2763.6,1259.57L2755.25,1254.75L2746.91,1249.92L2738.56,1245.1L2730.22,1240.27L2721.88,1235.44L2713.54,1230.62L2705.2,1225.79L2696.85,1220.96L2688.51,1216.13L2680.17,1211.3L2671.83,1206.47L2663.49,1201.64L2655.16,1196.81L2646.82,1191.98L2638.48,1187.14L2630.14,1182.31L2621.81,1177.48L2613.47,1172.64L2605.14,1167.81L2596.8,1162.97L2588.47,1158.14L2580.13,1153.3L2571.8,1148.46L2563.47,1143.63L2555.14,1138.79L2546.81,1143.63Z" style="fill:rgb(13,13,13);"/>
            </g>
            <g transform="matrix(1.70149,0,0,0.920267,-2417.13,9.49445)">
                <path d="M2555.14,1138.79C2732.87,1242 2911.04,1344.87 3089.29,1447.18C3088.77,1652.71 3088.77,1858.44 3089.29,2063.97C2911.04,2166.28 2732.87,2269.15 2555.14,2372.37C2377.41,2269.15 2199.23,2166.28 2020.98,2063.97C2021.5,1858.44 2021.5,1652.71 2020.98,1447.18C2199.23,1344.87 2377.41,1242 2555.14,1138.79Z" style="fill:none;stroke:rgb(13,13,13);stroke-width:3.86px;"/>
            </g>
            <g transform="matrix(0.401577,0,0,0.412926,877.614,1045.8)">
                <path d="M1233.01,1779.66C1271.78,1776.57 1310.75,1780.51 1349.55,1777.89C1405.73,1774.1 1426.38,1780.25 1446.24,1779.66" style="fill:none;stroke:rgb(38,38,38);stroke-width:20.46px;"/>
            </g>
            <g transform="matrix(-0.401577,-0,0,-0.412926,2983.22,2514.3)">
                <path d="M1233.01,1779.66C1271.78,1776.57 1310.75,1780.51 1349.55,1777.89C1405.73,1774.1 1426.38,1780.25 1446.24,1779.66" style="fill:none;stroke:rgb(38,38,38);stroke-width:20.46px;"/>
            </g>
            <g transform="matrix(1,0,0,1,309.876,12)">
                <path d="M1148.8,1368.5C1138.91,1369.19 1121.89,1369.54 1103.32,1369.54C1087,1369.54 1069.29,1369.19 1058.18,1368.5L1058.18,1375.62C1082.31,1376.66 1087,1380.3 1087,1406.17L1087,1490.03L971.374,1490.03L971.374,1406.17C971.374,1380.3 976.061,1376.66 1000.19,1375.62L1000.19,1368.5C989.256,1369.19 971.374,1369.54 955.054,1369.54C936.651,1369.54 919.464,1369.19 909.568,1368.5L909.568,1375.62C933.7,1376.66 938.388,1380.3 938.388,1406.17L938.388,1582.56C938.388,1608.43 933.7,1612.08 909.568,1613.12L909.568,1620.23C919.464,1619.54 936.651,1619.19 955.054,1619.19C971.374,1619.19 989.256,1619.54 1000.19,1620.23L1000.19,1613.12C976.061,1612.08 971.374,1608.43 971.374,1582.56L971.374,1497.14L1087,1497.14L1087,1582.56C1087,1608.43 1082.31,1612.08 1058.18,1613.12L1058.18,1620.23C1069.29,1619.54 1087,1619.19 1103.32,1619.19C1121.89,1619.19 1138.91,1619.54 1148.8,1620.23L1148.8,1613.12C1124.67,1612.08 1119.99,1608.43 1119.99,1582.56L1119.99,1406.17C1119.99,1380.3 1124.67,1376.66 1148.8,1375.62L1148.8,1368.5Z" style="fill:rgb(26,26,26);fill-rule:nonzero;"/>
                <path d="M1259.43,1432.21C1236.69,1432.21 1219.67,1438.98 1209.6,1445.58C1199.71,1452.35 1192.94,1460.51 1192.94,1470.93C1192.94,1483.78 1200.05,1492.98 1212.21,1492.98C1224.88,1492.98 1233.04,1485.86 1233.04,1473.71C1233.04,1462.08 1225.23,1454.26 1216.37,1452.01C1224.53,1441.76 1239.46,1439.33 1251.62,1439.33C1270.02,1439.33 1284.6,1445.23 1284.6,1475.1L1284.6,1497.14C1284.6,1511.38 1265.85,1517.46 1242.07,1527.35C1206.48,1542.28 1184.78,1554.78 1184.78,1582.91C1184.78,1610.69 1206.13,1622.66 1229.91,1622.66C1246.93,1622.66 1269.33,1616.24 1284.6,1591.07C1284.6,1607.73 1290.33,1622.66 1315.16,1622.66C1330.26,1622.66 1337.73,1617.11 1347.62,1609.64L1343.63,1603.57C1338.77,1607.73 1334.08,1611.03 1327.66,1611.03C1319.5,1611.03 1316.72,1605.65 1316.72,1594.19L1316.72,1495.41C1316.72,1470.23 1313.77,1457.04 1302.49,1445.58C1294.33,1437.42 1279.39,1432.21 1259.43,1432.21ZM1284.6,1581.52C1272.62,1600.96 1258.74,1608.43 1244.5,1608.43C1228.18,1608.43 1216.03,1598.53 1216.03,1577.18C1216.03,1549.75 1234.95,1539.51 1250.58,1532.04C1272.97,1521.1 1280.78,1517.46 1284.6,1511.73L1284.6,1581.52Z" style="fill:rgb(26,26,26);fill-rule:nonzero;"/>
                <path d="M1477.69,1432.21C1452.87,1432.21 1433.6,1457.04 1426.13,1477.7L1426.13,1433.26C1415.89,1436.73 1403.04,1438.12 1389.15,1438.12C1382.03,1438.12 1374.57,1437.77 1367.1,1437.08L1367.1,1444.54C1387.76,1444.54 1394.19,1454.61 1394.19,1475.96L1394.19,1587.25C1394.19,1607.04 1386.72,1612.77 1367.1,1612.77L1367.1,1620.23C1375.26,1619.89 1392.8,1618.85 1409.12,1618.85C1431.16,1618.85 1452.87,1619.89 1463.8,1620.23L1463.8,1612.77C1440.37,1612.77 1426.13,1606.69 1426.13,1583.6L1426.13,1508.26C1426.13,1481.87 1445.75,1441.41 1475.61,1441.41C1478.74,1441.41 1481.34,1442.46 1483.08,1444.89C1476.65,1448.88 1470.92,1455.3 1470.92,1464.16C1470.92,1475.96 1479.95,1482.56 1489.85,1482.56C1502.35,1482.56 1510.16,1472.32 1510.16,1460.16C1510.16,1444.89 1496.96,1432.21 1477.69,1432.21Z" style="fill:rgb(26,26,26);fill-rule:nonzero;"/>
                <path d="M1591.44,1437.42L1591.44,1378.05C1582.59,1381.35 1571.13,1382.73 1559.5,1383.08L1559.5,1437.42L1525.3,1437.42L1525.3,1444.54L1559.5,1444.54L1559.5,1563.64C1559.5,1588.98 1562.97,1602.87 1573.39,1613.46C1581.2,1621.28 1590.75,1625.27 1607.07,1625.27C1635.89,1625.27 1648.39,1603.91 1653.25,1576.14L1646.3,1574.4C1638.84,1602.18 1628.42,1612.42 1614.19,1612.42C1599.95,1612.42 1591.44,1604.61 1591.44,1582.21L1591.44,1444.54L1644.05,1444.54L1644.05,1437.42L1591.44,1437.42Z" style="fill:rgb(26,26,26);fill-rule:nonzero;"/>
                <path d="M1904.33,1438.12C1893.39,1438.12 1886.96,1437.77 1874.46,1437.08L1874.46,1444.19C1892.87,1445.41 1900.85,1449.92 1900.85,1461.55C1900.85,1465.89 1899.64,1471.1 1897.55,1477.7L1864.22,1579.61L1809.71,1435.69L1801.55,1435.69L1750.51,1576.66L1714.91,1474.4C1712.31,1467.11 1711.27,1461.73 1711.27,1457.56C1711.27,1444.37 1722.55,1444.54 1736.1,1444.54L1736.1,1437.08C1722.03,1438.12 1704.5,1439.33 1689.91,1439.33C1677.94,1439.33 1667.87,1438.46 1658.66,1437.08L1658.66,1444.54C1663.7,1444.54 1671.86,1445.58 1679.33,1464.51L1737.66,1621.97L1743.56,1621.97L1794.26,1478.91L1850.68,1621.97L1856.76,1621.97L1908.32,1469.19C1914.39,1450.62 1922.55,1445.23 1931.41,1444.19L1931.41,1437.08C1923.94,1437.77 1915.44,1438.12 1904.33,1438.12Z" style="fill:rgb(26,26,26);fill-rule:nonzero;"/>
                <path d="M2095.68,1574.75C2083.35,1601.31 2064.78,1610.34 2043.42,1610.34C2016.16,1610.34 1989.08,1581.87 1989.08,1533.08C1989.08,1525.27 1989.43,1517.11 1990.3,1510.34L2101.41,1510.34C2101.41,1456.69 2076.58,1432.21 2034.91,1432.21C1986.13,1432.21 1954.53,1470.58 1954.53,1533.08C1954.53,1587.6 1984.74,1625.27 2036.3,1625.27C2071.55,1625.27 2094.99,1601.31 2102.8,1577.53L2095.68,1574.75ZM2033.53,1438.98C2057.31,1438.98 2068.42,1468.85 2067.21,1503.57L1989.78,1503.57C1993.6,1458.78 2012.35,1438.98 2033.53,1438.98Z" style="fill:rgb(26,26,26);fill-rule:nonzero;"/>
                <path d="M2193.8,1341.41C2183.56,1345.06 2170.71,1346.45 2156.82,1346.45C2149.71,1346.45 2142.24,1346.1 2134.78,1345.41L2134.78,1352.87C2155.44,1352.87 2161.86,1362.77 2161.86,1384.12L2161.86,1587.25C2161.86,1607.04 2154.39,1612.77 2134.78,1612.77L2134.78,1620.23C2142.94,1619.89 2161.51,1618.85 2177.83,1618.85C2194.15,1618.85 2212.73,1619.89 2220.89,1620.23L2220.89,1612.77C2201.27,1612.77 2193.8,1607.04 2193.8,1587.25L2193.8,1341.41Z" style="fill:rgb(26,26,26);fill-rule:nonzero;"/>
                <path d="M2304.43,1341.41C2294.19,1345.06 2281.34,1346.45 2267.45,1346.45C2260.33,1346.45 2252.87,1346.1 2245.4,1345.41L2245.4,1352.87C2266.06,1352.87 2272.49,1362.77 2272.49,1384.12L2272.49,1587.25C2272.49,1607.04 2265.02,1612.77 2245.4,1612.77L2245.4,1620.23C2253.56,1619.89 2272.14,1618.85 2288.46,1618.85C2304.78,1618.85 2323.35,1619.89 2331.51,1620.23L2331.51,1612.77C2311.89,1612.77 2304.43,1607.04 2304.43,1587.25L2304.43,1341.41Z" style="fill:rgb(26,26,26);fill-rule:nonzero;"/>
            </g>
            <g transform="matrix(1,0,0,1,310.261,227.833)">
                <path d="M1254.77,1543.41L1261.85,1543.41C1270.05,1543.41 1275.89,1541.8 1279.39,1538.57C1282.89,1535.34 1284.64,1529.5 1284.64,1521.03C1284.64,1512.84 1283.13,1507.09 1280.12,1503.78C1277.11,1500.47 1271.43,1498.82 1263.08,1498.82L1254.77,1498.82L1254.77,1543.41ZM1235.98,1620.23L1235.98,1485.31L1263.08,1485.31C1276.75,1485.31 1286.77,1488.1 1293.14,1493.69C1299.52,1499.28 1302.71,1508.39 1302.71,1521.03C1302.71,1538.39 1297.15,1548.89 1286.02,1552.53L1305.31,1620.23L1287.08,1620.23L1269.34,1556.92L1254.77,1556.92L1254.77,1620.23L1235.98,1620.23Z" style="fill:rgb(26,26,26);fill-rule:nonzero;"/>
                <path d="M1355.82,1620.23L1355.82,1485.31L1408.06,1485.31L1408.06,1499.22L1374.62,1499.22L1374.62,1543.82L1401.8,1543.82L1401.8,1557.25L1374.62,1557.25L1374.62,1606.73L1408.47,1606.73L1408.47,1620.23L1355.82,1620.23Z" style="fill:rgb(26,26,26);fill-rule:nonzero;"/>
                <path d="M1490.71,1621.7C1485.12,1621.7 1480.21,1620.94 1475.98,1619.42C1471.75,1617.9 1468.29,1615.84 1465.61,1613.24C1462.92,1610.63 1460.72,1607.39 1459.01,1603.51C1457.31,1599.63 1456.12,1595.55 1455.47,1591.26C1454.82,1586.98 1454.5,1582.17 1454.5,1576.86L1454.5,1529.17C1454.5,1523.47 1454.84,1518.4 1455.52,1513.95C1456.19,1509.5 1457.37,1505.35 1459.06,1501.5C1460.74,1497.65 1462.93,1494.48 1465.65,1491.98C1468.36,1489.48 1471.82,1487.53 1476.02,1486.12C1480.23,1484.71 1485.12,1484 1490.71,1484C1502.87,1484 1511.57,1487.29 1516.84,1493.85C1522.1,1500.41 1524.73,1510.07 1524.73,1522.82L1524.73,1533.56L1506.91,1533.56L1506.91,1524.04C1506.91,1521.98 1506.89,1520.37 1506.87,1519.2C1506.84,1518.03 1506.78,1516.58 1506.7,1514.85C1506.62,1513.11 1506.47,1511.75 1506.26,1510.78C1506.04,1509.8 1505.75,1508.66 1505.4,1507.36C1505.05,1506.06 1504.6,1505.04 1504.06,1504.31C1503.52,1503.58 1502.84,1502.79 1502.02,1501.95C1501.21,1501.11 1500.29,1500.48 1499.26,1500.08C1498.23,1499.67 1497.01,1499.33 1495.6,1499.06C1494.18,1498.79 1492.61,1498.65 1490.88,1498.65C1488.27,1498.65 1485.99,1498.94 1484.04,1499.51C1482.09,1500.08 1480.49,1500.97 1479.24,1502.19C1477.99,1503.41 1476.97,1504.76 1476.18,1506.22C1475.4,1507.68 1474.82,1509.57 1474.44,1511.88C1474.06,1514.18 1473.8,1516.41 1473.66,1518.55C1473.53,1520.69 1473.46,1523.34 1473.46,1526.48L1473.46,1579.87C1473.46,1590.02 1474.73,1597.07 1477.28,1601.03C1479.83,1604.99 1484.36,1606.97 1490.88,1606.97C1493.37,1606.97 1495.53,1606.7 1497.34,1606.15C1499.16,1605.61 1500.65,1604.72 1501.82,1603.47C1502.99,1602.22 1503.92,1600.92 1504.63,1599.56C1505.33,1598.21 1505.85,1596.38 1506.17,1594.07C1506.5,1591.77 1506.7,1589.63 1506.78,1587.68C1506.87,1585.73 1506.91,1583.18 1506.91,1580.03L1506.91,1570.1L1524.73,1570.1L1524.73,1580.11C1524.73,1585.27 1524.4,1589.88 1523.75,1593.95C1523.1,1598.02 1521.99,1601.83 1520.42,1605.38C1518.84,1608.94 1516.78,1611.88 1514.23,1614.21C1511.68,1616.55 1508.43,1618.38 1504.46,1619.7C1500.51,1621.03 1495.92,1621.7 1490.71,1621.7Z" style="fill:rgb(26,26,26);fill-rule:nonzero;"/>
                <path d="M1610.47,1621.7C1603.74,1621.7 1597.98,1620.69 1593.18,1618.69C1588.38,1616.68 1584.57,1613.72 1581.74,1609.82C1578.92,1605.91 1576.86,1601.35 1575.56,1596.15C1574.26,1590.94 1573.61,1584.86 1573.61,1577.92L1573.61,1526.81C1573.61,1512.76 1576.47,1502.11 1582.19,1494.87C1587.91,1487.62 1597.34,1484 1610.47,1484C1623.55,1484 1632.96,1487.65 1638.71,1494.95C1644.46,1502.25 1647.34,1512.87 1647.34,1526.81L1647.34,1578C1647.34,1592.05 1644.45,1602.85 1638.67,1610.39C1632.89,1617.93 1623.49,1621.7 1610.47,1621.7ZM1601.28,1605.26C1603.72,1606.4 1606.78,1606.97 1610.47,1606.97C1614.16,1606.97 1617.21,1606.4 1619.63,1605.26C1622.04,1604.12 1623.87,1602.38 1625.12,1600.05C1626.37,1597.72 1627.22,1595.16 1627.68,1592.36C1628.14,1589.57 1628.38,1586.11 1628.38,1581.99L1628.38,1522.9C1628.38,1518.84 1628.14,1515.44 1627.68,1512.73C1627.22,1510.02 1626.37,1507.52 1625.12,1505.24C1623.87,1502.96 1622.04,1501.3 1619.63,1500.24C1617.21,1499.18 1614.16,1498.65 1610.47,1498.65C1606.78,1498.65 1603.73,1499.18 1601.32,1500.24C1598.9,1501.3 1597.07,1502.96 1595.82,1505.24C1594.58,1507.52 1593.72,1510.02 1593.26,1512.73C1592.8,1515.44 1592.57,1518.84 1592.57,1522.9L1592.57,1581.99C1592.57,1586.11 1592.8,1589.57 1593.26,1592.36C1593.72,1595.16 1594.58,1597.72 1595.82,1600.05C1597.07,1602.38 1598.89,1604.12 1601.28,1605.26Z" style="fill:rgb(26,26,26);fill-rule:nonzero;"/>
                <path d="M1718.1,1543.41L1725.18,1543.41C1733.38,1543.41 1739.22,1541.8 1742.72,1538.57C1746.22,1535.34 1747.97,1529.5 1747.97,1521.03C1747.97,1512.84 1746.47,1507.09 1743.45,1503.78C1740.44,1500.47 1734.76,1498.82 1726.4,1498.82L1718.1,1498.82L1718.1,1543.41ZM1699.31,1620.23L1699.31,1485.31L1726.4,1485.31C1740.08,1485.31 1750.1,1488.1 1756.48,1493.69C1762.85,1499.28 1766.04,1508.39 1766.04,1521.03C1766.04,1538.39 1760.48,1548.89 1749.35,1552.53L1768.64,1620.23L1750.41,1620.23L1732.67,1556.92L1718.1,1556.92L1718.1,1620.23L1699.31,1620.23Z" style="fill:rgb(26,26,26);fill-rule:nonzero;"/>
                <path d="M1819.15,1620.23L1819.15,1485.31L1848.44,1485.31C1863.04,1485.31 1873.33,1488.62 1879.33,1495.23C1885.32,1501.85 1888.32,1512.27 1888.32,1526.48L1888.32,1576.13C1888.32,1590.94 1885.35,1601.99 1879.41,1609.29C1873.47,1616.59 1863.61,1620.23 1849.83,1620.23L1819.15,1620.23ZM1837.94,1606.73L1848.52,1606.73C1851.4,1606.73 1853.94,1606.44 1856.13,1605.87C1858.33,1605.3 1860.16,1604.62 1861.63,1603.84C1863.09,1603.05 1864.33,1601.79 1865.33,1600.05C1866.33,1598.32 1867.09,1596.72 1867.61,1595.25C1868.12,1593.79 1868.52,1591.62 1868.79,1588.74C1869.06,1585.87 1869.22,1583.41 1869.28,1581.38C1869.33,1579.34 1869.36,1576.4 1869.36,1572.55L1869.36,1528.68C1869.36,1525.43 1869.3,1522.69 1869.19,1520.46C1869.09,1518.24 1868.87,1516.01 1868.54,1513.79C1868.22,1511.57 1867.73,1509.75 1867.08,1508.34C1866.43,1506.93 1865.59,1505.58 1864.56,1504.31C1863.53,1503.03 1862.25,1502.06 1860.73,1501.38C1859.21,1500.7 1857.42,1500.17 1855.36,1499.79C1853.3,1499.41 1850.88,1499.22 1848.12,1499.22L1837.94,1499.22L1837.94,1606.73Z" style="fill:rgb(26,26,26);fill-rule:nonzero;"/>
                <path d="M1972.03,1621.7C1960.69,1621.7 1952.05,1618.2 1946.11,1611.2C1940.17,1604.2 1936.84,1594.63 1936.14,1582.47L1952.9,1577.92C1954.1,1597.23 1960.47,1606.89 1972.03,1606.89C1976.86,1606.89 1980.53,1605.55 1983.05,1602.86C1985.58,1600.17 1986.84,1596.23 1986.84,1591.02C1986.84,1588.14 1986.5,1585.51 1985.82,1583.12C1985.14,1580.74 1984.03,1578.46 1982.48,1576.29C1980.94,1574.12 1979.47,1572.32 1978.09,1570.88C1976.71,1569.44 1974.74,1567.53 1972.19,1565.14L1949.57,1545.04C1945.01,1540.92 1941.69,1536.56 1939.6,1531.98C1937.51,1527.39 1936.46,1521.79 1936.46,1515.17C1936.46,1505.41 1939.3,1497.8 1944.97,1492.35C1950.64,1486.89 1958.38,1484.11 1968.2,1484C1979,1483.84 1987.08,1486.62 1992.45,1492.35C1997.82,1498.07 2001.05,1506.93 2002.14,1518.92L1986.27,1523.31C1986.05,1520.38 1985.75,1517.78 1985.37,1515.5C1984.99,1513.22 1984.37,1510.93 1983.5,1508.62C1982.63,1506.32 1981.58,1504.44 1980.33,1503.01C1979.08,1501.57 1977.42,1500.43 1975.36,1499.59C1973.3,1498.75 1970.91,1498.41 1968.2,1498.57C1958.27,1499.28 1953.31,1504.21 1953.31,1513.38C1953.31,1517.34 1953.99,1520.65 1955.34,1523.31C1956.7,1525.97 1958.98,1528.76 1962.18,1531.69L1984.97,1551.79C1990.88,1557.11 1995.59,1562.81 1999.09,1568.88C2002.59,1574.96 2004.34,1581.85 2004.34,1589.55C2004.34,1599.43 2001.35,1607.25 1995.38,1613.03C1989.41,1618.81 1981.63,1621.7 1972.03,1621.7Z" style="fill:rgb(26,26,26);fill-rule:nonzero;"/>
            </g>
        </g>
    </g>
</svg>
