<?xml version="1.0" encoding="UTF-8" standalone="no"?><!DOCTYPE svg PUBLIC "-//W3C//DTD SVG 1.1//EN" "http://www.w3.org/Graphics/SVG/1.1/DTD/svg11.dtd"><svg width="100%" height="100%" viewBox="0 0 6185 1869" version="1.1" xmlns="http://www.w3.org/2000/svg" xmlns:xlink="http://www.w3.org/1999/xlink" xml:space="preserve" xmlns:serif="http://www.serif.com/" style="fill-rule:evenodd;clip-rule:evenodd;stroke-linecap:round;stroke-linejoin:round;stroke-miterlimit:1.5;"><path id="line" d="M1196,1.563c0,610.429 21.351,1296.04 21.351,1865.37" style="fill:#262626;stroke:#000;stroke-width:3.13px;"/><g transform="matrix(9.81446,0,0,9.81446,-11596.2,-13381.2)"><g transform="matrix(58.1343,0,0,58.1343,1338.33,1450.98)"><path d="M0.045,0l0.41,0l0,-0.126l-0.01,0c0,0.035 -0.024,0.089 -0.075,0.089l-0.219,0l0,-0.561c0,-0.019 0.013,-0.052 0.033,-0.052l0.005,0l0,-0.01l-0.144,0l0,0.01l0.005,0c0.02,0 0.034,0.033 0.034,0.052l0,0.535c0,0.02 -0.014,0.053 -0.034,0.053l-0.005,0l0,0.01Z" style="fill:#262626;fill-rule:nonzero;"/></g><g transform="matrix(58.1343,0,0,58.1343,1379.37,1450.98)"><path d="M0.427,0l0.148,0l0,-0.01l-0.005,0c-0.027,0 -0.043,-0.031 -0.052,-0.058l-0.224,-0.604l-0.229,0.61c-0.011,0.028 -0.029,0.052 -0.046,0.052l-0.005,0l0,0.01l0.111,0l0,-0.01l-0.005,0c-0.011,0 -0.022,-0.011 -0.022,-0.028c0,-0.005 0.001,-0.01 0.003,-0.015l0.087,-0.239l0.175,0l0.09,0.243c0.002,0.006 0.003,0.012 0.003,0.017c0,0.015 -0.008,0.022 -0.024,0.022l-0.005,0l0,0.01Zm-0.152,-0.535l0.077,0.209l-0.154,0l0.077,-0.209Z" style="fill:#262626;fill-rule:nonzero;"/></g><g transform="matrix(58.1343,0,0,58.1343,1427.68,1450.98)"><path d="M0.045,-0.65l0.005,0c0.02,0 0.032,0.033 0.032,0.052l0,0.395c0,0.169 0.09,0.213 0.21,0.213c0.113,0 0.205,-0.041 0.205,-0.214l0,-0.394c0,-0.019 0.012,-0.052 0.032,-0.052l0.005,0l0,-0.01l-0.109,0l0,0.01l0.005,0c0.02,0 0.032,0.033 0.032,0.052l0,0.397c0,0.084 -0.019,0.178 -0.152,0.178c-0.121,0 -0.161,-0.076 -0.161,-0.18l0,-0.395c0,-0.019 0.012,-0.052 0.033,-0.052l0.005,0l0,-0.01l-0.142,0l0,0.01Z" style="fill:#262626;fill-rule:nonzero;"/></g><g transform="matrix(58.1343,0,0,58.1343,1475.64,1450.98)"><path d="M0.181,-0.01c-0.02,0 -0.032,-0.035 -0.032,-0.055l0,-0.274c0.015,0.003 0.032,0.005 0.047,0.006c0.059,0.088 0.118,0.18 0.178,0.268c0.023,0.035 0.055,0.065 0.108,0.065l0.043,0l0,-0.01c-0.03,0 -0.056,-0.034 -0.075,-0.061c-0.035,-0.055 -0.071,-0.105 -0.106,-0.158l-0.072,-0.11c0.085,-0.016 0.156,-0.066 0.156,-0.167c0,-0.101 -0.076,-0.154 -0.209,-0.154l-0.174,0l0,0.01l0.005,0c0.02,0 0.032,0.033 0.032,0.052l0,0.533c0,0.02 -0.012,0.055 -0.032,0.055l-0.005,0l0,0.01l0.141,0l0,-0.01l-0.005,0Zm-0.017,-0.616c0.115,0 0.195,0.023 0.195,0.124c0,0.1 -0.081,0.132 -0.136,0.132c-0.035,0 -0.058,-0.001 -0.069,-0.002l-0.005,0l0,-0.254l0.015,0Z" style="fill:#262626;fill-rule:nonzero;"/></g><g transform="matrix(58.1343,0,0,58.1343,1521.05,1450.98)"><path d="M0.045,0l0.41,0l0,-0.117l-0.01,0c0,0.028 -0.024,0.082 -0.075,0.082l-0.219,0l0,-0.303l0.166,0c0.032,0 0.054,0.02 0.054,0.044l0.01,0l0,-0.125l-0.01,0c0,0.025 -0.023,0.047 -0.054,0.047l-0.166,0l0,-0.253l0.201,0c0.045,0 0.065,0.027 0.068,0.058l0.01,0l0,-0.093l-0.385,0l0,0.01l0.005,0c0.02,0 0.034,0.033 0.034,0.052l0,0.535c0,0.02 -0.014,0.053 -0.034,0.053l-0.005,0l0,0.01Z" style="fill:#262626;fill-rule:nonzero;"/></g><g transform="matrix(58.1343,0,0,58.1343,1563.25,1450.98)"><path d="M0.15,-0.01c-0.021,0 -0.033,-0.035 -0.033,-0.055l0,-0.509l0.362,0.574l0.062,0l0,-0.598c0,-0.019 0.012,-0.052 0.033,-0.052l0.005,0l0,-0.01l-0.112,0l0,0.01l0.005,0c0.02,0 0.034,0.033 0.034,0.052l0,0.51l-0.363,-0.572l-0.101,0l0,0.01l0.005,0c0.028,0 0.035,0.033 0.035,0.052l0,0.533c0,0.02 -0.013,0.055 -0.033,0.055l-0.005,0l0,0.01l0.111,0l0,-0.01l-0.005,0Z" style="fill:#262626;fill-rule:nonzero;"/></g><g transform="matrix(58.1343,0,0,58.1343,1642.9,1450.98)"><path d="M0.475,-0.338l0.005,0c0.021,0 0.033,0.033 0.033,0.052l0,0.235c-0.037,0.021 -0.078,0.025 -0.103,0.025c-0.184,0 -0.306,-0.16 -0.306,-0.315c0,-0.139 0.088,-0.294 0.289,-0.294c0.059,0 0.144,0.013 0.16,0.096l0.01,0l0,-0.106l-0.009,0c-0.009,0 -0.022,-0.004 -0.039,-0.008c-0.031,-0.007 -0.071,-0.017 -0.118,-0.017c-0.247,0 -0.36,0.173 -0.36,0.339c0,0.165 0.114,0.341 0.355,0.341c0.06,0 0.141,-0.01 0.188,-0.028l0,-0.268c0,-0.019 0.013,-0.052 0.033,-0.052l0.005,0l0,-0.01l-0.143,0l0,0.01Z" style="fill:#262626;fill-rule:nonzero;"/></g><g transform="matrix(58.1343,0,0,58.1343,1695.1,1450.98)"><path d="M0.181,-0.01c-0.02,0 -0.032,-0.035 -0.032,-0.055l0,-0.274c0.015,0.003 0.032,0.005 0.047,0.006c0.059,0.088 0.118,0.18 0.178,0.268c0.023,0.035 0.055,0.065 0.108,0.065l0.043,0l0,-0.01c-0.03,0 -0.056,-0.034 -0.075,-0.061c-0.035,-0.055 -0.071,-0.105 -0.106,-0.158l-0.072,-0.11c0.085,-0.016 0.156,-0.066 0.156,-0.167c0,-0.101 -0.076,-0.154 -0.209,-0.154l-0.174,0l0,0.01l0.005,0c0.02,0 0.032,0.033 0.032,0.052l0,0.533c0,0.02 -0.012,0.055 -0.032,0.055l-0.005,0l0,0.01l0.141,0l0,-0.01l-0.005,0Zm-0.017,-0.616c0.115,0 0.195,0.023 0.195,0.124c0,0.1 -0.081,0.132 -0.136,0.132c-0.035,0 -0.058,-0.001 -0.069,-0.002l-0.005,0l0,-0.254l0.015,0Z" style="fill:#262626;fill-rule:nonzero;"/></g><g transform="matrix(58.1343,0,0,58.1343,1740.5,1450.98)"><path d="M0.427,0l0.148,0l0,-0.01l-0.005,0c-0.027,0 -0.043,-0.031 -0.052,-0.058l-0.224,-0.604l-0.229,0.61c-0.011,0.028 -0.029,0.052 -0.046,0.052l-0.005,0l0,0.01l0.111,0l0,-0.01l-0.005,0c-0.011,0 -0.022,-0.011 -0.022,-0.028c0,-0.005 0.001,-0.01 0.003,-0.015l0.087,-0.239l0.175,0l0.09,0.243c0.002,0.006 0.003,0.012 0.003,0.017c0,0.015 -0.008,0.022 -0.024,0.022l-0.005,0l0,0.01Zm-0.152,-0.535l0.077,0.209l-0.154,0l0.077,-0.209Z" style="fill:#262626;fill-rule:nonzero;"/></g><g transform="matrix(58.1343,0,0,58.1343,1782.01,1450.98)"><path d="M0.003,-0.65l0.005,0c0.022,0 0.048,0.039 0.061,0.059l0.161,0.276l0,0.25c0,0.021 -0.012,0.055 -0.033,0.055l-0.005,0l0,0.01l0.143,0l0,-0.01l-0.005,0c-0.02,0 -0.033,-0.036 -0.033,-0.055l0,-0.259l0.156,-0.27c0.015,-0.025 0.037,-0.056 0.057,-0.056l0,-0.01l-0.107,0l0,0.01c0.003,0 0.02,0.003 0.023,0.024c0,0.008 -0.002,0.011 -0.007,0.022l-0.144,0.249l-0.15,-0.263c-0.002,-0.004 -0.003,-0.008 -0.003,-0.011c0,-0.013 0.01,-0.02 0.019,-0.021l0,-0.01l-0.138,0l0,0.01Z" style="fill:#262626;fill-rule:nonzero;"/></g><g transform="matrix(36.5415,0,0,36.5415,1338.33,1509.94)"><path d="M0.127,-0.348l0,-0.314l0.15,0c0.134,0 0.185,0.059 0.185,0.158c0,0.095 -0.051,0.156 -0.185,0.156l-0.15,0Zm0.38,-0.156c0,-0.116 -0.069,-0.198 -0.23,-0.198l-0.195,0l0,0.702l0.045,0l0,-0.308l0.15,0c0.155,0 0.23,-0.074 0.23,-0.196Z" style="fill:#262626;fill-rule:nonzero;"/></g><g transform="matrix(36.5415,0,0,36.5415,1367.09,1509.94)"><path d="M0.537,0l0.045,0l0,-0.702l-0.045,0l0,0.324l-0.41,0l0,-0.324l-0.045,0l0,0.702l0.045,0l0,-0.34l0.41,0l0,0.34Z" style="fill:#262626;fill-rule:nonzero;"/></g><g transform="matrix(36.5415,0,0,36.5415,1400.16,1509.94)"><path d="M0.736,-0.35c0,-0.211 -0.145,-0.358 -0.341,-0.358c-0.196,0 -0.341,0.147 -0.341,0.358c0,0.21 0.145,0.358 0.341,0.358c0.196,0 0.341,-0.148 0.341,-0.358Zm-0.636,0c0,-0.198 0.13,-0.319 0.295,-0.319c0.165,0 0.294,0.121 0.294,0.319c0,0.197 -0.129,0.318 -0.294,0.318c-0.165,0 -0.295,-0.121 -0.295,-0.318Z" style="fill:#262626;fill-rule:nonzero;"/></g><g transform="matrix(36.5415,0,0,36.5415,1437.83,1509.94)"><path d="M0.025,-0.664l0.2,0l0,0.664l0.045,0l0,-0.664l0.2,0l0,-0.038l-0.445,0l0,0.038Z" style="fill:#262626;fill-rule:nonzero;"/></g><g transform="matrix(36.5415,0,0,36.5415,1464.73,1509.94)"><path d="M0.736,-0.35c0,-0.211 -0.145,-0.358 -0.341,-0.358c-0.196,0 -0.341,0.147 -0.341,0.358c0,0.21 0.145,0.358 0.341,0.358c0.196,0 0.341,-0.148 0.341,-0.358Zm-0.636,0c0,-0.198 0.13,-0.319 0.295,-0.319c0.165,0 0.294,0.121 0.294,0.319c0,0.197 -0.129,0.318 -0.294,0.318c-0.165,0 -0.295,-0.121 -0.295,-0.318Z" style="fill:#262626;fill-rule:nonzero;"/></g><g transform="matrix(36.5415,0,0,36.5415,1502.4,1509.94)"><path d="M0.395,-0.708c-0.196,0 -0.341,0.147 -0.341,0.358c0,0.21 0.145,0.357 0.341,0.357c0.194,0 0.332,-0.145 0.338,-0.342l0,-0.03l-0.359,0l0,0.038l0.313,0c-0.009,0.182 -0.132,0.294 -0.292,0.294c-0.165,0 -0.295,-0.121 -0.295,-0.317c0,-0.197 0.13,-0.318 0.295,-0.318c0.129,0 0.225,0.071 0.264,0.173l0.052,0c-0.05,-0.131 -0.164,-0.213 -0.316,-0.213Z" style="fill:#262626;fill-rule:nonzero;"/></g><g transform="matrix(36.5415,0,0,36.5415,1539.97,1509.94)"><path d="M0.462,-0.501c0,0.094 -0.056,0.164 -0.185,0.164l-0.15,0l0,-0.325l0.148,0c0.135,0 0.187,0.062 0.187,0.161Zm-0.38,-0.201l0,0.702l0.045,0l0,-0.299l0.154,0l0.18,0.299l0.054,0l-0.184,-0.303c0.119,-0.017 0.178,-0.093 0.178,-0.198c0,-0.116 -0.072,-0.201 -0.234,-0.201l-0.193,0Z" style="fill:#262626;fill-rule:nonzero;"/></g><g transform="matrix(36.5415,0,0,36.5415,1569.27,1509.94)"><path d="M0.547,0l0.049,0l-0.257,-0.686l-0.05,0l-0.258,0.686l0.049,0l0.067,-0.18l0.333,0l0.067,0.18Zm-0.081,-0.218l-0.305,0l0.153,-0.409l0.152,0.409Z" style="fill:#262626;fill-rule:nonzero;"/></g><g transform="matrix(36.5415,0,0,36.5415,1600.99,1509.94)"><path d="M0.127,-0.348l0,-0.314l0.15,0c0.134,0 0.185,0.059 0.185,0.158c0,0.095 -0.051,0.156 -0.185,0.156l-0.15,0Zm0.38,-0.156c0,-0.116 -0.069,-0.198 -0.23,-0.198l-0.195,0l0,0.702l0.045,0l0,-0.308l0.15,0c0.155,0 0.23,-0.074 0.23,-0.196Z" style="fill:#262626;fill-rule:nonzero;"/></g><g transform="matrix(36.5415,0,0,36.5415,1629.75,1509.94)"><path d="M0.537,0l0.045,0l0,-0.702l-0.045,0l0,0.324l-0.41,0l0,-0.324l-0.045,0l0,0.702l0.045,0l0,-0.34l0.41,0l0,0.34Z" style="fill:#262626;fill-rule:nonzero;"/></g><g transform="matrix(36.5415,0,0,36.5415,1662.82,1509.94)"><path d="M0.249,-0.284l0,0.284l0.045,0l0,-0.284l0.221,-0.418l-0.051,0l-0.193,0.376l-0.194,-0.376l-0.051,0l0.223,0.418Z" style="fill:#262626;fill-rule:nonzero;"/></g></g><path id="Plant" d="M979.214,731.022c-0.462,-13.746 -0.933,-27.961 -0.868,-41.881c0.196,-32.873 -1.301,-66.294 -2.748,-98.611c-0.728,-16.345 -1.459,-32.673 -1.982,-48.967l-0.443,-13.868l-11.355,8.973c-154.392,122.104 -246.565,281.863 -246.565,427.371c0,110.376 -34.132,167.889 -38.131,174.236l-14.465,21.379l2.714,-1.312l-49.615,85.135c8.322,-251.99 -23.128,-346.393 -29.906,-363.607c57.564,-124.538 44.339,-336.881 -31.166,-495.623c-80.207,-168.67 -242.171,-230.27 -243.799,-230.878l-9.731,-3.6l-2.151,273.438c-1.949,253.188 249.967,443.691 273.109,460.635c5.052,13.207 39.069,113.498 27.82,386.779l-0.984,1.686l0.896,0.461c-2.668,63.686 -7.79,136.771 -16.289,220.219c-25.54,-63.469 -69.311,-139.11 -121.883,-217.462c0.877,-0.523 1.511,-1.027 1.945,-1.427l1.366,-1.26l0.504,-1.73c0.486,-1.687 11.886,-41.856 6.559,-103.35c-4.903,-56.575 -25.638,-142.51 -96.567,-230.636c-135.752,-168.696 -363.905,-182.799 -366.196,-182.921l-9.283,-0.496l1.852,8.494c2.924,13.426 73.7,330.082 249.22,434.841c119.388,71.302 173.01,83.109 196.344,81.971c60.633,90.125 109.675,176.773 132.584,245.355l0.257,-0.07c-7.883,72.572 -18.254,152.604 -31.675,240.834l14.191,1.878c31.399,-206.473 46.383,-368.119 51.836,-493.588l73.434,-125.999c79.447,-38.516 144.843,-86.379 194.408,-142.283c33.055,-37.282 57.279,-74.337 72.001,-110.123c16.001,-38.828 23.507,-68.999 25.083,-100.845c1.082,-21.137 0.369,-42.49 -0.321,-63.148Zm-665.881,-307.711l1.955,-248.781c100.024,98.986 225.518,585.123 251.142,687.681c-58.166,-46.114 -254.794,-218.446 -253.097,-438.9Zm26.739,-241.199c50.913,27.309 146.123,91.065 201.513,207.543c79.811,167.793 79.247,359.599 38.355,467.583c-25.723,-103.506 -139.317,-544.258 -239.868,-675.126Zm-81.27,1003.68c-146.989,-87.727 -220.61,-338.864 -238.519,-408.297c83.081,64.834 278.245,283.411 417.859,487.841c-22.471,-2.113 -73.234,-16.179 -179.34,-79.544Zm194.076,76.727c-138.588,-203.613 -332.847,-422.12 -419.683,-492.24c61.758,8.747 225.229,43.646 330.818,174.861c118.193,146.848 95.078,289 88.865,317.379Zm276.705,-298.478c0,-133.136 79.788,-278.94 214.966,-395.289c-38.877,76.084 -138.042,275.985 -158.05,373.475c-14.503,70.555 -51.173,127.2 -77.936,161.003c10.403,-30.048 21.02,-76.145 21.02,-139.189Zm235.641,-170.488c-1.508,30.344 -8.728,59.253 -24.151,96.683c-14.166,34.438 -37.608,70.232 -69.668,106.401c-41.355,46.645 -94.101,87.587 -157.156,122.043c27.925,-33.525 70.039,-94.726 86.329,-173.939c19.914,-97.056 123.451,-304.73 159.738,-375.693c0.308,7.338 0.64,14.685 0.966,22.031c1.437,32.17 2.924,65.434 2.733,98.003c-0.069,14.155 0.411,28.491 0.873,42.36c0.681,20.397 1.385,41.489 0.336,62.111Z" style="fill:#262626;fill-rule:nonzero;"/></svg>