<?xml version="1.0" encoding="UTF-8" standalone="no"?><!DOCTYPE svg PUBLIC "-//W3C//DTD SVG 1.1//EN" "http://www.w3.org/Graphics/SVG/1.1/DTD/svg11.dtd"><svg width="100%" height="100%" viewBox="0 0 574 306" version="1.1" xmlns="http://www.w3.org/2000/svg" xmlns:xlink="http://www.w3.org/1999/xlink" xml:space="preserve" xmlns:serif="http://www.serif.com/" style="fill-rule:evenodd;clip-rule:evenodd;stroke-linejoin:round;stroke-miterlimit:10;"><g><path d="M269.989,142.813c3.279,-0.945 7.573,-1.55 12.617,-0.813c9.28,1.355 19.215,11.018 23.191,15.268l0.001,-0.002l7.082,-5.901l0.001,-0.001l-0.001,0.001l0.001,-0.001c0,0 -1.176,5.421 -0.98,8.542c0.197,3.121 1.271,15.335 -5.684,19.561c-5.646,3.428 -11.251,5.461 -13.152,7.677l-0.68,1.595c-0.004,-0.555 0.238,-1.08 0.68,-1.595l3.801,-8.92l-6.116,10.259c3.647,0.449 5.866,1.547 5.866,1.547c2.793,11.707 -6.61,19.011 -6.61,19.011c0,0 -0.148,0.098 -0.428,0.295c9.172,15.999 15.706,34.613 21.723,91.663c0.399,3.744 -2.878,4.206 -2.878,4.206c-3.822,0.259 -4.546,-3.532 -4.546,-3.532c-5.587,-53.923 -11.744,-72.563 -20.104,-87.636l3.782,-3.205c-4.044,3.109 -12.548,10.282 -21.357,21.624c-12.203,15.705 -22.34,15.983 -22.34,15.983c7.202,-40.09 16.31,-48.217 29.246,-55.928c1.633,-0.975 3.228,-1.743 4.77,-2.341c-2.4,-4.082 -4.944,-8.688 -7.628,-14.153c-4.547,-9.254 -6.565,-18.294 -7.008,-26.684l-0.043,-0.429l-0.48,-0.112c0,0 0.162,0.021 0.476,0.065l-0.279,-2.817c0,0 0.078,-0.058 0.23,-0.161c-0.026,-8.551 1.516,-16.331 3.544,-22.848l3.303,19.782Zm47.097,36.065l-5.283,-0.146c0,0 2.744,-13.498 14.305,-18.091c11.561,-4.59 15.576,-10.316 28.901,-9.565c13.326,0.75 20.866,1.848 25.671,-2.741c0,0 0.388,9.641 -14.405,10.559c-14.794,0.921 -15.872,5.971 -18.808,7.348c-2.848,1.336 -27.396,11.978 -28.929,12.642c0.725,0.012 1.489,0.037 2.292,0.078l11.87,-6.228c27.628,-3.76 50.23,7.285 59.245,12.245c0.889,0.488 1.78,0.913 2.665,1.282l15.652,2.034c0.002,0 0.002,-0.001 0.002,-0.001l0,0.001l0.001,0l-0.002,0.001c-0.076,0.084 -3.64,3.96 -22.924,5.959c-19.498,2.019 -33.698,-7.9 -44.871,-13.136c-11.036,-5.171 -21.393,-2.228 -21.636,-2.157c2.857,0.143 6.218,0.475 10.173,1.058c0,0 18.807,3.681 29.487,21.86c0.57,0.29 1.126,0.565 1.669,0.822c9.503,4.502 37.134,8.911 37.134,8.911l-0.001,0l0.001,0l-0.003,0.001c-11.544,6.195 -22.106,7.879 -31.175,7.318l2.079,0.207c0,0 1.173,3.491 4.31,3.675c0,0 -7.131,0.07 -10.378,-4.279l0.02,0.002c-14.727,-2.021 -24.863,-9.614 -27.852,-11.426c-4.837,-2.932 -11.246,-5.592 -11.651,-5.759c15.745,8.937 28.647,37.702 30.364,50.485c1.725,12.848 7.168,20.58 8.449,22.25l0.272,0.343c-23.223,2.387 -29.786,-25.992 -29.786,-25.992l-11.171,-25.623c0,0 0.393,4.501 4.118,19.745c3.708,15.18 -0.358,25.805 -0.393,25.898l0,0.001l-0.001,-0.001l0,0c-27.343,-23.391 -19.732,-60.196 -17.341,-69.219c-7.934,1.126 -12.022,-3.515 -12.022,-3.515l12.022,3.515c0.177,-0.67 0.326,-1.187 0.43,-1.534c-11.759,0.314 -11.427,-6.229 -11.427,-7.194c0,-0.096 0.055,-0.24 0.169,-0.421l-2.968,-0.563c0,0 2.433,-2.802 5.079,-3.537c2.644,-0.739 3.329,-1.745 4.409,-3.489c0.772,-1.252 3.302,-3.54 12.238,-3.623Zm-6.173,18.832c2.242,1.107 7.094,4.088 9.024,9.858c2.545,7.624 2.836,15.247 2.836,15.247l10.998,13.86c6.113,16.111 15.969,34.597 29.959,37.755l-0.002,-0.002c-0.011,-0.014 -0.107,-0.128 -0.27,-0.341l-29.687,-37.412c-2.962,-7.809 -5.045,-15.06 -6.293,-19.737c-3.824,-14.329 -14.655,-18.148 -14.655,-18.148l4.955,0.055c2.321,0.364 4.609,1.229 6.839,2.491l-1.783,-1.751l-11.921,-1.875Zm35.396,29.745c0,0 14.385,18.434 31.139,15.266c0,0 -12.414,-5.471 -16.606,-24.741l-14.533,9.475Zm-139.536,-153.606c5.817,4.521 20.053,1.236 32.898,9.555c12.856,8.334 14.325,27.482 14.325,27.482c0,0 1.63,1.391 2.758,3.955l3.868,2.727c-0.33,0.924 -0.656,1.875 -0.966,2.854l-0.187,0.522c-0.748,-0.91 -1.566,-2.254 -2.02,-4.064c-0.184,-0.745 -0.425,-1.425 -0.695,-2.039l-2.663,-1.877l0.151,3.291c0.202,0.454 0.39,0.937 0.561,1.451c1.503,4.508 2.63,6.345 3.182,8.214l0.045,0.228c-1.441,5.855 -2.489,12.822 -2.372,20.515c0.017,0.026 0.034,0.052 0.051,0.079l-0.05,-0.041c0.003,0.177 0.006,0.354 0.01,0.531l0.078,1.687c0.073,0.009 0.145,0.017 0.214,0.026l-0.214,-0.026l0.07,1.519c2.377,2.751 3.176,7.515 2.882,11.833c-0.053,0.788 -0.252,1.577 -0.565,2.356l13.191,28.895c-2.463,-4.188 -5.083,-8.929 -7.857,-14.579c-2.38,-4.849 -4.125,-9.627 -5.349,-14.279c-2,4.922 -8.514,9.431 -11.468,10.855c-2.748,1.323 -3.61,3.652 -3.844,4.524l-0.076,0.342l-0.001,-0.003c0,0.002 0,0.003 0,0.003c0,-0.003 0,-0.005 0,-0.008c-0.005,-0.135 -0.004,-0.286 0.001,-0.453c-0.158,-4.525 -5.176,-11.625 -4.706,-21.122c0.154,-3.081 1.234,-5.296 2.642,-6.884c-0.043,-0.001 -0.63,-0.018 -1.645,0.057l-5.084,2.644c-0.246,21.195 -11.489,33.113 -11.489,33.113c0,0 -5.093,7.349 -8.522,16.714c-3.43,9.37 -11.074,9.37 -11.074,9.37l0,-0.002l0,0.001l0,-0.001c0.017,-0.127 1.163,-8.783 -0.881,-16.437c-2.054,-7.715 4.29,-25.641 4.29,-25.641l16.469,-11.286l-10.97,5.707c-13.07,13.045 -34.73,37.973 -55.241,28.742c-0.004,-0.001 -0.007,-0.002 -0.007,-0.002l0.001,0l0,0l0,0l19.812,-10.306c7.42,-11.319 20.687,-36.407 70.558,-36.321c0.9,-0.237 1.5,-0.302 1.529,-0.305c-0.077,-0.021 -3.741,-1.024 -11.333,-2.872l-2.966,3.584c0,0 0.468,-2.885 2.843,-3.614c-0.445,-0.108 -0.903,-0.219 -1.375,-0.333l-5,4.329c0.808,-2.21 4.406,-4.055 4.974,-4.335c-0.536,-0.13 -1.089,-0.263 -1.66,-0.4l-16.787,7.382c3.252,-4.706 15.828,-7.206 16.767,-7.387c-1.011,-0.242 -2.076,-0.495 -3.196,-0.76c-5.388,-1.273 -8.861,-4.741 -11.054,-8.185c-0.148,0.031 -12.691,2.716 -18.926,9.838c-6.27,7.162 -30.372,33.796 -50.653,29.295c0,0 -0.001,0 -0.001,0l18.093,-10.948c0.596,-0.63 1.196,-1.296 1.798,-1.999c10.285,-12.03 22.626,-29.478 47.612,-30.214c-1.042,-2.531 -1.386,-4.434 -1.39,-4.46c-0.505,0.179 -1.021,0.356 -1.548,0.531c-21.531,7.167 -27.038,-0.411 -27.038,-0.411l0,0l14.605,-4.767c2.654,-2.198 6.014,-4.903 9.862,-7.699c8.163,-5.939 18.719,-12.01 34.61,-6.821c0,0 0.001,0 0.001,0l0,0c0,0 -2.072,-2.736 -5.476,-6.264l-14.399,-11.554c-1.705,-0.957 -3.465,-1.788 -5.257,-2.43c-13.45,-4.825 -14.769,-13.64 -14.769,-13.64l0.002,0.002c-0.001,-0.002 -0.002,-0.002 -0.002,-0.002l0.023,0.018Zm114.007,123.719l-1.469,-1.443l-8.74,1.42c0.105,0.05 0.219,0.104 0.341,0.164c0.055,-0.011 4.356,-0.897 9.868,-0.141Zm-48.225,-39.387l5.34,31.981c5.066,-1.961 9.547,-2.087 12.854,-1.679c-0.024,-0.061 -1.318,-3.494 6.162,-12.596c0.689,-0.839 1.386,-1.73 2.083,-2.655l6.003,-14.088c-2.835,-0.098 -7.31,-0.142 -9.849,0.394c-3.029,0.639 -12.142,2.319 -22.593,-1.357Zm17.154,30.114c0,0 0.346,-1.112 -1.911,-4.876c-2.251,-3.768 -2.843,-11.572 3.43,-15.341c6.269,-3.762 5.29,-3.028 5.781,-5.235c0.488,-2.203 3.72,-3.753 3.72,-3.753l-11.02,29.205Zm-36.347,-39.672c0.953,0.398 1.765,1.019 2.447,1.806c-0.033,-0.507 -0.06,-1.011 -0.083,-1.513l-2.364,-0.293Zm-4.207,-7.221c1.744,4.933 2.603,6.9 2.61,6.914l1.058,0.111c0.185,0.057 0.364,0.123 0.539,0.196c0.177,0.022 1.41,0.175 2.364,0.293c-0.025,-0.565 -0.044,-1.126 -0.057,-1.684l-0.025,-0.543l-6.489,-5.287Zm1.141,3.151c0,0 2.152,0.799 4.361,4.229l-4.361,-4.229Zm3.946,-28.298c-2.744,-6.175 -8.034,-6.952 -8.034,-6.952c-7.815,0.873 -9.96,10.467 -30.049,17.583l0,0c0.068,0.021 6.908,2.135 12.955,2.517c6.073,0.378 16.557,1.851 19.004,9.013c0.375,1.096 0.72,2.089 1.037,2.985c0.099,0.033 3.971,1.347 6.487,5.236l-0.131,-2.838l-7.17,-4.741c0,0 3.766,0.618 7.168,4.695l-0.115,-2.486c-2.06,-2.057 -4.328,-5.052 -6.383,-8.035l-7.024,-1.04c0,0 -0.724,-4.327 0.447,-9.429c0,0 1.571,1.511 4.217,2.797c1.73,0.839 5.671,3.293 8.331,6.743l-0.74,-16.048Zm1.15,24.952l-0.326,-7.078l-5.186,-0.768l5.512,7.846Zm51.497,-132.53c-0.687,-4.108 2.516,-7.927 2.516,-7.927c3.23,3.168 3.694,12.768 3.694,12.768l-4.376,-3.371c0.73,0.958 1.323,2.386 1.587,4.498c1.218,-0.486 2.56,-0.869 4.039,-1.127c0,0 0.168,0.516 0.385,1.444c0.033,-0.042 1.114,-1.391 2.561,-2.292c5.982,-11.357 16.65,-10.267 16.65,-10.267c0.587,7.028 -2.659,9.84 -2.659,9.84l-0.004,0c1.532,2.965 2.951,8.143 2.013,16.724c0.606,2.49 1.298,7.323 -0.526,12.61c1.713,-1.027 3.748,-2.229 5.732,-3.356c1.375,-0.782 2.846,-1.21 4.247,-1.42l-8.803,-4.366c0,0 2.35,-3.029 7.351,-3.029c0,0 1.1,0.559 1.9,1.657l-1.433,-7.027c0,0 4.77,-5.995 7.613,-8.077l-7.69,2.133c0.489,2.742 0.505,6.661 -1.42,11.314l-7.271,-12.14c0,0 1.889,-2.055 4.654,-2.984l-5.91,-1.079c0,0 2.205,-4.326 6.172,-4.46c3.97,-0.139 5.773,6.641 5.773,6.641l-2.931,-0.535c0.303,0.727 0.68,1.828 0.933,3.241c0.103,-0.152 4.927,-7.284 7.413,-7.284c2.517,0 2.486,4.54 2.486,4.54l-0.003,0.001c0.25,0.169 0.385,0.474 0.451,0.831l0,-0.001c0,0 0.275,1.466 0.439,3.49c0.047,-0.028 2.988,-1.832 4.547,-1.832c1.568,0 2.005,0.549 2.104,1.375c0.098,0.827 0,2.11 0.979,2.665c0.981,0.551 0,4.133 -0.585,4.775c-0.58,0.636 -6.66,9.283 -6.768,9.436c2.829,-0.715 7.179,-1.493 12.058,-1.226c0,0 -1.869,6.119 -11.798,9.705c0.227,-0.021 4.113,-0.357 8.557,0.204l0.009,-0.324c0,0 6.464,-2.507 8.819,-2.439c2.348,0.07 0.733,5.994 0.733,5.994l-0.542,4.836l-9.25,0.169l0.06,-2.137l-0.392,0.115c1.423,6.805 -2.17,7.809 -2.17,7.809l-13.834,-0.226l15.489,-7.431l-2.88,0.848c-0.929,0.627 -2.438,1.213 -4.85,1.666c-7.292,1.368 -11.665,3.91 -11.734,3.951c2.987,0.575 5.382,1.367 6.001,1.701c1.027,0.549 3.822,1.924 6.907,2.34c3.061,0.407 6.986,3.766 7.053,3.823l0,0c0,0 9.797,-2.558 9.6,-12.628c0,0 3.724,8.653 -2.936,10.643c0,0 1.957,6.791 -0.196,9.734c-2.159,2.936 -6.857,6.796 -6.857,6.796l2.545,3.486c0,0 0.587,2.943 -3.526,2.758c0,0 -1.862,4.409 -4.069,3.761c0,0 1.473,0.557 4.999,5.1c3.528,4.549 -1.615,6.201 -1.615,6.201c-0.403,0.11 -0.806,0.203 -1.206,0.281l0,0l0,0c-10.641,2.075 -20.009,-6.574 -21.622,-8.161c0.311,1.353 0.369,2.557 0.27,3.612l0.002,-0.003c0,0 0.033,0.205 0.062,0.966c12.014,9.014 13.228,19.885 13.248,20.069c2.234,0.773 4.907,1.142 4.907,1.142c-6.799,1.348 -13.008,-1.372 -16.508,-3.431l-0.005,0l-0.026,-0.018c-1.853,-1.093 -2.938,-1.995 -2.938,-1.995l2.938,1.995c0.01,0.006 0.021,0.012 0.031,0.018c0.201,0.005 7.651,0.212 9.822,1.501c0.502,0.298 1.12,0.56 1.777,0.787l-13.246,-20.066c0.048,1.208 0.088,3.817 -0.018,9.226c-0.177,8.815 -5.118,11.984 -8.645,11.984c-3.526,0 -5.546,-3.584 -5.546,-3.584l9.333,-12.266c-2.171,0.557 -5.827,1.104 -9.984,0.101c0.03,0.219 1.768,12.89 -0.567,16.575c-1.257,1.991 -3.694,2.955 -6.836,2.662l7.401,-19.237c-1.647,-0.398 -3.373,-1.039 -5.116,-2.019c-8.707,-4.897 -11.966,-16.376 -12.047,-16.665c-0.888,3.873 -2.742,6.846 -4.628,9.107l0.001,0.003l-0.002,-0.002c-1.861,2.232 -3.754,3.771 -4.781,4.799c-2.199,2.194 -11.238,8.489 -19.002,4.326c-0.326,0.472 -1.715,2.533 -3.465,5.864c2.031,0.393 4.109,1.049 6.151,2.071c7.337,3.666 11.613,8.187 16.6,10.924l8.531,2.438l0.002,0l-0.001,0l0,0l0,0c-0.157,0.081 -30.905,15.905 -48.2,-13.773l-0.001,-0.001l0.001,0.001l0,-0.001c0,0 4.54,-1.921 10.595,-2.13l-1.675,-0.142c2.794,-5.701 5.193,-9.051 5.355,-9.276l3.077,1.958c-0.828,-0.719 -1.529,-1.494 -2.115,-2.324l0,0.002l-0.001,-0.003c-2.965,-4.201 -2.982,-9.801 -1.721,-16.603c0.962,-5.179 4.5,-9.87 7.519,-13.065c-0.106,0.087 -2.537,2.057 -6.012,4.344l0.554,2.796c0,0 -6.308,2.957 -13.135,3.55l-0.012,0.003l0.005,-0.003c-2.607,0.226 -5.29,0.107 -7.726,-0.653c-8.822,-2.758 -9.698,-14.878 -4.408,-21.768c5.291,-6.888 20.344,-6.021 20.344,-6.021l4.22,21.298l6.172,-3.548c2.519,-2.665 4.677,-4.289 4.677,-4.289c-6.227,-3.758 -9.419,-7.945 -10.916,-11.843c-0.402,0.047 -3.584,0.082 -12.695,-8.451c-9.797,-9.184 -5.876,-18.553 0.981,-24.432c6.794,-5.823 16.617,-1.568 16.801,-1.487c0.98,-2.098 2.787,-3.793 4.36,-4.94c3.528,-2.573 5.558,0.886 5.558,0.886c0,0 -12.024,2.05 -3.99,18.031l0,0c0,0 -0.389,-2.937 -0.389,-9.183c0,-6.111 6.603,-10.807 6.882,-11.002c0.616,-1.36 2.061,-3.327 5.265,-3.327c0,0 1.764,-7.896 6.271,-7.531c3.482,0.285 3.921,3.97 4.123,7.07c0.018,-0.006 1.643,-0.516 3.308,0.215Zm-119.313,118.331c0.062,0.043 1.126,0.766 2.701,1.147c-1.683,-0.566 -2.648,-1.116 -2.701,-1.147Zm111.306,-21.174c-0.695,-5.529 -0.334,-10.55 -0.334,-10.55c0,0 0.126,23.706 15.602,27.423c0.008,0.001 0.015,0.002 0.023,0.003l-0.001,0.003c-0.007,-0.002 -0.015,-0.004 -0.022,-0.006c-2.725,-0.26 -5.977,-1.464 -9.45,-3.763c-3.612,-2.389 -5.171,-7.967 -5.818,-13.107c-1.065,4.977 -6.28,6.038 -6.28,6.038c2.646,-3.121 1.127,-12.079 1.127,-12.079l5.153,6.038Zm33.936,-21.482l1.714,4.975c0.701,1.334 1.174,2.568 1.47,3.701l2.037,-2.247c-1.403,-1.434 -2.182,-2.419 -2.182,-2.419l-2.4,-3.676l6.194,4.317l2.833,-3.126c-1.163,-0.007 -2.233,-0.006 -3.148,0.006c-2.124,0.031 -3.833,-0.356 -5.169,-0.887l0,0l0,0c-0.502,-0.199 -0.951,-0.419 -1.349,-0.644Zm-28.161,-1.268l0.044,0.186c-0.08,0.519 -0.176,1.023 -0.289,1.513l2.523,-0.038l-2.278,-1.661Zm8.047,0.368c-1.218,0.172 -2.532,0.76 -3.472,1.258l4.021,-0.061c-0.375,-0.694 -0.559,-1.191 -0.559,-1.191l0.01,-0.006Zm14.811,-47.703c2.985,4.438 -0.18,14.899 -1.998,17.628c-1.956,2.936 -7.64,4.223 -7.64,4.223l-10.285,1.33l-0.002,-0.003l0,0.004c0.049,0.872 -1.571,1.057 -0.979,1.284c0.586,0.23 1.664,0.091 1.91,1.334c0.242,1.238 -1.472,1.746 -0.931,2.018c0.537,0.276 2.302,0.415 2.499,1.426c0.163,0.838 0.09,2.09 -1.209,2.859l7.529,1.898l0,0l16.408,-0.628c-4.163,8.953 -12.295,8.496 -12.295,8.496l-4.096,-7.836c2.71,5.335 -1.292,9.308 -1.292,9.308c0.098,-2.114 -3.528,-4.224 -3.528,-4.224c0.869,-5.972 -2.621,-6.985 -2.726,-7.014c-0.264,0.156 -0.577,0.293 -0.95,0.402c-2.2,0.642 -4.113,0.642 -4.113,0.642l-4.121,-6.824l0.699,2.962l3.422,3.862c-0.917,0.021 -1.677,0.308 -2.335,0.741l0.035,0.148c0.052,-0.091 0.106,-0.181 0.162,-0.272l12.177,7.098l-0.488,4.04c1.139,0.655 0.922,1.505 0.56,2.086l8.456,-4.944c1.177,1.639 0.488,4.876 0.296,6.483c-0.01,0.081 -0.026,0.158 -0.048,0.23l10.184,-0.155c-1.721,-0.974 -2.495,-2.05 -2.495,-2.05l-7.276,-1.233l7.118,1.009l-4.074,-5.779c0,0 4.297,1.451 4.238,5.802l2.218,0.314l-4.559,-7.252c0,0 5.271,0.999 6.087,7.469l10.06,1.426l9.297,-10.258l-4.332,-3.754c0,0 3.707,-1.418 5.768,1.953l-2.99,-6.534l-2.94,0c0,0 0.439,5.13 -0.736,7.195c-1.175,2.068 -1.471,2.895 -1.762,5.098c-0.295,2.205 -4.41,4.271 -4.41,4.271c0,0 -5.142,-5.647 -6.172,-8.677c-1.013,-2.992 -4.881,-5.805 -4.987,-5.882c-0.449,0.073 -0.951,0.112 -1.515,0.138c-3.934,0.184 -5.99,0.646 -6.774,1.197c-0.782,0.549 -4.9,1.195 -6.762,0.733c-1.863,-0.457 -5.862,-2.877 -5.862,-2.877l23.428,-15.482l0.001,-0.001c-1.803,-4.383 -4.898,-6.995 -4.898,-6.995c0,0 1.804,-1.12 4.281,-2.605l-5.253,-5.828Zm32.564,29.715l-8.201,0c0.087,0.056 3.147,2.015 5.332,4.165l0.13,-0.144c-0.02,-0.002 -0.031,-0.003 -0.031,-0.003l2.77,-4.018Zm0.652,0.279l0.253,-0.279l-0.767,0c0.199,0.071 0.369,0.167 0.514,0.279Zm-46.3,-33.782l-15.857,3.758c0.374,0.475 0.736,0.913 1.081,1.307c4.507,5.144 2.936,14.143 2.936,14.143c-2.744,2.404 -2.923,9.782 -2.935,10.734l0.013,0.053l2.922,-10.787c0,0 0.507,-0.358 1.304,-0.631l-0.127,-0.288c0,0 2.848,-9.67 10.663,-18.289Zm-7.906,24.547c-0.28,0.109 -0.428,0.245 -0.258,0.492c0.297,0.429 0.652,0.705 0.92,1.013l-0.662,-1.505Zm46.475,-11.94c-2.208,0.797 -4.814,1.468 -7.886,1.919c-1.588,1.777 -4.316,2.387 -6.025,2.619c-2.039,0.273 -5.631,2.035 -5.704,2.071c0.691,1.679 1.192,3.618 1.256,5.769l0.004,-0.01l0.001,0l-0.001,0l0.004,0c2.155,-0.005 4.395,0.282 6.375,0.663l1.886,-9.183l11.889,-0.948l-1.799,-2.9Zm8.575,-5.086c0,0 4.553,-0.851 7.493,2.524l-7.493,-2.524Zm-9.03,-15.422c-0.124,2.067 -0.524,4.11 -1.457,5.526c-2.664,4.04 -5.418,6.978 -5.481,7.045c2.19,0.053 3.767,0.486 3.767,0.486l0,0.001c0.002,-0.001 1.264,-0.498 3.374,-1.032l-0.203,-12.026Zm-2.392,-1.9c-2.516,3.883 -6.903,8.844 -6.956,8.904c0.901,1.237 1.422,3.159 -0.442,5.736c1.007,-0.151 1.978,-0.19 2.851,-0.169l4.547,-14.471Zm-52.555,-5.713l-9.312,-2.702l1.937,8.205c2.271,4.868 5.554,10.189 8.249,13.64c-0.035,-1.32 -0.07,-10.922 6.058,-17.132l-4.049,-1.175c0.364,1.541 0.655,3.361 0.839,5.512l-3.722,-6.348Zm65.742,18.357c0,0 1.737,-5.721 -3.025,-10.177l3.025,10.177Zm-36.716,-22.418l-5.755,0.176c1.674,1.676 5.351,6.637 1.944,15.593l0,-0.001c0.492,2.021 1.548,4.647 3.814,6.609l-1.75,-1.94c0,0 2.344,-4.2 7.109,-5.449l-8.036,-9.816l2.674,-5.172Zm-51.748,10.345l-1.735,11.816c3.35,-3.992 8.254,-2.125 8.288,-2.112l-3.719,-4.59c-1.705,-1.804 -2.562,-3.52 -2.834,-5.114Zm39.859,-7.765c0.65,2.781 1.741,9.247 0.092,16.563c1.889,-2.03 4.058,-3.992 6.535,-5.743l-6.627,-10.82Zm-11.154,-6.504c0.059,0.912 0.097,1.774 0.187,2.484c0.387,3.07 0.752,7.37 0.764,7.509c1.517,-1.537 3.412,-2.866 5.778,-3.81l-6.729,-6.183Z" style="fill:none;fill-rule:nonzero;stroke:#f2f2f2;stroke-width:1.5px;"/><text x="-3.767px" y="159.705px" style="font-family:'Forum';font-size:83.714px;fill:#fff;">L<tspan x="43.531px 101.294px 158.554px 212.131px 261.103px 322.047px 352.184px 415.555px 469.132px 517.1px " y="159.705px 159.705px 159.705px 159.705px 159.705px 159.705px 159.705px 159.705px 159.705px 159.705px ">AUREN GRAY</tspan></text><text x="124.813px" y="219.23px" style="font-family:'Poppins-Regular', 'Poppins';font-size:25.114px;fill:#fff;">P<tspan x="151.911px 181.822px 214.119px 240.263px 272.559px 304.655px 332.482px 361.966px 389.064px 418.975px " y="219.23px 219.23px 219.23px 219.23px 219.23px 219.23px 219.23px 219.23px 219.23px 219.23px ">HOTOGRAPHY</tspan></text></g></svg>