<?xml version="1.0" encoding="UTF-8" standalone="no"?><!DOCTYPE svg PUBLIC "-//W3C//DTD SVG 1.1//EN" "http://www.w3.org/Graphics/SVG/1.1/DTD/svg11.dtd"><svg width="100%" height="100%" viewBox="0 0 739 651" version="1.1" xmlns="http://www.w3.org/2000/svg" xmlns:xlink="http://www.w3.org/1999/xlink" xml:space="preserve" xmlns:serif="http://www.serif.com/" style="fill-rule:evenodd;clip-rule:evenodd;stroke-linejoin:round;stroke-miterlimit:2;"><path d="M206.435,280.713c0,85.736 69.475,155.239 155.177,155.239c85.702,0 155.177,-69.503 155.177,-155.239c0,-85.736 -69.475,-155.238 -155.177,-155.238c-85.702,0 -155.177,69.502 -155.177,155.238Z" style="fill:#fff;"/><rect x="0" y="487.077" width="738.386" height="109.971" style="fill:#d9d9d9;"/><path d="M71.428,636.186l-18.079,0l0,14.187l-3.848,0l0,-30.921l3.848,0l0,13.305l18.079,0l0,-13.305l3.849,0l0,30.921l-3.849,0l0,-14.187Z" style="fill:#fff;fill-rule:nonzero;"/><path d="M105.686,619.452l20.259,0l0,3.43l-16.411,0l0,9.967l16.086,0l0,3.43l-16.086,0l0,10.663l16.411,0l0,3.431l-20.259,0l0,-30.921Z" style="fill:#fff;fill-rule:nonzero;"/><path d="M160.156,640.081l13.398,0l-6.676,-17.199l-6.722,17.199Zm14.557,3.432l-15.67,0l-2.735,6.86l-4.265,0l12.425,-30.921l4.774,0l12.471,30.921l-4.265,0l-2.735,-6.86Z" style="fill:#fff;fill-rule:nonzero;"/><path d="M208.924,619.452l3.847,0l0,27.49l14.372,0l0,3.431l-18.219,0l0,-30.921Z" style="fill:#fff;fill-rule:nonzero;"/><path d="M258.759,622.882l-9.782,0l0,-3.43l23.458,0l0,3.43l-9.829,0l0,27.491l-3.847,0l0,-27.491Z" style="fill:#fff;fill-rule:nonzero;"/><path d="M322.639,636.186l-18.079,0l0,14.187l-3.848,0l0,-30.921l3.848,0l0,13.305l18.079,0l0,-13.305l3.849,0l0,30.921l-3.849,0l0,-14.187Z" style="fill:#fff;fill-rule:nonzero;"/><path d="M390.784,634.935c0,-9.503 7.001,-15.993 15.762,-15.993c5.61,0 9.411,2.643 11.868,6.119l-3.245,1.808c-1.762,-2.596 -4.96,-4.497 -8.623,-4.497c-6.629,0 -11.775,5.192 -11.775,12.563c0,7.326 5.146,12.564 11.775,12.564c3.663,0 6.861,-1.855 8.623,-4.497l3.293,1.808c-2.598,3.523 -6.306,6.119 -11.916,6.119c-8.761,0 -15.762,-6.49 -15.762,-15.994Z" style="fill:#fff;fill-rule:nonzero;"/><path d="M446.552,619.452l20.258,0l0,3.43l-16.411,0l0,9.967l16.087,0l0,3.43l-16.087,0l0,10.663l16.411,0l0,3.431l-20.258,0l0,-30.921Z" style="fill:#fff;fill-rule:nonzero;"/><path d="M499.956,625.432l0,24.941l-3.849,0l0,-30.921l3.942,0l17.8,24.432l0,-24.432l3.848,0l0,30.921l-3.708,0l-18.033,-24.941Z" style="fill:#fff;fill-rule:nonzero;"/><path d="M559.757,622.882l-9.781,0l0,-3.43l23.457,0l0,3.43l-9.828,0l0,27.491l-3.848,0l0,-27.491Z" style="fill:#fff;fill-rule:nonzero;"/><path d="M601.709,619.452l20.26,0l0,3.43l-16.412,0l0,9.967l16.087,0l0,3.43l-16.087,0l0,10.663l16.412,0l0,3.431l-20.26,0l0,-30.921Z" style="fill:#fff;fill-rule:nonzero;"/><path d="M663.226,622.882l-8.112,0l0,11.822l8.112,0c3.662,0 6.167,-2.457 6.167,-5.934c0,-3.477 -2.505,-5.888 -6.167,-5.888Zm-1.947,15.206l-6.165,0l0,12.285l-3.849,0l0,-30.921l12.425,0c5.656,0 9.689,3.615 9.689,9.318c0,5.563 -3.802,8.622 -8.02,8.994l8.345,12.609l-4.544,0l-7.881,-12.285Z" style="fill:#fff;fill-rule:nonzero;"/><path d="M149.579,196.012l-57.266,-31.096l2.085,-3.839l53.585,29.098l8.762,-16.138l3.683,2.001l-10.849,19.974Z" style="fill:#fff;fill-rule:nonzero;"/><path d="M164.529,124.599l-22.224,-11.37c-2.468,-1.317 -4.734,-2.643 -6.803,-3.974c1.797,1.879 3.495,3.873 5.098,5.976l14.884,19.992l9.045,-10.624Zm25.739,13.017l-21.715,-10.938l-10.258,12.051l14.318,19.621l-2.947,3.463l-39.448,-54.189l2.919,-3.428l60.021,30.026l-2.89,3.394Z" style="fill:#fff;fill-rule:nonzero;"/><path d="M233.388,101.788l-3.914,2.952l-31.805,-16.714l-0.023,8.335l15.564,20.641l-3.487,2.631l-39.232,-52.033l3.487,-2.627l20.769,27.546c-0.506,-3.191 -2.305,-16.236 -5.393,-39.14l3.808,-2.871l4.191,32.733l36.035,18.547Z" style="fill:#fff;fill-rule:nonzero;"/><path d="M274.294,81.437l-21.491,9.805l-27.047,-59.288l21.493,-9.805l1.739,3.813l-17.519,7.994l10.267,22.504l16.546,-7.546l1.74,3.811l-16.547,7.549l11.562,25.345l17.519,-7.991l1.738,3.809Z" style="fill:#fff;fill-rule:nonzero;"/><path d="M352.735,65.703l-18.568,-58.953l-0.356,0.008c0.426,6.231 0.657,10.181 0.691,11.845l0.987,47.459l-4.188,0.088l-1.356,-65.153l6.462,-0.134l15.653,49.518c1.398,4.368 2.323,8.095 2.773,11.177l0.358,-0.008c0.25,-2.204 1.094,-5.936 2.529,-11.199l13.446,-50.21l6.683,-0.141l1.356,65.152l-4.366,0.092l-0.981,-47.104c-0.037,-1.84 0.026,-5.886 0.194,-12.131l-0.356,0.008l-16.015,59.583l-4.946,0.103Z" style="fill:#fff;fill-rule:nonzero;"/><path d="M431.493,47.419l0.445,-24.959c0.103,-2.795 0.297,-5.414 0.585,-7.854c-0.899,2.436 -1.944,4.839 -3.132,7.203l-11.414,22.156l13.516,3.454Zm-0.38,28.84l0.281,-24.311l-15.33,-3.919l-11.336,21.487l-4.402,-1.127l31.339,-59.249l4.361,1.115l-0.595,67.108l-4.318,-1.104Z" style="fill:#fff;fill-rule:nonzero;"/><path d="M474.51,58.839l5.436,2.78c3.519,1.799 6.784,2.102 9.8,0.905c3.015,-1.195 5.616,-3.936 7.81,-8.222c2.23,-4.364 2.87,-8.011 1.913,-10.935c-0.958,-2.926 -3.528,-5.457 -7.706,-7.596l-4.325,-2.21l-12.928,25.278Zm-1.826,3.572l-12.967,25.357l-3.89,-1.988l29.669,-58.02l7.937,4.059c5.662,2.897 9.119,6.349 10.373,10.361c1.251,4.011 0.517,8.676 -2.201,13.993c-2.058,4.022 -4.463,6.963 -7.217,8.824c-2.753,1.866 -6.143,2.584 -10.165,2.162l-1.926,32.155l-4.366,-2.232l2.134,-30.898l-7.381,-3.773Z" style="fill:#fff;fill-rule:nonzero;"/><path d="M510.335,120.129l-3.381,-2.764l38.603,-47.197l-10.04,-8.212l2.654,-3.245l23.461,19.191l-2.654,3.243l-10.04,-8.212l-38.603,47.196Z" style="fill:#fff;fill-rule:nonzero;"/><path d="M536.409,145.526l49.354,-42.548l2.852,3.307l-49.355,42.55l-2.851,-3.309Z" style="fill:#fff;fill-rule:nonzero;"/><path d="M573.792,202.07l-2.686,-4.883l39.324,-49.755l-0.17,-0.313c-3.37,2.26 -6.695,4.292 -9.976,6.095l-40.97,22.531l-2.06,-3.749l57.097,-31.401l2.729,4.96l-38.824,49.279l0.129,0.233c4.155,-2.557 7.665,-4.622 10.528,-6.199l39.916,-21.95l2.062,3.752l-57.099,31.4Z" style="fill:#fff;fill-rule:nonzero;"/><path d="M22.631,543.465c0,-17.949 13.57,-30.205 30.642,-30.205c13.308,0 20.75,7.005 24.865,14.27l-10.682,5.254c-2.451,-4.728 -7.704,-8.492 -14.183,-8.492c-10.155,0 -17.86,8.14 -17.86,19.173c0,11.031 7.705,19.174 17.86,19.174c6.479,0 11.732,-3.678 14.183,-8.494l10.682,5.165c-4.203,7.268 -11.557,14.359 -24.865,14.359c-17.072,0 -30.642,-12.257 -30.642,-30.204Z" style="fill:#fff;fill-rule:nonzero;"/><path d="M129.963,548.104l-27.578,0l0,24.515l-12.432,0l0,-58.395l12.432,0l0,22.937l27.578,0l0,-22.937l12.521,0l0,58.395l-12.521,0l0,-24.515Z" style="fill:#fff;fill-rule:nonzero;"/><rect x="158.325" y="514.224" width="12.432" height="58.395" style="fill:#fff;"/><path d="M212.165,524.904l-13.045,0l0,16.11l13.045,0c4.991,0 8.755,-3.153 8.755,-8.055c0,-4.903 -3.764,-8.055 -8.755,-8.055Zm-3.94,26.789l-9.105,0l0,20.926l-12.432,0l0,-58.395l27.316,0c12.169,0 19.611,7.966 19.611,18.823c0,10.329 -6.479,15.845 -12.782,17.334l13.133,22.238l-14.271,0l-11.47,-20.926Z" style="fill:#fff;fill-rule:nonzero;"/><path d="M275.022,524.292c-10.768,0 -17.685,8.229 -17.685,19.173c0,10.856 6.917,19.174 17.685,19.174c10.768,0 17.773,-8.318 17.773,-19.174c0,-10.944 -7.005,-19.173 -17.773,-19.173Zm0,-11.032c17.685,0 30.555,12.608 30.555,30.205c0,17.597 -12.87,30.204 -30.555,30.204c-17.598,0 -30.468,-12.607 -30.468,-30.204c0,-17.597 12.87,-30.205 30.468,-30.205Z" style="fill:#fff;fill-rule:nonzero;"/><path d="M344.357,524.904l-13.22,0l0,16.11l13.22,0c4.903,0 8.58,-3.153 8.58,-8.055c0,-4.817 -3.677,-8.055 -8.58,-8.055Zm-25.653,-10.68l27.317,0c12.694,0 19.61,8.579 19.61,18.823c0,10.154 -7.004,18.646 -19.61,18.646l-14.884,0l0,20.926l-12.433,0l0,-58.395Z" style="fill:#fff;fill-rule:nonzero;"/><path d="M403.188,524.904l-13.046,0l0,16.11l13.046,0c4.99,0 8.753,-3.153 8.753,-8.055c0,-4.903 -3.763,-8.055 -8.753,-8.055Zm-3.941,26.789l-9.105,0l0,20.926l-12.432,0l0,-58.395l27.315,0c12.17,0 19.613,7.966 19.613,18.823c0,10.329 -6.479,15.845 -12.783,17.334l13.132,22.238l-14.27,0l-11.47,-20.926Z" style="fill:#fff;fill-rule:nonzero;"/><path d="M452.823,551.782l19.348,0l-9.63,-26.79l-9.718,26.79Zm22.763,10.769l-26.089,0l-3.678,10.068l-13.658,0l22.588,-58.395l15.585,0l22.499,58.395l-13.569,0l-3.678,-10.068Z" style="fill:#fff;fill-rule:nonzero;"/><path d="M496.857,543.465c0,-17.949 13.57,-30.205 30.643,-30.205c13.307,0 20.748,7.005 24.864,14.27l-10.681,5.254c-2.452,-4.728 -7.705,-8.492 -14.183,-8.492c-10.156,0 -17.861,8.14 -17.861,19.173c0,11.031 7.705,19.174 17.861,19.174c6.478,0 11.731,-3.678 14.183,-8.494l10.681,5.165c-4.202,7.268 -11.557,14.359 -24.864,14.359c-17.073,0 -30.643,-12.257 -30.643,-30.204Z" style="fill:#fff;fill-rule:nonzero;"/><path d="M577.661,525.167l-17.072,0l0,-10.943l46.576,0l0,10.943l-16.985,0l0,47.452l-12.519,0l0,-47.452Z" style="fill:#fff;fill-rule:nonzero;"/><rect x="619.505" y="514.224" width="12.432" height="58.395" style="fill:#fff;"/><path d="M645.068,543.465c0,-17.949 13.57,-30.205 30.642,-30.205c13.308,0 20.749,7.005 24.864,14.27l-10.681,5.254c-2.451,-4.728 -7.704,-8.492 -14.183,-8.492c-10.156,0 -17.86,8.14 -17.86,19.173c0,11.031 7.704,19.174 17.86,19.174c6.479,0 11.732,-3.678 14.183,-8.494l10.681,5.165c-4.202,7.268 -11.556,14.359 -24.864,14.359c-17.072,0 -30.642,-12.257 -30.642,-30.204Z" style="fill:#fff;fill-rule:nonzero;"/><path d="M382.45,471.846c-5.547,-1.234 -3.109,-5.492 -3.5,-6.246c-0.54,-1.038 -2.231,0.391 -2.976,0.371c-0.884,-0.024 -2.571,-0.917 -2.72,-1.898c-0.462,-3.043 1.416,-3.238 1.416,-3.238c0,0 0.899,0.241 1.671,-0.758c0.771,-0.999 0.056,-2.953 0.962,-3.118c3.367,-0.61 1.093,3.971 1.873,4.602c0.778,0.631 1.158,-1.229 2.442,-1.756c0.633,-0.26 1.455,2.205 1.873,2.636c0.764,0.788 1.783,1.389 1.645,2.647c-0.16,1.436 -0.78,2.832 -1.304,4.163c-0.068,0.174 -0.12,0.44 -0.177,0.737c-0.169,0.884 -0.383,2.04 -1.205,1.858Zm11.384,-12.992c-8.783,-1.644 -4.923,-7.321 -5.543,-8.326c-0.834,-1.353 -2.932,0.285 -3.94,0.407c-1.501,0.181 -4.765,-0.715 -5.078,-2.443c-0.73,-4.058 2.241,-4.318 2.241,-4.318c0,0 1.424,0.321 2.646,-1.011c1.223,-1.331 0.089,-3.938 1.523,-4.158c5.332,-0.815 1.732,5.296 2.966,6.137c1.233,0.841 1.833,-1.639 3.867,-2.342c1.191,-0.411 1.743,2.277 2.28,2.871c1.179,1.302 3.586,1.897 3.29,4.173c-0.255,1.95 -1.287,3.723 -2.035,5.507c-0.113,0.268 -0.204,0.641 -0.305,1.045c-0.299,1.206 -0.678,2.688 -1.912,2.458Zm9.937,-16.184c-11.89,-2.623 -7.056,-9.362 -7.949,-10.643c-1.239,-1.776 -4.769,0.335 -6.483,0.175c-1.81,-0.169 -5.242,-1.229 -5.748,-3.3c-1.229,-5.052 2.744,-5.171 2.744,-5.171c0,0 1.931,0.494 3.49,-1.066c1.559,-1.559 -0.123,-4.851 1.79,-5.023c7.107,-0.642 2.649,6.647 4.357,7.767c1.707,1.122 2.36,-1.894 5.047,-2.624c1.523,-0.413 3.071,3.674 4.182,4.541c1.573,1.228 3.952,2.11 3.727,4.525c-0.224,2.396 -1.498,4.682 -2.486,6.831c-0.135,0.292 -0.237,0.663 -0.337,1.06c-0.366,1.463 -0.684,3.291 -2.334,2.928Zm-30.479,-343.265c-4.176,-0.174 -2.429,-3.482 -2.736,-3.965c-0.377,-0.592 -1.803,0.527 -1.803,0.527c0,0 -2.287,0.166 -2.49,-0.889c-0.402,-2.088 1,-2.461 1,-2.461c0,0 0.678,0.057 1.238,-0.744c0.559,-0.801 -0.013,-2.09 0.662,-2.319c2.51,-0.854 0.893,2.663 1.487,3.009c0.596,0.348 0.845,-1.011 1.798,-1.545c0.496,-0.277 1.024,1.274 1.024,1.274c0,0 1.813,0.817 1.707,2.012c-0.104,1.162 -1.106,3.639 -1.106,3.639c0,0 0.049,1.495 -0.781,1.462Zm-3.033,15.974c-6.481,-0.242 -3.77,-4.874 -4.246,-5.55c-0.811,-1.149 -5.944,2.846 -6.664,-0.506c-0.623,-2.923 1.553,-3.446 1.553,-3.446c0,0 1.052,0.08 1.921,-1.041c0.867,-1.122 -0.02,-2.927 1.028,-3.248c3.896,-1.196 1.384,3.728 2.309,4.214c0.923,0.486 1.31,-1.417 2.788,-2.163c0.771,-0.389 1.59,1.784 1.59,1.784c0,0 2.815,1.142 2.649,2.815c-0.161,1.628 -1.716,5.095 -1.716,5.095c0,0 0.076,2.094 -1.212,2.046Zm-2.87,22.714c-12.776,-0.406 -7.432,-8.16 -8.37,-9.291c-1.267,-1.526 -5.327,1.152 -6.998,1.289c-1.748,0.142 -5.574,0.096 -6.136,-2.138c-1.228,-4.894 3.06,-5.769 3.06,-5.769c0,0 2.074,0.135 3.785,-1.743c1.712,-1.878 -0.039,-4.899 2.027,-5.437c7.679,-2 2.73,6.242 4.551,7.055c1.82,0.814 2.583,-2.372 5.496,-3.621c1.338,-0.574 3.471,3.12 4.745,3.82c1.589,0.874 3.872,1.632 3.611,3.878c-0.305,2.606 -1.793,4.892 -2.743,7.277c-0.148,0.373 -0.264,0.833 -0.386,1.318c-0.394,1.576 -0.848,3.417 -2.642,3.362Zm-3.857,24.916c-19.032,2.223 -12.952,-9.391 -14.611,-10.711c-2.526,-2.01 -7.211,2.821 -9.694,3.414c-2.403,0.575 -8.618,1.169 -9.976,-1.71c-2.983,-6.331 3.167,-8.441 3.167,-8.441c0,0 3.106,-0.269 5.197,-3.171c2.091,-2.903 -1.221,-6.596 1.713,-7.77c10.908,-4.362 5.528,7.823 8.42,8.525c2.892,0.702 3.266,-3.757 7.287,-6.074c1.876,-1.081 3.773,1.692 4.879,2.738c1.577,1.49 3.563,1.213 5.473,2.032c1.586,0.68 3.768,1.815 3.861,3.797c0.162,3.453 -1.269,7.083 -2.316,10.314c-0.187,0.577 -0.285,1.254 -0.371,1.958c-0.278,2.264 -0.431,4.795 -3.029,5.099Zm-3.844,28.477c-24.002,6.571 -18.718,-8.623 -21.142,-9.868c-2.496,-1.282 -6.173,2.072 -7.875,3.539c-2.803,2.413 -5.622,2.905 -9.215,3.513c-2.177,0.368 -6.257,1.153 -7.848,-0.974c-5.221,-6.992 2.23,-10.785 2.23,-10.785c0,0 3.938,-0.959 5.993,-4.875c2.056,-3.915 -3.013,-7.671 0.507,-9.681c13.081,-7.476 8.823,8.261 12.697,8.512c3.875,0.25 3.382,-5.183 8.05,-8.789c2.06,-1.592 5.128,1.039 6.746,2.18c2.302,1.623 4.822,0.829 7.438,1.386c2.137,0.456 5.395,1.323 5.977,3.809c0.951,4.054 -0.054,8.751 -0.715,12.781c-0.126,0.767 -0.116,1.628 -0.084,2.511c0.103,2.824 0.43,5.867 -2.759,6.741Zm-0.453,31.745c-26.872,11.004 -22.172,-2.882 -25.538,-3.579c-3.437,-0.712 -6.686,4.665 -8.219,7.001c-2.56,3.901 -5.799,5.709 -9.934,7.748c-2.518,1.242 -7.342,3.74 -10.023,1.627c-8.724,-6.872 -0.982,-14.231 -0.982,-14.231c0,0 4.449,-2.586 5.604,-8.192c1.156,-5.606 -6.277,-8.5 -2.695,-12.248c13.314,-13.935 13.529,7.185 18.314,6.131c4.786,-1.055 3.138,-6.074 7.568,-12.218c1.558,-2.159 4.865,-0.533 6.624,0.456c0.866,0.488 1.742,1.364 2.721,1.485c1.15,0.141 2.435,-0.637 3.549,-0.844c1.74,-0.322 3.476,-0.59 5.243,-0.704c2.762,-0.177 7.218,-0.27 8.764,2.604c2.793,5.191 3.085,16.997 3.085,16.997c0,0 1.734,5.586 -4.081,7.967Zm58.77,196.032c-18.032,3.388 -13.979,-7.287 -15.787,-8.323c-2.493,-1.427 -6.971,2.961 -9.471,3.71c-2.471,0.741 -7.399,1.836 -9.259,-0.729c-3.871,-5.345 1.737,-7.664 1.737,-7.664c0,0 2.958,-0.471 4.522,-3.181c1.565,-2.712 -2.211,-5.711 0.439,-6.965c9.851,-4.658 6.563,6.466 9.465,6.866c2.903,0.401 2.567,-3.552 6.088,-5.893c1.404,-0.933 3.422,0.72 4.494,1.506c1.196,0.875 2.105,1.321 3.59,1.572c2.476,0.42 6.269,0.293 6.983,3.389c0.707,3.064 -0.183,6.469 -0.68,9.496c-0.075,0.458 -0.079,0.964 -0.064,1.484c0.059,2.026 0.405,4.268 -2.057,4.732Zm1.96,-28.3c-20.644,8.128 -18.909,-5.155 -21.383,-5.931c-2.483,-0.778 -5.147,2.363 -6.608,3.956c-2.136,2.328 -4.768,2.995 -7.738,3.843c-2.024,0.578 -5.41,1.584 -7.255,0.019c-2.238,-1.9 -3.632,-4.945 -1.842,-7.638c1.696,-2.551 5.188,-3.139 6.177,-6.368c1.069,-3.494 -4.328,-6.075 -1.518,-8.141c10.455,-7.685 9.771,5.939 13.371,5.725c3.6,-0.216 2.037,-4.704 5.577,-8.233c1.346,-1.341 4.113,-0.086 5.516,0.54c1.654,0.739 2.895,1.148 4.74,1.111c3.2,-0.066 7.888,-1.238 9.72,2.307c1.613,3.122 1.718,7.164 1.95,10.599c0.046,0.68 0.249,1.439 0.472,2.22c0.678,2.365 1.547,4.918 -1.179,5.991Zm-4.14,-35.415c-20.375,16.126 -22.944,0.635 -25.981,0.604c-2.921,-0.028 -4.839,4.116 -5.885,6.301c-1.618,3.379 -4.188,5.105 -7.244,7.138c-2.485,1.652 -5.338,3.557 -8.446,2.658c-2.482,-0.718 -4.827,-3.019 -4.978,-5.726c-0.072,-1.292 0.53,-3.752 1.67,-4.604c0.009,-0.006 3.404,-2.547 3.429,-6.835c0.025,-4.293 -6.917,-5.357 -4.467,-8.631c9.107,-12.172 12.969,3.347 16.931,1.883c3.962,-1.464 0.685,-5.97 3.454,-11.128c0.958,-1.787 3.99,-1.499 5.649,-1.343c0.945,0.089 1.921,0.416 2.859,0.454c1.336,0.054 2.292,-0.611 3.528,-1.04c1.341,-0.466 2.692,-0.887 4.082,-1.19c2.279,-0.498 5.77,-1.124 7.614,0.774c2.759,2.84 4.204,7.113 5.598,10.735c0.332,0.86 0.94,1.801 1.561,2.773c1.573,2.461 3.222,5.121 0.626,7.177Zm-7.165,-35.708c-21.046,20.334 -26.621,4.197 -30.164,4.631c-3.248,0.398 -4.834,4.867 -5.753,7.487c-1.369,3.906 -4.075,6.183 -7.195,8.761c-2.343,1.934 -6.149,5.077 -9.475,4.242c-10.831,-2.719 -5.6,-10.519 -5.6,-10.519c0,0 3.541,-3.236 2.854,-7.821c-0.686,-4.584 -8.95,-4.653 -6.642,-8.523c8.579,-14.385 15.665,1.582 20.036,-0.588c4.371,-2.17 -0.197,-6.475 2.168,-12.405c0.866,-2.171 4.633,-2.239 6.539,-2.307c1.098,-0.039 2.251,0.153 3.336,0.068c1.644,-0.128 2.798,-1.197 4.249,-1.864c1.47,-0.675 2.95,-1.311 4.488,-1.819c2.513,-0.831 6.24,-1.918 8.641,-0.22c1.634,1.156 3.011,2.823 4.205,4.406c2.158,2.865 3.696,6.173 5.846,9.017l0.154,0.195c1.926,2.369 5.655,4.03 2.313,7.259Zm-21.749,-40.493c2.302,2.673 6.396,4.865 2.893,8.615c-22.752,24.349 -28.78,5.025 -32.609,5.545c-3.61,0.49 -5.28,5.949 -6.186,8.843c-1.486,4.747 -4.348,7.583 -8.039,10.812c-2.423,2.119 -6.411,5.883 -10.016,4.881c-11.708,-3.256 -6.053,-12.597 -6.053,-12.597c0,0 3.827,-3.874 3.085,-9.364c-0.742,-5.49 -9.676,-5.573 -7.18,-10.207c9.274,-17.225 16.935,1.894 21.66,-0.704c4.724,-2.598 -0.74,-5.909 1.817,-13.01c0.88,-2.448 5.19,-2.377 7.243,-2.388c1.401,-0.007 2.789,0.19 4.183,0.211c1.939,0.028 2.743,-0.914 4.212,-2.044c1.492,-1.149 3.01,-2.255 4.635,-3.215c2.532,-1.498 6.901,-3.968 9.716,-1.763c1.896,1.485 3.3,3.6 4.568,5.611c2.055,3.256 3.305,7.292 5.695,10.317c0.122,0.155 0.248,0.308 0.376,0.457Zm-12.293,-30.081c0.526,2.39 -0.562,4.438 -2.431,5.918c-27.811,22.041 -27.195,1.927 -31.062,1.927c-3.823,0 -6.168,6.156 -7.348,8.997c-1.968,4.74 -5.194,7.61 -9.208,10.697c-2.522,1.94 -7.33,5.652 -10.763,3.992c-11.172,-5.402 -4.314,-14.96 -4.314,-14.96c0,0 4.314,-3.74 4.314,-9.973c0,-6.233 -8.847,-7.678 -5.752,-12.467c11.503,-17.8 16.536,4.675 21.568,2.493c5.033,-2.181 2.215,-6.143 5.701,-13.672c1.224,-2.646 5.357,-1.724 7.522,-1.158c1.471,0.384 2.659,1.196 4.226,0.877c1.31,-0.266 2.399,-1.198 3.626,-1.686c1.813,-0.72 3.635,-1.403 5.526,-1.896c2.941,-0.766 7.661,-1.821 9.986,0.867c2.452,2.835 3.77,6.667 4.872,10.191c0.473,1.513 0.812,3.057 1.251,4.576c0.175,0.609 0.438,1.185 0.725,1.749c0.588,1.155 1.283,2.266 1.561,3.528Zm142.15,31.376c0,85.697 -69.469,155.167 -155.166,155.167c-85.696,0 -155.167,-69.47 -155.167,-155.167c0,-85.696 69.471,-155.167 155.167,-155.167c85.697,0 155.166,69.471 155.166,155.167Z" style="fill:#d9d9d9;"/></svg>