<?xml version="1.0" encoding="UTF-8" standalone="no"?><!DOCTYPE svg PUBLIC "-//W3C//DTD SVG 1.1//EN" "http://www.w3.org/Graphics/SVG/1.1/DTD/svg11.dtd"><svg width="100%" height="100%" viewBox="0 0 3080 2713" version="1.1" xmlns="http://www.w3.org/2000/svg" xmlns:xlink="http://www.w3.org/1999/xlink" xml:space="preserve" xmlns:serif="http://www.serif.com/" style="fill-rule:evenodd;clip-rule:evenodd;stroke-linejoin:round;stroke-miterlimit:2;"><path d="M860.146,1169.64c0,357.233 289.479,646.829 646.571,646.829c357.091,0 646.57,-289.596 646.57,-646.83c0,-357.233 -289.479,-646.825 -646.57,-646.825c-357.092,0 -646.571,289.592 -646.571,646.825Z" style="fill:#fff;"/><rect x="0" y="2029.49" width="3076.61" height="458.213" style="fill:#0d0d0d;"/><path d="M297.617,2650.78l-75.33,0l0,59.113l-16.033,0l0,-128.838l16.033,0l0,55.438l75.33,0l0,-55.438l16.037,0l0,128.838l-16.037,0l0,-59.113Z" style="fill:#0d0d0d;fill-rule:nonzero;"/><path d="M440.358,2581.05l84.413,0l0,14.292l-68.379,0l0,41.529l67.025,0l0,14.291l-67.025,0l0,44.43l68.379,0l0,14.295l-84.413,0l0,-128.837Z" style="fill:#0d0d0d;fill-rule:nonzero;"/><path d="M667.317,2667l55.825,0l-27.817,-71.662l-28.008,71.662Zm60.654,14.3l-65.292,0l-11.396,28.584l-17.77,0l51.77,-128.838l19.892,0l51.963,128.838l-17.771,0l-11.396,-28.584Z" style="fill:#0d0d0d;fill-rule:nonzero;"/><path d="M870.517,2581.05l16.029,0l0,114.542l59.883,0l0,14.296l-75.912,0l0,-128.838Z" style="fill:#0d0d0d;fill-rule:nonzero;"/><path d="M1078.16,2595.34l-40.759,0l0,-14.292l97.742,0l0,14.292l-40.954,0l0,114.545l-16.029,0l0,-114.545Z" style="fill:#0d0d0d;fill-rule:nonzero;"/><path d="M1344.33,2650.78l-75.329,0l0,59.113l-16.033,0l0,-128.838l16.033,0l0,55.438l75.329,0l0,-55.438l16.038,0l0,128.838l-16.038,0l0,-59.113Z" style="fill:#0d0d0d;fill-rule:nonzero;"/><path d="M1628.27,2645.56c0,-39.596 29.17,-66.638 65.675,-66.638c23.375,0 39.212,11.012 49.45,25.496l-13.521,7.533c-7.342,-10.817 -20.667,-18.737 -35.929,-18.737c-27.621,0 -49.063,21.633 -49.063,52.345c0,30.526 21.442,52.351 49.063,52.351c15.262,-0.001 28.587,-7.73 35.929,-18.738l13.721,7.533c-10.825,14.68 -26.275,25.496 -49.65,25.496c-36.505,0 -65.675,-27.042 -65.675,-66.642Z" style="fill:#0d0d0d;fill-rule:nonzero;"/><path d="M1860.63,2581.05l84.409,0l0,14.292l-68.38,0l0,41.529l67.03,0l0,14.291l-67.03,0l0,44.43l68.38,0l0,14.295l-84.409,0l0,-128.837Z" style="fill:#0d0d0d;fill-rule:nonzero;"/><path d="M2083.15,2605.97l0,103.921l-16.037,0l-0.001,-128.838l16.426,0l74.166,101.8l0,-101.8l16.034,0l-0.001,128.838l-15.449,0l-75.138,-103.921Z" style="fill:#0d0d0d;fill-rule:nonzero;"/><path d="M2332.32,2595.34l-40.754,0l0,-14.292l97.737,0l0,14.292l-40.95,0l0,114.545l-16.033,0l0,-114.545Z" style="fill:#0d0d0d;fill-rule:nonzero;"/><path d="M2507.12,2581.05l84.416,0l0,14.292l-68.383,0l0,41.529l67.029,0l0,14.291l-67.029,0l0,44.43l68.383,0l0,14.295l-84.416,0l0,-128.837Z" style="fill:#0d0d0d;fill-rule:nonzero;"/><path d="M2763.44,2595.34l-33.8,0l0,49.258l33.8,0c15.258,0 25.696,-10.237 25.696,-24.725c0,-14.487 -10.438,-24.533 -25.696,-24.533Zm-8.113,63.358l-25.687,0l0,51.187l-16.038,0l0,-128.837l51.771,0c23.567,0 40.371,15.062 40.371,38.825c0,23.179 -15.842,35.925 -33.417,37.475l34.771,52.537l-18.933,0.001l-32.838,-51.188Z" style="fill:#0d0d0d;fill-rule:nonzero;"/><path d="M623.246,816.717l-238.608,-129.567l8.687,-15.996l223.271,121.242l36.508,-67.242l15.346,8.338l-45.204,83.225Z" style="fill:#0d0d0d;fill-rule:nonzero;"/><path d="M685.538,519.163l-92.6,-47.375c-10.284,-5.488 -19.726,-11.013 -28.346,-16.559c7.487,7.829 14.562,16.138 21.241,24.9l62.017,83.3l37.688,-44.266Zm107.245,54.237l-90.479,-45.575l-42.741,50.213l59.658,81.754l-12.279,14.429l-164.367,-225.788l12.163,-14.283l250.087,125.108l-12.042,14.142Z" style="fill:#0d0d0d;fill-rule:nonzero;"/><path d="M972.45,424.117l-16.308,12.3l-132.521,-69.642l-0.096,34.729l64.85,86.004l-14.529,10.963l-163.467,-216.804l14.529,-10.946l86.538,114.775c-2.109,-13.296 -9.604,-67.65 -22.471,-163.084l15.867,-11.962l17.462,136.387l150.146,77.28Z" style="fill:#0d0d0d;fill-rule:nonzero;"/><path d="M1142.89,339.321l-89.546,40.854l-112.696,-247.033l89.554,-40.855l7.246,15.888l-72.996,33.308l42.779,93.767l68.942,-31.442l7.25,15.88l-68.946,31.454l48.175,105.604l72.996,-33.296l7.242,15.871Z" style="fill:#0d0d0d;fill-rule:nonzero;"/><path d="M1469.73,273.763l-77.366,-245.638l-1.484,0.033c1.775,25.963 2.738,42.421 2.879,49.354l4.113,197.746l-17.45,0.367l-5.65,-271.471l26.925,-0.558l65.221,206.325c5.825,18.2 9.679,33.729 11.554,46.571l1.492,-0.034c1.041,-9.183 4.558,-24.733 10.537,-46.662l56.025,-209.209l27.846,-0.587l5.65,271.467l-18.192,0.383l-4.087,-196.267c-0.154,-7.666 0.108,-24.525 0.808,-50.546l-1.483,0.034l-66.729,248.262l-20.609,0.429Z" style="fill:#0d0d0d;fill-rule:nonzero;"/><path d="M1797.89,197.579l1.854,-103.996c0.429,-11.646 1.237,-22.558 2.437,-32.725c-3.746,10.15 -8.1,20.163 -13.05,30.013l-47.558,92.316l56.316,14.392Zm-1.583,120.167l1.171,-101.296l-63.875,-16.329l-47.233,89.529l-18.342,-4.696l130.579,-246.871l18.171,4.646l-2.479,279.617l-17.992,-4.6Z" style="fill:#0d0d0d;fill-rule:nonzero;"/><path d="M1977.12,245.163l22.65,11.583c14.662,7.496 28.267,8.758 40.833,3.771c12.563,-4.98 23.4,-16.4 32.542,-34.259c9.292,-18.183 11.958,-33.379 7.971,-45.562c-3.992,-12.192 -14.7,-22.738 -32.108,-31.65l-18.021,-9.209l-53.867,105.326Zm-7.608,14.883l-54.029,105.654l-16.209,-8.283l123.621,-241.75l33.071,16.912c23.591,12.071 37.996,26.454 43.221,43.171c5.212,16.713 2.154,36.15 -9.171,58.304c-8.575,16.759 -18.596,29.013 -30.071,36.767c-11.471,7.775 -25.596,10.767 -42.354,9.008l-8.025,133.979l-18.192,-9.3l8.892,-128.741l-30.754,-15.721Z" style="fill:#0d0d0d;fill-rule:nonzero;"/><path d="M2126.4,500.538l-14.088,-11.517l160.846,-196.654l-41.833,-34.217l11.058,-13.521l97.754,79.963l-11.058,13.512l-41.833,-34.217l-160.846,196.65Z" style="fill:#0d0d0d;fill-rule:nonzero;"/><path d="M2235.04,606.358l205.641,-177.283l11.883,13.779l-205.645,177.292l-11.88,-13.788Z" style="fill:#0d0d0d;fill-rule:nonzero;"/><path d="M2390.8,841.958l-11.192,-20.346l163.85,-207.312l-0.708,-1.304c-14.042,9.417 -27.896,17.883 -41.567,25.396l-170.708,93.879l-8.583,-15.621l237.904,-130.837l11.371,20.666l-161.767,205.329l0.538,0.971c17.312,-10.654 31.937,-19.258 43.866,-25.829l166.317,-91.458l8.592,15.633l-237.913,130.833Z" style="fill:#0d0d0d;fill-rule:nonzero;"/><path d="M94.296,2264.44c0,-74.788 56.542,-125.855 127.675,-125.855c55.45,0 86.458,29.188 103.604,59.459l-44.508,21.891c-10.213,-19.7 -32.1,-35.383 -59.096,-35.383c-42.313,0 -74.417,33.917 -74.417,79.888c0,45.962 32.104,79.891 74.417,79.891c26.996,0 48.883,-15.325 59.096,-35.392l44.508,21.521c-17.512,30.284 -48.154,59.829 -103.604,59.829c-71.134,0 -127.675,-51.07 -127.675,-125.85Z" style="fill:#fff;fill-rule:nonzero;"/><path d="M541.513,2283.77l-114.909,0l0,102.146l-51.8,0l0,-243.313l51.8,0l0,95.571l114.909,0l0,-95.571l52.17,0l0,243.313l-52.171,0l0,-102.146Z" style="fill:#fff;fill-rule:nonzero;"/><rect x="659.688" y="2142.6" width="51.8" height="243.313" style="fill:#fff;"/><path d="M884.021,2187.1l-54.354,0l0,67.125l54.354,0c20.796,0 36.479,-13.137 36.479,-33.562c0,-20.43 -15.683,-33.563 -36.479,-33.563Zm-16.417,111.621l-37.937,0l0,87.192l-51.8,0l0,-243.313l113.816,0c50.705,0 81.713,33.192 81.713,78.429c0,43.038 -26.996,66.021 -53.259,72.225l54.721,92.659l-59.462,-0.001l-47.792,-87.191Z" style="fill:#fff;fill-rule:nonzero;"/><path d="M1145.92,2184.55c-44.867,0 -73.688,34.288 -73.688,79.888c0.001,45.233 28.821,79.891 73.688,79.891c44.867,0 74.054,-34.658 74.054,-79.891c0,-45.6 -29.187,-79.888 -74.054,-79.888Zm0,-45.967c73.688,0 127.313,52.534 127.313,125.855c0,73.32 -53.626,125.849 -127.313,125.849c-73.325,0 -126.95,-52.529 -126.95,-125.849c0,-73.321 53.625,-125.855 126.95,-125.855Z" style="fill:#fff;fill-rule:nonzero;"/><path d="M1434.82,2187.1l-55.083,0l0,67.125l55.083,0c20.429,0 35.75,-13.137 35.75,-33.562c0,-20.071 -15.321,-33.563 -35.75,-33.563Zm-106.888,-44.5l113.821,0c52.892,0 81.709,35.746 81.709,78.429c0,42.309 -29.184,77.692 -81.709,77.692l-62.016,0l0,87.192l-51.805,0l0,-243.313Z" style="fill:#fff;fill-rule:nonzero;"/><path d="M1679.95,2187.1l-54.358,0l0,67.125l54.358,0c20.792,0 36.471,-13.137 36.471,-33.562c0,-20.43 -15.679,-33.563 -36.471,-33.563Zm-16.421,111.621l-37.937,0l0,87.192l-51.8,0l0,-243.313l113.812,0c50.708,0 81.721,33.192 81.721,78.429c0,43.038 -26.996,66.021 -53.263,72.225l54.717,92.659l-59.458,-0.001l-47.792,-87.191Z" style="fill:#fff;fill-rule:nonzero;"/><path d="M1886.76,2299.09l80.616,0l-40.125,-111.625l-40.492,111.625Zm94.846,44.871l-108.704,0l-15.325,41.95l-56.908,0l94.116,-243.313l64.938,0l93.746,243.313l-56.538,0l-15.325,-41.95Z" style="fill:#fff;fill-rule:nonzero;"/><path d="M2070.24,2264.44c0,-74.788 56.541,-125.855 127.679,-125.855c55.446,0 86.45,29.188 103.6,59.459l-44.504,21.891c-10.217,-19.7 -32.105,-35.383 -59.096,-35.383c-42.317,0 -74.421,33.917 -74.421,79.888c0,45.962 32.104,79.891 74.421,79.891c26.991,0 48.879,-15.325 59.096,-35.392l44.504,21.521c-17.509,30.284 -48.154,59.829 -103.6,59.829c-71.138,0 -127.679,-51.07 -127.679,-125.85Z" style="fill:#fff;fill-rule:nonzero;"/><path d="M2406.92,2188.2l-71.134,0l0,-45.596l194.067,0l0,45.596l-70.771,0l0,197.717l-52.162,0l0,-197.717Z" style="fill:#fff;fill-rule:nonzero;"/><rect x="2581.27" y="2142.6" width="51.8" height="243.313" style="fill:#fff;"/><path d="M2687.78,2264.44c0,-74.788 56.542,-125.855 127.675,-125.855c55.45,0 86.455,29.188 103.6,59.459l-44.504,21.891c-10.212,-19.7 -32.1,-35.383 -59.096,-35.383c-42.316,0 -74.416,33.917 -74.416,79.888c0,45.962 32.1,79.891 74.416,79.891c26.996,0 48.884,-15.325 59.096,-35.392l44.504,21.521c-17.508,30.284 -48.15,59.829 -103.6,59.829c-71.133,0 -127.675,-51.07 -127.675,-125.85Z" style="fill:#fff;fill-rule:nonzero;"/><path d="M1593.54,1966.03c-23.113,-5.142 -12.955,-22.883 -14.584,-26.025c-2.25,-4.325 -9.295,1.629 -12.4,1.546c-3.683,-0.1 -10.712,-3.821 -11.333,-7.909c-1.925,-12.679 5.9,-13.491 5.9,-13.491c0,0 3.746,1.004 6.962,-3.158c3.213,-4.163 0.234,-12.305 4.009,-12.992c14.029,-2.542 4.554,16.546 7.804,19.175c3.242,2.629 4.825,-5.121 10.175,-7.317c2.637,-1.083 6.062,9.188 7.804,10.984c3.183,3.283 7.429,5.787 6.854,11.029c-0.666,5.983 -3.25,11.8 -5.433,17.346c-0.283,0.725 -0.5,1.833 -0.738,3.07c-0.704,3.684 -1.595,8.5 -5.02,7.742Zm47.433,-54.133c-36.596,-6.85 -20.513,-30.504 -23.096,-34.692c-3.475,-5.637 -12.216,1.188 -16.417,1.696c-6.254,0.754 -19.854,-2.979 -21.158,-10.179c-3.042,-16.909 9.338,-17.992 9.338,-17.992c0,0 5.933,1.338 11.025,-4.212c5.095,-5.546 0.37,-16.409 6.345,-17.325c22.217,-3.396 7.217,22.066 12.359,25.57c5.137,3.505 7.637,-6.829 16.112,-9.758c4.963,-1.712 7.263,9.488 9.5,11.963c4.913,5.425 14.942,7.904 13.709,17.387c-1.063,8.125 -5.363,15.513 -8.48,22.946c-0.47,1.117 -0.85,2.671 -1.27,4.354c-1.246,5.025 -2.825,11.2 -7.967,10.242Zm41.404,-67.434c-49.542,-10.929 -29.4,-39.008 -33.121,-44.345c-5.162,-7.4 -19.871,1.395 -27.012,0.729c-7.542,-0.704 -21.842,-5.121 -23.95,-13.75c-5.121,-21.05 11.433,-21.546 11.433,-21.546c0,0 8.046,2.058 14.542,-4.442c6.496,-6.496 -0.513,-20.212 7.458,-20.929c29.613,-2.675 11.038,27.696 18.154,32.363c7.113,4.675 9.834,-7.892 21.03,-10.934c6.345,-1.721 12.795,15.309 17.425,18.921c6.554,5.117 16.466,8.792 15.529,18.854c-0.934,9.984 -6.242,19.509 -10.359,28.463c-0.562,1.216 -0.987,2.762 -1.404,4.416c-1.525,6.096 -2.85,13.713 -9.725,12.2Zm-126.996,-1430.27c-17.4,-0.725 -10.12,-14.509 -11.4,-16.521c-1.571,-2.467 -7.512,2.196 -7.512,2.196c0,0 -9.529,0.691 -10.375,-3.705c-1.675,-8.7 4.167,-10.254 4.167,-10.254c0,0 2.825,0.238 5.158,-3.1c2.329,-3.337 -0.054,-8.708 2.758,-9.662c10.458,-3.559 3.721,11.096 6.196,12.537c2.483,1.45 3.521,-4.212 7.492,-6.437c2.066,-1.154 4.266,5.308 4.266,5.308c0,0 7.555,3.404 7.113,8.383c-0.433,4.842 -4.608,15.163 -4.608,15.163c0,0 0.204,6.229 -3.255,6.092Zm-12.637,66.558c-27.004,-1.008 -15.708,-20.308 -17.692,-23.125c-3.379,-4.788 -24.766,11.858 -27.766,-2.108c-2.596,-12.18 6.47,-14.359 6.47,-14.359c0,0 4.384,0.334 8.005,-4.337c3.612,-4.675 -0.084,-12.196 4.283,-13.534c16.233,-4.983 5.767,15.534 9.621,17.559c3.846,2.025 5.458,-5.904 11.616,-9.013c3.213,-1.621 6.625,7.434 6.625,7.434c0,0 11.73,4.758 11.038,11.729c-0.671,6.783 -7.15,21.229 -7.15,21.229c0,0 0.317,8.725 -5.05,8.525Zm-11.958,94.642c-53.234,-1.692 -30.967,-34 -34.875,-38.713c-5.28,-6.358 -22.196,4.8 -29.159,5.371c-7.283,0.592 -23.225,0.4 -25.566,-8.908c-5.117,-20.392 12.75,-24.038 12.75,-24.038c0,0 8.641,0.563 15.77,-7.262c7.134,-7.825 -0.162,-20.413 8.446,-22.655c31.996,-8.333 11.375,26.009 18.963,29.396c7.583,3.392 10.762,-9.883 22.9,-15.087c5.575,-2.392 14.462,13 19.771,15.916c6.62,3.642 16.133,6.8 15.045,16.159c-1.27,10.858 -7.47,20.383 -11.429,30.321c-0.616,1.554 -1.1,3.47 -1.608,5.491c-1.642,6.567 -3.534,14.238 -11.008,14.009Zm-16.071,103.816c-79.3,9.263 -53.967,-39.129 -60.879,-44.629c-10.525,-8.375 -30.046,11.754 -40.392,14.225c-10.013,2.396 -35.909,4.871 -41.567,-7.125c-12.429,-26.379 13.196,-35.171 13.196,-35.171c0,0 12.942,-1.121 21.654,-13.212c8.713,-12.096 -5.087,-27.484 7.138,-32.375c45.45,-18.175 23.033,32.596 35.083,35.521c12.05,2.925 13.608,-15.655 30.363,-25.309c7.816,-4.504 15.72,7.05 20.329,11.409c6.571,6.208 14.846,5.054 22.804,8.466c6.608,2.834 15.7,7.563 16.087,15.821c0.675,14.388 -5.287,29.513 -9.65,42.975c-0.779,2.404 -1.187,5.225 -1.545,8.158c-1.159,9.434 -1.796,19.98 -12.621,21.246Zm-16.017,118.654c-100.008,27.38 -77.992,-35.929 -88.092,-41.116c-10.4,-5.342 -25.72,8.633 -32.812,14.746c-11.679,10.054 -23.425,12.104 -38.396,14.637c-9.071,1.533 -26.071,4.804 -32.7,-4.058c-21.754,-29.134 9.292,-44.938 9.292,-44.938c0,0 16.408,-3.996 24.971,-20.312c8.566,-16.313 -12.555,-31.963 2.112,-40.338c54.504,-31.15 36.763,34.421 52.904,35.467c16.146,1.042 14.092,-21.596 33.542,-36.621c8.583,-6.633 21.367,4.329 28.108,9.083c9.592,6.763 20.092,3.455 30.992,5.775c8.904,1.9 22.479,5.513 24.904,15.871c3.963,16.892 -0.225,36.463 -2.979,53.254c-0.525,3.196 -0.483,6.784 -0.35,10.463c0.429,11.767 1.792,24.446 -11.496,28.087Zm-1.887,132.271c-111.967,45.85 -92.384,-12.008 -106.409,-14.912c-14.321,-2.967 -27.858,19.437 -34.246,29.171c-10.666,16.254 -24.162,23.787 -41.391,32.283c-10.492,5.175 -30.592,15.583 -41.763,6.779c-36.35,-28.633 -4.091,-59.296 -4.091,-59.296c0,0 18.537,-10.775 23.35,-34.133c4.816,-23.358 -26.155,-35.417 -11.23,-51.033c55.475,-58.063 56.371,29.937 76.309,25.545c19.941,-4.395 13.075,-25.308 31.533,-50.908c6.492,-8.996 20.271,-2.221 27.6,1.9c3.608,2.033 7.258,5.683 11.338,6.188c4.791,0.587 10.145,-2.655 14.787,-3.517c7.25,-1.342 14.483,-2.458 21.846,-2.933c11.508,-0.738 30.075,-1.125 36.517,10.85c11.637,21.629 12.854,70.82 12.854,70.82c0,0 7.225,23.275 -17.004,33.196Zm244.875,816.8c-75.134,14.117 -58.246,-30.362 -65.78,-34.679c-10.387,-5.946 -29.045,12.338 -39.462,15.458c-10.296,3.088 -30.829,7.65 -38.579,-3.037c-16.129,-22.271 7.237,-31.933 7.237,-31.933c0,0 12.325,-1.963 18.842,-13.255c6.521,-11.3 -9.213,-23.795 1.829,-29.02c41.046,-19.409 27.346,26.941 39.438,28.608c12.095,1.671 10.695,-14.8 25.366,-24.554c5.85,-3.888 14.259,3 18.725,6.275c4.984,3.646 8.771,5.504 14.959,6.55c10.316,1.75 26.12,1.221 29.095,14.121c2.946,12.766 -0.762,26.954 -2.833,39.566c-0.312,1.909 -0.329,4.017 -0.267,6.184c0.246,8.441 1.688,17.783 -8.57,19.716Zm8.166,-117.916c-86.016,33.866 -78.787,-21.48 -89.096,-24.713c-10.345,-3.242 -21.445,9.846 -27.533,16.483c-8.9,9.7 -19.867,12.48 -32.242,16.013c-8.433,2.408 -22.541,6.6 -30.229,0.079c-9.325,-7.917 -15.133,-20.604 -7.675,-31.825c7.067,-10.629 21.617,-13.079 25.738,-26.533c4.454,-14.559 -18.034,-25.313 -6.325,-33.921c43.562,-32.021 40.712,24.746 55.712,23.854c15,-0.9 8.488,-19.6 23.238,-34.304c5.608,-5.588 17.137,-0.358 22.983,2.25c6.892,3.079 12.063,4.783 19.75,4.629c13.333,-0.275 32.867,-5.158 40.5,9.613c6.721,13.008 7.158,29.85 8.125,44.162c0.192,2.833 1.038,5.996 1.967,9.25c2.825,9.854 6.446,20.492 -4.913,24.963Zm-17.25,-147.563c-84.896,67.192 -95.6,2.646 -108.254,2.517c-12.171,-0.117 -20.162,17.15 -24.521,26.254c-6.741,14.079 -17.45,21.271 -30.183,29.742c-10.354,6.883 -22.242,14.82 -35.192,11.075c-10.341,-2.992 -20.112,-12.58 -20.741,-23.859c-0.3,-5.383 2.208,-15.633 6.958,-19.183c0.037,-0.025 14.183,-10.613 14.287,-28.479c0.105,-17.888 -28.82,-22.321 -18.612,-35.963c37.946,-50.716 54.037,13.946 70.546,7.846c16.508,-6.1 2.854,-24.875 14.391,-46.367c3.992,-7.445 16.625,-6.245 23.538,-5.595c3.937,0.37 8.004,1.733 11.912,1.891c5.567,0.225 9.55,-2.546 14.7,-4.333c5.588,-1.942 11.217,-3.696 17.009,-4.958c9.495,-2.075 24.041,-4.684 31.725,3.225c11.496,11.833 17.516,29.637 23.325,44.729c1.383,3.583 3.916,7.504 6.504,11.554c6.554,10.254 13.425,21.337 2.608,29.904Zm-29.854,-148.783c-87.692,84.725 -110.921,17.487 -125.683,19.296c-13.534,1.658 -20.142,20.279 -23.971,31.195c-5.704,16.275 -16.979,25.763 -29.979,36.505c-9.763,8.058 -25.621,21.154 -39.479,17.675c-45.13,-11.33 -23.334,-43.83 -23.334,-43.83c0,0 14.754,-13.483 11.892,-32.587c-2.858,-19.1 -37.292,-19.388 -27.675,-35.513c35.746,-59.937 65.271,6.592 83.483,-2.45c18.213,-9.041 -0.821,-26.979 9.034,-51.687c3.608,-9.046 19.304,-9.329 27.245,-9.613c4.575,-0.162 9.38,0.638 13.9,0.284c6.85,-0.534 11.659,-4.988 17.705,-7.767c6.125,-2.812 12.291,-5.462 18.7,-7.579c10.47,-3.463 26,-7.992 36.004,-0.917c6.808,4.817 12.546,11.763 17.521,18.359c8.991,11.937 15.4,25.72 24.358,37.57l0.642,0.813c8.025,9.871 23.562,16.792 9.637,30.246Zm-90.621,-168.721c9.592,11.137 26.65,20.271 12.054,35.896c-94.8,101.454 -119.916,20.937 -135.87,23.104c-15.042,2.042 -22,24.787 -25.775,36.846c-6.192,19.779 -18.117,31.596 -33.496,45.05c-10.096,8.829 -26.713,24.512 -41.734,20.337c-48.783,-13.566 -25.22,-52.487 -25.22,-52.487c0,0 15.945,-16.142 12.854,-39.017c-3.092,-22.875 -40.317,-23.221 -29.917,-42.529c38.642,-71.771 70.563,7.892 90.25,-2.933c19.683,-10.825 -3.083,-24.621 7.571,-54.209c3.667,-10.2 21.625,-9.904 30.179,-9.95c5.838,-0.029 11.621,0.792 17.429,0.879c8.079,0.117 11.429,-3.808 17.55,-8.516c6.217,-4.788 12.542,-9.396 19.313,-13.396c10.55,-6.242 28.754,-16.533 40.483,-7.346c7.9,6.188 13.75,15 19.033,23.379c8.563,13.567 13.771,30.384 23.73,42.988c0.508,0.646 1.033,1.283 1.566,1.904Zm-51.221,-125.338c2.192,9.959 -2.341,18.492 -10.129,24.659c-115.879,91.837 -113.312,8.029 -129.425,8.029c-15.929,0 -25.7,25.65 -30.617,37.487c-8.2,19.75 -21.641,31.709 -38.366,44.571c-10.509,8.084 -30.542,23.55 -44.846,16.634c-46.55,-22.509 -17.975,-62.334 -17.975,-62.334c0,0 17.975,-15.583 17.975,-41.554c0,-25.971 -36.862,-31.992 -23.967,-51.946c47.929,-74.166 68.9,19.479 89.867,10.388c20.971,-9.088 9.229,-25.596 23.754,-56.967c5.1,-11.025 22.321,-7.183 31.342,-4.825c6.129,1.6 11.079,4.983 17.608,3.654c5.458,-1.108 9.996,-4.991 15.109,-7.025c7.554,-3 15.145,-5.846 23.024,-7.9c12.255,-3.191 31.921,-7.587 41.609,3.613c10.216,11.812 15.708,27.779 20.3,42.462c1.971,6.304 3.383,12.738 5.212,19.067c0.73,2.537 1.825,4.937 3.021,7.287c2.45,4.813 5.346,9.442 6.504,14.7Zm592.292,130.734c0,357.071 -289.454,646.529 -646.525,646.529c-357.067,0 -646.529,-289.458 -646.529,-646.529c0,-357.067 289.462,-646.529 646.529,-646.529c357.071,0 646.525,289.462 646.525,646.529Z" style="fill:#0d0d0d;"/></svg>