<?xml version="1.0" encoding="UTF-8" standalone="no"?><!DOCTYPE svg PUBLIC "-//W3C//DTD SVG 1.1//EN" "http://www.w3.org/Graphics/SVG/1.1/DTD/svg11.dtd"><svg width="100%" height="100%" viewBox="0 0 2389 593" version="1.1" xmlns="http://www.w3.org/2000/svg" xmlns:xlink="http://www.w3.org/1999/xlink" xml:space="preserve" xmlns:serif="http://www.serif.com/" style="fill-rule:evenodd;clip-rule:evenodd;stroke-linejoin:round;stroke-miterlimit:2;"><g><path d="M68.799,157.177c41.236,0 76.178,-35.117 76.178,-80.163c0,-38.991 -25.826,-76.772 -68.582,-76.772c-35.159,0 -76.395,25.914 -76.395,78.468c0,42.624 27.129,78.467 68.799,78.467Zm7.596,-5.086c-35.593,0 -59.901,-36.085 -59.901,-81.858c0,-39.718 18.665,-64.421 50.786,-64.421c37.329,0 61.203,32.453 61.203,77.983c0,44.078 -23.005,68.296 -52.088,68.296Z" style="fill:#fff;fill-rule:nonzero;"/><path d="M347.251,151.365c-18.448,0 -36.244,-19.617 -71.838,-77.015c14.759,-7.75 24.959,-22.523 24.959,-40.202c0,-19.133 -12.588,-31.968 -35.81,-31.968c-8.03,0 -21.486,1.453 -30.385,1.453c-9.549,0 -18.447,-0.727 -25.392,-0.727c-0.868,0 -0.868,2.906 0,2.906c15.843,0 18.447,2.907 18.447,16.711l0,112.131c0,14.047 -3.038,16.711 -18.881,16.711c-0.651,0 -0.651,2.906 0,2.906c7.162,0 16.277,-0.485 25.826,-0.485c10.201,0 18.448,0.485 25.61,0.485c0.868,0 0.868,-2.906 0,-2.906c-16.06,0 -18.448,-2.664 -18.448,-16.711l0,-54.976c2.822,0.243 6.946,0.727 9.767,0.727c4.124,0 8.247,-0.484 12.154,-1.453c27.563,46.741 48.832,75.319 55.994,75.319l27.997,0c0.651,0 0.651,-2.906 0,-2.906Zm-105.912,-77.499l0,-50.859c0,-14.531 4.341,-17.195 14.976,-17.195c18.013,0 29.299,8.961 29.299,35.359c0,22.039 -8.247,33.664 -31.47,33.664c-3.689,0 -8.681,-0.243 -12.805,-0.969Z" style="fill:#fff;fill-rule:nonzero;"/><path d="M431.676,134.654l0,-111.647c0,-13.804 2.822,-17.195 18.448,-17.195c0.868,0 0.868,-2.906 0,-2.906c-6.728,0 -15.409,0.727 -25.827,0.727c-9.766,0 -18.664,-0.727 -25.609,-0.727c-0.869,0 -0.869,2.906 0,2.906c15.843,0 18.664,2.907 18.664,16.711l0,112.131c0,14.047 -2.821,16.711 -18.664,16.711c-0.869,0 -0.869,2.906 0,2.906c6.945,0 15.843,-0.485 25.609,-0.485c10.418,0 18.882,0.485 25.827,0.485c0.868,0 0.868,-2.906 0,-2.906c-15.843,0 -18.448,-2.664 -18.448,-16.711Z" style="fill:#fff;fill-rule:nonzero;"/><path d="M592.497,157.177c14.324,0 31.036,-2.906 46.011,-6.539c1.953,-0.727 2.387,-0.969 2.387,-2.906c0,-3.875 -1.519,-5.086 -1.519,-21.312c0,-25.672 0.651,-28.578 10.852,-28.336c1.519,0 1.302,-3.39 0,-3.39c-16.712,0.968 -30.385,0.968 -48.833,-0.485c-1.519,0 -1.519,3.875 0.217,3.875c23.006,0 24.742,2.664 24.742,25.914c0,21.554 -7.379,29.546 -27.997,29.546c-45.143,0 -67.063,-39.718 -67.063,-79.436c0,-43.109 26.478,-69.991 60.552,-69.991c26.261,0 39.283,16.469 45.143,39.718c0.434,1.211 2.604,0.727 2.604,-0.242l-2.604,-28.578c-0.217,-3.875 -0.217,-3.875 -2.388,-5.328c-9.115,-6.054 -23.222,-9.445 -38.631,-9.445c-45.794,0 -81.387,29.547 -81.387,77.499c0,43.108 28.648,79.436 77.914,79.436Z" style="fill:#fff;fill-rule:nonzero;"/><path d="M745.505,134.654l0,-111.647c0,-13.804 2.821,-17.195 18.447,-17.195c0.868,0 0.868,-2.906 0,-2.906c-6.728,0 -15.409,0.727 -25.826,0.727c-9.767,0 -18.665,-0.727 -25.61,-0.727c-0.868,0 -0.868,2.906 0,2.906c15.843,0 18.665,2.907 18.665,16.711l0,112.131c0,14.047 -2.822,16.711 -18.665,16.711c-0.868,0 -0.868,2.906 0,2.906c6.945,0 15.843,-0.485 25.61,-0.485c10.417,0 18.881,0.485 25.826,0.485c0.868,0 0.868,-2.906 0,-2.906c-15.843,0 -18.447,-2.664 -18.447,-16.711Z" style="fill:#fff;fill-rule:nonzero;"/><path d="M970.567,2.906c-5.643,0 -12.805,0.727 -19.75,0.727c-7.379,0 -13.239,-0.727 -19.099,-0.727c-0.651,0 -0.651,2.906 0,2.906c11.937,0 16.494,7.024 16.494,23.734l0,100.506l-83.557,-114.552c-6.728,-9.203 -6.511,-12.594 -10.2,-12.594c-2.388,0 -7.162,0.485 -12.588,0.485c-4.341,0 -10.201,-0.485 -15.192,-0.485c-0.869,0 -0.869,2.906 0,2.906c5.208,0 10.634,1.938 17.145,8.719l0,113.342c0,16.71 -4.558,23.492 -17.145,23.492c-0.652,0 -0.652,2.906 0,2.906c5.859,0 12.804,-0.485 19.966,-0.485c7.38,0 13.456,0.485 19.099,0.485c0.868,0 0.868,-2.906 0,-2.906c-11.936,0 -16.928,-6.782 -16.928,-23.492l0,-107.53c0.651,0.727 1.302,1.454 1.953,2.422l99.835,134.896c0.651,0.485 2.604,0.243 2.604,-0.484l0,-127.631c0,-16.71 5.209,-23.734 17.363,-23.734c0.868,0 0.868,-2.906 0,-2.906Z" style="fill:#fff;fill-rule:nonzero;"/><path d="M1170.67,151.365c-9.332,0 -14.975,-6.055 -24.959,-30.273l-51.219,-120.365c-0.217,-0.969 -2.387,-0.969 -2.821,0l-45.794,120.607c-9.116,23.976 -14.975,30.031 -26.695,30.031c-1.302,0 -1.302,2.906 0,2.906c8.898,0 13.456,-0.969 23.873,-0.969c11.069,0 16.929,0.969 25.61,0.969c1.302,0 1.302,-2.906 0,-2.906c-18.882,0 -25.61,-7.992 -18.231,-27.851l13.673,-35.844l51.654,0l19.316,45.773c5.86,14.047 2.821,17.922 -12.588,17.922c-1.302,0 -1.302,2.906 0,2.906c8.03,0 13.673,-0.969 22.788,-0.969c8.031,0 17.146,0.969 25.393,0.969c1.085,0 1.085,-2.906 0,-2.906Zm-104.826,-68.538l22.571,-59.82l25.393,59.82l-47.964,0Z" style="fill:#fff;fill-rule:nonzero;"/><path d="M1254.88,22.765c0,-13.804 2.821,-16.953 18.447,-16.953c0.868,0 0.868,-2.906 0,-2.906c-6.728,0 -15.626,0.727 -25.61,0.727c-9.549,0 -18.447,-0.727 -25.392,-0.727c-0.651,0 -0.651,2.906 0,2.906c15.843,0 18.447,2.907 18.447,16.711l0,112.131c0,14.047 -2.604,16.711 -18.447,16.711c-0.651,0 -0.651,2.906 0,2.906l100.268,0c2.605,0 3.256,-0.969 3.256,-3.633c0,-10.414 1.085,-24.218 1.953,-33.179c0,-0.969 -2.387,-1.211 -2.387,-0.242c-3.039,19.132 -12.588,31.968 -29.516,31.968l-23.657,0c-14.758,0 -17.362,-2.18 -17.362,-15.5l0,-110.92Z" style="fill:#fff;fill-rule:nonzero;"/><path d="M1556.55,157.177c14.324,0 31.035,-2.906 46.011,-6.539c1.953,-0.727 2.387,-0.969 2.387,-2.906c0,-3.875 -1.519,-5.086 -1.519,-21.312c0,-25.672 0.651,-28.578 10.851,-28.336c1.52,0 1.303,-3.39 0,-3.39c-16.711,0.968 -30.384,0.968 -48.832,-0.485c-1.519,0 -1.519,3.875 0.217,3.875c23.006,0 24.742,2.664 24.742,25.914c0,21.554 -7.379,29.546 -27.997,29.546c-45.143,0 -67.063,-39.718 -67.063,-79.436c0,-43.109 26.478,-69.991 60.552,-69.991c26.261,0 39.283,16.469 45.142,39.718c0.434,1.211 2.605,0.727 2.605,-0.242l-2.605,-28.578c-0.217,-3.875 -0.217,-3.875 -2.387,-5.328c-9.115,-6.054 -23.222,-9.445 -38.632,-9.445c-45.793,0 -81.387,29.547 -81.387,77.499c0,43.108 28.649,79.436 77.915,79.436Z" style="fill:#fff;fill-rule:nonzero;"/><path d="M1814.6,151.365c-18.448,0 -36.245,-19.617 -71.838,-77.015c14.758,-7.75 24.959,-22.523 24.959,-40.202c0,-19.133 -12.588,-31.968 -35.81,-31.968c-8.031,0 -21.487,1.453 -30.385,1.453c-9.549,0 -18.448,-0.727 -25.393,-0.727c-0.868,0 -0.868,2.906 0,2.906c15.844,0 18.448,2.907 18.448,16.711l0,112.131c0,14.047 -3.038,16.711 -18.882,16.711c-0.651,0 -0.651,2.906 0,2.906c7.162,0 16.278,-0.485 25.827,-0.485c10.201,0 18.448,0.485 25.61,0.485c0.868,0 0.868,-2.906 0,-2.906c-16.06,0 -18.448,-2.664 -18.448,-16.711l0,-54.976c2.822,0.243 6.945,0.727 9.767,0.727c4.123,0 8.247,-0.484 12.153,-1.453c27.563,46.741 48.833,75.319 55.995,75.319l27.997,0c0.651,0 0.651,-2.906 0,-2.906Zm-105.912,-77.499l0,-50.859c0,-14.531 4.341,-17.195 14.975,-17.195c18.014,0 29.3,8.961 29.3,35.359c0,22.039 -8.247,33.664 -31.47,33.664c-3.689,0 -8.681,-0.243 -12.805,-0.969Z" style="fill:#fff;fill-rule:nonzero;"/><path d="M2007.55,151.365c-9.332,0 -14.975,-6.055 -24.959,-30.273l-51.219,-120.365c-0.217,-0.969 -2.387,-0.969 -2.821,0l-45.794,120.607c-9.116,23.976 -14.975,30.031 -26.695,30.031c-1.302,0 -1.302,2.906 0,2.906c8.898,0 13.456,-0.969 23.873,-0.969c11.069,0 16.929,0.969 25.61,0.969c1.302,0 1.302,-2.906 0,-2.906c-18.882,0 -25.61,-7.992 -18.231,-27.851l13.673,-35.844l51.654,0l19.316,45.773c5.86,14.047 2.821,17.922 -12.588,17.922c-1.302,0 -1.302,2.906 0,2.906c8.03,0 13.673,-0.969 22.788,-0.969c8.031,0 17.146,0.969 25.393,0.969c1.085,0 1.085,-2.906 0,-2.906Zm-104.826,-68.538l22.571,-59.82l25.393,59.82l-47.964,0Z" style="fill:#fff;fill-rule:nonzero;"/><path d="M2138.2,0.242c-45.142,0 -78.565,31 -78.565,77.257c0,47.71 32.555,79.92 78.565,79.92c16.712,0 28.649,-2.664 43.841,-10.898c1.736,-1.211 1.953,-1.453 2.387,-5.328l2.17,-26.64c0,-0.727 -2.387,-1.211 -2.604,-0.242c-7.596,26.155 -21.92,39.233 -45.794,39.233c-33.64,0 -61.854,-33.663 -61.854,-76.53c0,-44.561 24.308,-73.139 61.203,-73.139c23.657,0 38.198,13.804 44.709,40.445c0.434,1.21 2.604,0.484 2.604,-0.243l-2.604,-28.819c-0.434,-3.875 -0.434,-4.118 -2.388,-5.328c-12.37,-7.024 -23.439,-9.688 -41.67,-9.688Z" style="fill:#fff;fill-rule:nonzero;"/><path d="M2344.38,118.185c-3.039,19.133 -12.805,31 -26.695,31l-17.363,0c-14.107,0 -16.928,-2.664 -16.928,-15.5l0,-55.702l25.827,0c14.541,0 20.183,5.812 20.183,19.859c0,0.727 2.605,0.727 2.605,0c0,-8.234 -0.434,-14.773 -0.434,-22.281c0,-6.054 0.217,-9.929 0.217,-19.617c0,-0.726 -2.605,-0.726 -2.605,0c0,12.11 -5.425,16.953 -19.315,16.953l-26.478,0l0,-49.163c0,-12.836 3.038,-15.742 17.579,-15.742l13.239,0c13.673,0 22.789,9.93 23.657,27.125c0.217,0.968 2.387,0.726 2.387,-0.243l-0.434,-29.788c0,-1.453 -0.434,-2.18 -1.953,-2.18l-87.247,0c-0.651,0 -0.651,2.906 0,2.906c15.843,0 18.665,2.907 18.665,16.711l0,112.131c0,14.047 -2.822,16.711 -18.665,16.711c-0.651,0 -0.651,2.906 0,2.906l90.936,0c2.605,0 3.473,-0.969 3.473,-3.633c0,-10.172 0.868,-23.492 1.953,-31.968c0,-0.969 -2.387,-1.453 -2.604,-0.485Z" style="fill:#fff;fill-rule:nonzero;"/><path d="M789.522,340.889c5.28,0.503 9.555,-0.252 12.823,-2.263c7.795,-4.526 15.653,-8.863 23.573,-13.012c7.92,-4.149 15.526,-8.738 22.818,-13.766c9.303,-6.538 18.355,-13.327 27.155,-20.367c8.801,-7.04 16.595,-15.338 23.384,-24.893c2.515,-2.514 4.652,-5.783 6.412,-9.806c2.514,-6.034 3.08,-11.943 1.697,-17.726c-1.383,-5.783 -4.589,-10.812 -9.617,-15.086c-8.046,-6.789 -17.601,-11.19 -28.664,-13.201c-8.298,-1.257 -16.595,-1.949 -24.893,-2.074c-8.297,-0.126 -16.721,0.691 -25.27,2.451c-19.612,4.275 -38.281,10.498 -56.008,18.67c-17.726,8.171 -34.635,18.669 -50.728,31.492c-8.548,7.041 -15.84,15.087 -21.875,24.138c-0.503,1.258 -1.005,2.389 -1.508,3.395c-0.503,1.006 -1.006,2.263 -1.509,3.771c-0.503,0.755 -0.943,1.635 -1.32,2.641c-0.377,1.005 -1.32,1.508 -2.829,1.508c-0.754,-2.766 -0.691,-5.531 0.189,-8.297c0.88,-2.766 1.948,-5.281 3.206,-7.543c4.023,-5.784 8.171,-11.001 12.446,-15.653c4.274,-4.651 8.926,-9.114 13.955,-13.389c10.057,-8.046 20.618,-15.086 31.681,-21.121c11.063,-6.034 22.504,-11.189 34.322,-15.463c5.028,-1.76 9.994,-3.52 14.897,-5.28c4.903,-1.76 9.869,-3.269 14.898,-4.526c9.052,-2.263 18.041,-3.709 26.967,-4.338c8.926,-0.628 18.041,-0.314 27.344,0.943c6.789,1.006 13.452,2.515 19.989,4.526c6.538,2.012 12.447,5.406 17.727,10.184c5.783,4.525 9.555,10.246 11.315,17.16c1.76,6.915 1.634,14.018 -0.377,21.31c-2.012,5.531 -4.464,10.434 -7.355,14.709c-2.892,4.274 -6.223,8.423 -9.995,12.446c-3.52,3.52 -7.103,6.978 -10.749,10.372c-3.646,3.394 -7.354,6.475 -11.126,9.24c-8.046,7.041 -16.406,13.39 -25.081,19.047c-8.675,5.657 -17.538,11 -26.59,16.029c-1.76,0.503 -3.017,1.76 -3.771,3.772l5.28,0.377c6.537,0.503 12.949,1.32 19.235,2.451c6.286,1.132 12.698,2.829 19.235,5.092c5.783,2.012 10.812,4.84 15.086,8.486c4.275,3.646 7.795,7.732 10.561,12.258c2.766,4.526 4.84,9.366 6.223,14.52c1.383,5.155 2.2,10.121 2.452,14.898c0.502,10.058 -0.692,19.675 -3.583,28.853c-2.892,9.177 -6.475,18.166 -10.749,26.967c-5.784,11.566 -13.39,23.258 -22.819,35.076c-9.429,11.817 -19.675,23.006 -30.738,33.567c-11.063,10.56 -22.567,20.052 -34.51,28.475c-11.943,8.423 -23.321,14.898 -34.133,19.424c-9.052,3.52 -17.915,5.783 -26.59,6.789c-8.674,1.005 -16.469,0.251 -23.384,-2.263c-6.914,-2.515 -12.634,-6.978 -17.16,-13.389c-4.526,-6.412 -7.041,-15.401 -7.543,-26.967c-0.503,-9.303 -0.252,-18.481 0.754,-27.533c1.006,-9.052 2.389,-17.978 4.149,-26.778c4.526,-20.115 10.497,-39.476 17.915,-58.083c7.417,-18.606 16.029,-36.835 25.835,-54.688c2.514,-4.526 5.029,-8.989 7.543,-13.389c2.515,-4.4 5.029,-8.989 7.543,-13.766c9.555,-16.595 19.487,-32.813 29.796,-48.654c10.309,-15.84 21.372,-31.429 33.19,-46.767c1.76,-2.012 3.457,-4.086 5.092,-6.223c1.634,-2.138 3.331,-4.338 5.091,-6.601c0.252,-0.503 0.692,-1.005 1.32,-1.508c0.629,-0.503 1.195,-0.755 1.698,-0.755c1.257,0.503 1.885,1.195 1.885,2.075c0,0.88 -0.125,1.697 -0.377,2.451c-0.503,3.52 -1.068,6.852 -1.697,9.995c-0.629,3.143 -2.326,5.972 -5.092,8.486c-0.754,1.006 -1.257,2.263 -1.508,3.772c-4.778,13.075 -9.304,26.149 -13.578,39.224c-4.275,13.075 -8.549,26.401 -12.823,39.979c-0.252,0.251 -0.629,1.634 -1.132,4.149Zm23.007,-86.747c-0.252,-0.251 -0.377,-0.377 -0.377,-0.377l-3.772,4.149c-20.367,27.658 -38.973,56.197 -55.82,85.615c-4.023,6.789 -7.857,13.64 -11.503,20.555c-3.646,6.915 -7.229,13.892 -10.749,20.932c-6.034,11.818 -11.818,23.824 -17.349,36.019c-5.532,12.195 -9.932,25.081 -13.201,38.659c-2.011,8.549 -4.148,17.098 -6.411,25.647c-2.263,8.549 -3.646,17.349 -4.149,26.401c-0.503,6.537 -0.692,12.886 -0.566,19.046c0.126,6.161 1.069,12.384 2.829,18.67c2.514,6.034 6.034,10.686 10.56,13.955c4.526,3.268 9.492,5.405 14.898,6.411c5.406,1.006 10.938,1.132 16.595,0.377c5.657,-0.754 11,-2.137 16.029,-4.148c15.589,-6.286 30.487,-14.332 44.694,-24.139c14.206,-9.806 27.218,-20.806 39.035,-33.001c11.818,-12.195 22.316,-25.521 31.493,-39.979c9.178,-14.458 16.658,-29.481 22.441,-45.07c3.017,-8.801 3.646,-17.852 1.886,-27.156c-1.76,-9.554 -4.966,-17.915 -9.618,-25.081c-4.651,-7.166 -11.754,-12.257 -21.309,-15.275c-14.584,-5.028 -29.67,-7.543 -45.259,-7.543c-4.526,0 -8.863,0.314 -13.012,0.943c-4.149,0.629 -8.235,2.2 -12.258,4.715c-1.508,1.005 -2.703,1.948 -3.583,2.828c-0.88,0.88 -1.446,2.075 -1.697,3.583c-1.006,3.269 -1.949,6.475 -2.829,9.618c-0.88,3.143 -1.948,6.349 -3.206,9.617c-3.771,12.321 -7.668,24.516 -11.691,36.585c-4.023,12.069 -7.921,24.515 -11.692,37.338c-3.52,11.818 -6.412,23.824 -8.675,36.019c-2.263,12.195 -3.52,24.704 -3.772,37.527c0,3.269 -1.383,4.652 -4.148,4.149c-1.006,-1.76 -1.572,-2.954 -1.698,-3.583c-0.125,-0.628 0.063,-2.074 0.566,-4.337c0.252,-7.292 1.006,-14.584 2.263,-21.875c2.012,-14.584 4.903,-28.79 8.675,-42.619c3.771,-13.829 7.92,-27.659 12.446,-41.488c3.017,-8.549 5.909,-17.161 8.675,-25.835c2.766,-8.675 5.531,-17.287 8.297,-25.836c0.252,-2.011 0.754,-4.023 1.509,-6.034c-4.778,1.509 -9.366,3.143 -13.766,4.903c-4.401,1.76 -8.738,3.143 -13.012,4.149c-0.503,-2.766 -0.692,-4.526 -0.566,-5.281c0.126,-0.754 1.068,-1.76 2.828,-3.017c1.761,-1.006 2.892,-2.514 3.395,-4.526c2.263,-4.274 4.903,-7.731 7.92,-10.372c3.018,-2.64 6.915,-3.96 11.692,-3.96c1.257,0 2.515,-0.125 3.772,-0.377c1.257,-0.251 2.388,-0.503 3.394,-0.754c5.029,-14.332 9.995,-28.79 14.898,-43.373c4.903,-14.584 9.869,-29.042 14.898,-43.374Zm-36.962,97.684c0,-0.502 -0.251,-0.88 -0.754,-1.131c-4.777,-1.257 -8.172,0.629 -10.183,5.657c1.76,-1.005 3.583,-1.823 5.468,-2.451c1.886,-0.629 3.709,-1.32 5.469,-2.075Z" style="fill:#fff;fill-rule:nonzero;"/><path d="M946.42,366.913c0.503,2.011 0.44,3.52 -0.188,4.526c-0.629,1.005 -1.32,1.885 -2.075,2.64c-6.789,6.537 -11.629,13.955 -14.52,22.252c-2.892,8.298 -5.595,17.224 -8.109,26.778c-0.503,2.766 -0.818,5.406 -0.943,7.921c-0.126,2.514 -0.189,5.154 -0.189,7.92c-0.251,1.509 0,3.269 0.755,5.28c1.005,4.275 2.451,7.103 4.337,8.486c1.886,1.383 4.589,1.069 8.109,-0.943c4.274,-1.76 7.794,-4.023 10.56,-6.788c4.526,-4.275 8.423,-8.864 11.692,-13.767c3.269,-4.903 6.286,-9.994 9.052,-15.275l0.377,-3.017c-1.257,-1.257 -2.766,-1.886 -4.526,-1.886c-7.292,-1.76 -12.509,-5.908 -15.652,-12.446c-3.143,-6.537 -3.08,-13.452 0.189,-20.744c1.508,-3.52 3.583,-5.971 6.223,-7.354c2.64,-1.383 5.72,-1.446 9.24,-0.189c7.543,1.257 12.321,5.909 14.332,13.955c0.503,2.012 0.692,3.96 0.566,5.846c-0.126,1.886 -0.063,3.709 0.189,5.469c0,1.257 -0.063,2.326 -0.189,3.206c-0.126,0.88 -0.314,2.2 -0.566,3.96c1.76,-1.006 3.269,-1.76 4.526,-2.263c1.257,-0.503 2.64,-1.006 4.149,-1.509c5.029,-2.514 10.372,-6.034 16.029,-10.56c5.658,-4.526 10.623,-8.926 14.898,-13.201c0.503,-0.754 1.194,-1.508 2.074,-2.263c0.88,-0.754 2.075,-0.628 3.583,0.377c0.755,0.755 1.006,1.823 0.755,3.206c-0.252,1.383 -1.006,2.578 -2.263,3.583c-3.018,2.766 -6.286,5.658 -9.806,8.675c-3.521,3.017 -7.167,5.909 -10.938,8.675c-3.772,2.765 -7.543,5.28 -11.315,7.543c-3.771,2.263 -7.543,3.897 -11.315,4.903c-1.76,0.503 -2.954,1.32 -3.583,2.451c-0.628,1.132 -1.194,2.326 -1.697,3.583c-2.011,4.526 -4.211,8.989 -6.6,13.39c-2.389,4.4 -5.217,8.36 -8.486,11.88c-2.263,3.269 -4.715,6.286 -7.355,9.052c-2.64,2.766 -5.72,5.154 -9.24,7.166c-1.509,0.754 -3.08,1.509 -4.715,2.263c-1.634,0.754 -3.331,1.131 -5.091,1.131c-6.789,1.006 -11.189,-2.137 -13.201,-9.429c-0.754,-2.263 -1.257,-4.4 -1.509,-6.411c-0.251,-2.012 -0.377,-4.023 -0.377,-6.035c1.509,-24.641 9.178,-46.642 23.007,-66.003c1.76,-2.011 3.646,-3.897 5.657,-5.657c0.755,-0.252 2.138,-0.377 4.149,-0.377Zm22.63,36.207c0.754,-2.766 1.194,-5.28 1.32,-7.543c0.125,-2.263 -0.063,-4.652 -0.566,-7.166c-1.006,-5.28 -4.149,-8.926 -9.429,-10.938c-3.52,-0.754 -6.412,-0.251 -8.675,1.509c-2.263,1.76 -3.268,4.526 -3.017,8.297c0.252,5.029 2.263,9.052 6.035,12.069c3.771,3.018 8.549,4.275 14.332,3.772Z" style="fill:#fff;fill-rule:nonzero;"/><path d="M1142.54,379.736c-1.006,1.257 -2.012,2.515 -3.018,3.772c-1.005,1.257 -2.137,2.514 -3.394,3.771c-9.303,9.304 -18.669,18.544 -28.098,27.722c-9.429,9.177 -19.047,18.292 -28.853,27.344c-2.766,2.765 -5.909,5.405 -9.429,7.92c-3.52,2.514 -7.04,4.903 -10.56,7.166c-2.012,1.257 -4.086,2.326 -6.223,3.206c-2.138,0.88 -4.338,1.697 -6.601,2.451c-3.52,1.006 -6.411,0.629 -8.674,-1.131c-2.263,-1.76 -3.646,-4.4 -4.149,-7.921c-0.252,-2.765 -0.314,-5.594 -0.189,-8.486c0.126,-2.891 0.189,-5.72 0.189,-8.486l-2.64,1.886c-3.018,3.269 -6.161,6.412 -9.429,9.429c-1.76,1.76 -3.646,3.332 -5.658,4.715c-2.011,1.382 -4.148,2.703 -6.411,3.96c-4.023,2.766 -7.795,3.206 -11.315,1.32c-3.52,-1.886 -5.029,-5.469 -4.526,-10.749c0.251,-7.041 1.32,-14.269 3.206,-21.687c1.886,-7.417 4.337,-14.772 7.354,-22.064c3.018,-7.291 6.286,-14.332 9.807,-21.121c3.52,-6.788 7.166,-12.823 10.937,-18.103c0.503,-0.755 1.132,-1.635 1.886,-2.64c0.754,-1.006 2.137,-1.258 4.149,-0.755c1.005,2.766 0.628,5.658 -1.132,8.675c-3.017,4.526 -6.411,10.246 -10.183,17.161c-3.772,6.914 -7.292,14.08 -10.56,21.498c-3.269,7.417 -5.846,14.583 -7.732,21.498c-1.886,6.914 -2.452,12.76 -1.697,17.538c0.251,4.526 2.514,5.783 6.788,3.771c1.76,-1.005 3.521,-2.011 5.281,-3.017c1.76,-1.006 3.394,-2.263 4.903,-3.772c3.017,-2.765 6.034,-5.783 9.052,-9.051c3.017,-3.269 6.034,-6.286 9.051,-9.052c0.755,-1.006 1.446,-2.075 2.075,-3.206c0.628,-1.131 1.194,-2.326 1.697,-3.583c1.257,-3.017 2.389,-6.097 3.394,-9.24c1.006,-3.143 2.263,-6.349 3.772,-9.618c1.006,-2.011 2.137,-3.96 3.394,-5.846c1.258,-1.886 2.515,-3.834 3.772,-5.846c0.251,-0.503 0.691,-0.943 1.32,-1.32c0.629,-0.377 1.194,-0.44 1.697,-0.189c0.503,0.503 1.006,1.132 1.509,1.886c0.503,0.755 0.628,1.383 0.377,1.886c-0.251,1.76 -0.503,3.457 -0.754,5.092c-0.252,1.634 -0.755,3.206 -1.509,4.714c-1.76,3.52 -3.646,7.041 -5.657,10.561c-2.012,3.52 -4.023,7.04 -6.035,10.56c-2.263,4.275 -3.709,8.675 -4.337,13.201c-0.629,4.526 -0.817,9.177 -0.566,13.955c0,5.783 2.892,7.543 8.675,5.28c5.029,-1.257 9.429,-3.269 13.2,-6.035c6.286,-4.274 12.258,-8.8 17.915,-13.577c5.658,-4.778 11.127,-9.807 16.407,-15.087c12.572,-12.069 24.766,-24.264 36.584,-36.584c1.509,-1.509 2.892,-3.08 4.149,-4.715c1.257,-1.634 2.64,-3.206 4.149,-4.714c2.011,-2.515 3.646,-3.018 4.903,-1.509c1.257,1.509 0.503,3.897 -2.263,7.166Z" style="fill:#fff;fill-rule:nonzero;"/><path d="M1194.21,421.978l10.937,-10.183c2.515,-2.012 4.84,-4.212 6.978,-6.601c2.137,-2.388 4.211,-4.714 6.223,-6.977l21.875,-22.252c0.503,-0.503 1.006,-1.006 1.509,-1.509c0.502,-0.503 1.257,-1.006 2.262,-1.509c0.755,-0.754 1.823,-0.754 3.206,0c1.383,0.755 2.075,1.76 2.075,3.018c0,0.754 -0.44,1.508 -1.32,2.263c-0.88,0.754 -1.572,1.382 -2.075,1.885c-2.766,2.515 -6.411,6.223 -10.937,11.126c-4.526,4.904 -8.926,9.367 -13.201,13.39l-16.218,16.595l-7.166,6.034l-14.709,13.201c-4.274,4.023 -8.926,7.606 -13.955,10.749c-5.029,3.143 -10.183,6.097 -15.463,8.863c-2.263,1.257 -4.652,2.263 -7.166,3.017c-2.515,0.755 -5.029,1.383 -7.544,1.886c-6.788,0.754 -11.314,-2.64 -13.577,-10.183c-1.257,-5.029 -1.509,-11.064 -0.755,-18.104c1.006,-9.303 2.703,-18.544 5.092,-27.721c2.389,-9.178 5.092,-18.167 8.109,-26.967c4.023,-11.566 8.36,-23.007 13.012,-34.321c4.652,-11.315 9.618,-22.253 14.898,-32.813l7.166,-15.464c-0.503,-0.251 -1.006,-0.565 -1.509,-0.943c-0.503,-0.377 -1.006,-0.565 -1.508,-0.565c-7.544,-0.252 -15.087,-0.126 -22.63,0.377c-7.543,0.503 -14.835,1.76 -21.875,3.771c-4.778,1.258 -9.178,2.829 -13.201,4.715c-4.023,1.886 -7.794,4.337 -11.315,7.355c-3.017,-1.006 -3.771,-2.641 -2.263,-4.904c0.503,-1.005 1.195,-2.137 2.075,-3.394c0.88,-1.257 1.823,-2.137 2.829,-2.64c5.28,-2.766 10.686,-5.092 16.217,-6.978c5.532,-1.885 11.189,-3.08 16.973,-3.583c5.783,-1.005 11.691,-1.76 17.726,-2.262c6.035,-0.503 12.069,-0.629 18.104,-0.378c0.754,0.252 1.508,0.315 2.263,0.189c0.754,-0.126 1.76,-0.314 3.017,-0.566l11.315,-22.252c0.502,1.006 1.005,1.823 1.508,2.451c0.503,0.629 0.755,1.195 0.755,1.698c-0.755,3.52 -1.886,6.788 -3.395,9.806c-0.503,1.257 -1.006,2.514 -1.509,3.771c-0.502,1.257 -1.131,2.64 -1.885,4.149c5.783,1.257 11.314,2.012 16.595,2.263c5.28,0.251 10.56,0.251 15.84,0c25.647,-0.754 50.54,-5.909 74.678,-15.464c1.257,-0.754 2.577,-1.257 3.96,-1.508c1.383,-0.252 2.703,-0.629 3.96,-1.132c1.509,1.258 2.137,2.389 1.886,3.395c-0.251,1.006 -0.88,1.76 -1.886,2.263c-2.514,1.76 -5.029,3.017 -7.543,3.771c-13.326,5.281 -26.841,9.366 -40.545,12.258c-13.703,2.892 -28.098,4.212 -43.184,3.96c-4.526,-0.251 -9.052,-0.314 -13.578,-0.188c-4.526,0.125 -9.429,0.188 -14.709,0.188c-0.755,1.257 -1.572,2.64 -2.452,4.149c-0.88,1.509 -1.823,3.269 -2.828,5.28c-6.035,12.321 -11.755,24.578 -17.161,36.773c-5.406,12.195 -10.372,24.704 -14.898,37.527c-5.029,15.59 -9.303,31.682 -12.823,48.277c-0.755,4.526 -0.88,9.932 -0.377,16.218c0.502,4.525 1.885,7.48 4.148,8.863c2.263,1.383 5.658,1.446 10.184,0.188l7.92,-3.017c5.029,-2.514 10.057,-5.28 15.086,-8.297c5.029,-3.018 9.681,-6.538 13.955,-10.561l13.201,-11.692l-0.377,-0.754Z" style="fill:#fff;fill-rule:nonzero;"/><path d="M1250.41,363.518c1.509,1.509 2.2,2.892 2.075,4.149c-0.126,1.257 -0.315,2.514 -0.566,3.772c-1.257,5.28 -2.515,10.183 -3.772,14.709c-1.006,3.017 -2.074,6.852 -3.206,11.503c-1.131,4.652 -2.263,9.429 -3.394,14.332c-1.132,4.903 -2.137,9.681 -3.017,14.332c-0.88,4.652 -1.572,8.486 -2.075,11.504c-0.754,5.028 -0.754,10.057 0,15.086c0.755,6.286 4.275,8.297 10.561,6.035c1.257,-0.503 2.451,-1.132 3.583,-1.886c1.131,-0.755 2.2,-1.383 3.206,-1.886c8.8,-6.035 17.16,-12.698 25.081,-19.989c7.92,-7.292 15.526,-14.961 22.818,-23.007l29.041,-33.567c0.754,-1.006 1.572,-1.886 2.452,-2.64c0.88,-0.755 1.948,-0.88 3.205,-0.378c1.006,1.509 1.195,2.766 0.566,3.772c-0.628,1.006 -1.446,2.137 -2.451,3.394c-1.509,2.012 -2.703,3.521 -3.583,4.526l-8.486,9.806c-5.029,5.784 -9.932,11.378 -14.71,16.784c-4.777,5.406 -9.68,10.749 -14.709,16.029c-5.783,6.538 -12.006,12.572 -18.669,18.104c-6.663,5.532 -13.641,10.686 -20.933,15.463c-3.771,2.515 -7.291,3.646 -10.56,3.395c-6.035,0 -9.806,-2.892 -11.315,-8.675c-1.006,-3.52 -1.383,-7.166 -1.131,-10.937c0.251,-3.772 0.628,-7.418 1.131,-10.938c0.503,-4.274 1.383,-9.366 2.64,-15.275c1.258,-5.909 2.64,-12.006 4.149,-18.292c1.509,-6.286 3.08,-12.384 4.715,-18.292c1.634,-5.909 3.205,-11.001 4.714,-15.275l1.132,-3.772l1.508,-1.886Zm11.692,-27.909c-1.257,3.017 -2.64,5.971 -4.149,8.863c-1.508,2.891 -3.268,5.72 -5.28,8.486c-0.251,0 -0.44,-0.063 -0.566,-0.189c-0.125,-0.125 -0.314,-0.188 -0.565,-0.188c-0.252,-0.503 -0.503,-1.132 -0.755,-1.886c-0.251,-0.754 -0.125,-1.383 0.378,-1.886c0.754,-2.263 1.571,-4.463 2.451,-6.6c0.88,-2.137 1.949,-4.337 3.206,-6.6c1.257,-2.263 3.017,-2.263 5.28,0Z" style="fill:#fff;fill-rule:nonzero;"/><path d="M1371.1,381.245c-4.274,-5.28 -8.423,-8.423 -12.446,-9.429c-4.023,-1.006 -8.549,0.251 -13.578,3.771c-19.109,12.321 -28.79,29.545 -29.041,51.671c0,2.012 0.377,4.149 1.131,6.412c0.252,1.509 1.006,2.64 2.263,3.394c1.257,0.755 2.64,0.88 4.149,0.377c1.257,-0.502 2.389,-0.942 3.394,-1.32c1.006,-0.377 1.886,-0.942 2.641,-1.697c2.011,-1.257 4.274,-3.394 6.788,-6.412l32.059,-42.241l2.64,-4.526Zm2.64,46.767c-0.754,0.252 -1.446,0.566 -2.074,0.943c-0.629,0.378 -1.446,0.818 -2.452,1.32c0,0.755 -0.125,1.509 -0.377,2.263c-0.251,0.755 -0.251,1.509 0,2.263c1.76,8.801 2.263,17.79 1.509,26.967c-0.755,9.178 -2.138,18.167 -4.149,26.967c-3.52,15.086 -7.92,29.858 -13.201,44.316c-5.28,14.458 -11.566,28.601 -18.858,42.431l-6.411,10.183c-0.755,1.006 -1.509,1.949 -2.263,2.829c-0.755,0.88 -1.635,1.697 -2.64,2.451c-2.766,2.012 -5.343,2.515 -7.732,1.509c-2.389,-1.006 -3.835,-3.018 -4.337,-6.035c-0.252,-1.257 -0.378,-2.577 -0.378,-3.96l0,-3.96c-0.502,-6.035 -0.377,-12.006 0.378,-17.915c0.754,-5.909 1.76,-11.755 3.017,-17.538c1.257,-8.046 2.891,-15.841 4.903,-23.384c2.011,-7.543 4.274,-15.086 6.789,-22.629c4.777,-14.584 9.932,-28.79 15.463,-42.619c5.532,-13.83 11.818,-27.407 18.858,-40.734c0.755,-1.257 1.383,-2.703 1.886,-4.337c0.503,-1.634 1.006,-3.08 1.509,-4.337c0.251,-0.252 0,-0.88 -0.755,-1.886c-1.508,2.012 -3.017,4.023 -4.526,6.035c-1.508,2.011 -3.017,3.897 -4.525,5.657l-16.595,21.498c-3.269,4.023 -7.166,6.789 -11.692,8.297c-6.789,1.509 -11.189,-0.754 -13.201,-6.788c-0.754,-2.515 -1.131,-5.029 -1.131,-7.544c0.502,-25.395 10.434,-45.384 29.795,-59.968c0.503,-0.503 0.754,-0.754 0.754,-0.754c5.281,-3.52 10.498,-5.343 15.653,-5.469c5.154,-0.126 10.371,2.326 15.652,7.355c0.754,0.503 1.257,1.131 1.508,1.885c0.252,0.755 0.629,1.635 1.132,2.641l12.446,-10.561c0.503,-0.251 1.069,-0.377 1.697,-0.377c0.629,0 1.069,0.251 1.32,0.754c0.503,0.503 0.755,1.635 0.755,3.395c0,0.251 -0.126,0.377 -0.378,0.377c-0.251,0 -0.377,0.126 -0.377,0.377c-8.297,10.812 -15.338,22.315 -21.121,34.51c-5.783,12.195 -11.566,24.327 -17.349,36.396c-7.04,14.332 -13.075,29.167 -18.104,44.505c-5.028,15.337 -9.429,30.927 -13.2,46.767c-1.76,7.292 -3.269,14.584 -4.526,21.876c-1.257,7.291 -1.76,14.709 -1.509,22.252c0,1.509 0.063,3.017 0.189,4.526c0.126,1.508 1.069,2.891 2.829,4.149c2.263,-0.252 3.897,-1.006 4.903,-2.263c1.005,-1.258 2.011,-2.64 3.017,-4.149c1.76,-2.766 3.457,-5.532 5.092,-8.298c1.634,-2.765 3.08,-5.657 4.337,-8.674c13.326,-27.156 22.629,-55.191 27.91,-84.107c1.257,-5.531 1.885,-10.874 1.885,-16.029c0,-5.154 -0.251,-10.372 -0.754,-15.652c-0.251,-2.514 -0.44,-4.966 -0.566,-7.355c-0.125,-2.388 -0.062,-4.84 0.189,-7.354c0,-4.778 2.64,-8.172 7.92,-10.184c14.081,-5.028 27.281,-10.749 39.602,-17.16c12.321,-6.412 24.264,-14.018 35.83,-22.818c1.257,-1.006 2.577,-1.949 3.96,-2.829c1.383,-0.88 2.703,-1.697 3.96,-2.452l2.641,0c0,0.755 0.062,1.446 0.188,2.075c0.126,0.628 -0.063,1.194 -0.566,1.697c-1.005,1.257 -2.011,2.452 -3.017,3.583c-1.006,1.131 -2.137,2.2 -3.394,3.206c-12.321,9.806 -24.893,17.915 -37.716,24.327c-12.824,6.411 -26.024,12.257 -39.602,17.537Z" style="fill:#fff;fill-rule:nonzero;"/><path d="M1578.54,379.736c-1.005,1.257 -2.011,2.515 -3.017,3.772c-1.006,1.257 -2.137,2.514 -3.394,3.771c-9.304,9.304 -18.67,18.544 -28.099,27.722c-9.429,9.177 -19.046,18.292 -28.852,27.344c-2.766,2.765 -5.909,5.405 -9.429,7.92c-3.52,2.514 -7.041,4.903 -10.561,7.166c-2.011,1.257 -4.086,2.326 -6.223,3.206c-2.137,0.88 -4.337,1.697 -6.6,2.451c-3.52,1.006 -6.412,0.629 -8.675,-1.131c-2.263,-1.76 -3.646,-4.4 -4.149,-7.921c-0.251,-2.765 -0.314,-5.594 -0.188,-8.486c0.126,-2.891 0.188,-5.72 0.188,-8.486l-2.64,1.886c-3.017,3.269 -6.16,6.412 -9.429,9.429c-1.76,1.76 -3.645,3.332 -5.657,4.715c-2.012,1.382 -4.149,2.703 -6.412,3.96c-4.023,2.766 -7.794,3.206 -11.314,1.32c-3.521,-1.886 -5.029,-5.469 -4.526,-10.749c0.251,-7.041 1.32,-14.269 3.205,-21.687c1.886,-7.417 4.338,-14.772 7.355,-22.064c3.017,-7.291 6.286,-14.332 9.806,-21.121c3.52,-6.788 7.166,-12.823 10.938,-18.103c0.503,-0.755 1.131,-1.635 1.886,-2.64c0.754,-1.006 2.137,-1.258 4.148,-0.755c1.006,2.766 0.629,5.658 -1.131,8.675c-3.017,4.526 -6.412,10.246 -10.183,17.161c-3.772,6.914 -7.292,14.08 -10.561,21.498c-3.269,7.417 -5.846,14.583 -7.732,21.498c-1.885,6.914 -2.451,12.76 -1.697,17.538c0.252,4.526 2.515,5.783 6.789,3.771c1.76,-1.005 3.52,-2.011 5.28,-3.017c1.76,-1.006 3.395,-2.263 4.903,-3.772c3.018,-2.765 6.035,-5.783 9.052,-9.051c3.017,-3.269 6.035,-6.286 9.052,-9.052c0.754,-1.006 1.446,-2.075 2.074,-3.206c0.629,-1.131 1.195,-2.326 1.698,-3.583c1.257,-3.017 2.388,-6.097 3.394,-9.24c1.006,-3.143 2.263,-6.349 3.772,-9.618c1.005,-2.011 2.137,-3.96 3.394,-5.846c1.257,-1.886 2.514,-3.834 3.772,-5.846c0.251,-0.503 0.691,-0.943 1.32,-1.32c0.628,-0.377 1.194,-0.44 1.697,-0.189c0.503,0.503 1.006,1.132 1.508,1.886c0.503,0.755 0.629,1.383 0.378,1.886c-0.252,1.76 -0.503,3.457 -0.755,5.092c-0.251,1.634 -0.754,3.206 -1.508,4.714c-1.76,3.52 -3.646,7.041 -5.658,10.561c-2.011,3.52 -4.023,7.04 -6.034,10.56c-2.263,4.275 -3.709,8.675 -4.338,13.201c-0.628,4.526 -0.817,9.177 -0.565,13.955c0,5.783 2.891,7.543 8.674,5.28c5.029,-1.257 9.429,-3.269 13.201,-6.035c6.286,-4.274 12.258,-8.8 17.915,-13.577c5.657,-4.778 11.126,-9.807 16.406,-15.087c12.572,-12.069 24.767,-24.264 36.585,-36.584c1.508,-1.509 2.891,-3.08 4.149,-4.715c1.257,-1.634 2.64,-3.206 4.148,-4.714c2.012,-2.515 3.646,-3.018 4.903,-1.509c1.258,1.509 0.503,3.897 -2.263,7.166Z" style="fill:#fff;fill-rule:nonzero;"/><path d="M1663.78,372.947c0,1.257 0.126,2.263 0.377,3.018c0.252,0.754 0.252,1.382 0,1.885c-0.502,1.258 -1.068,2.389 -1.697,3.395c-0.628,1.006 -1.446,1.886 -2.451,2.64c-3.52,3.269 -7.543,6.914 -12.069,10.938c-4.526,4.023 -9.115,7.983 -13.767,11.88c-4.651,3.897 -9.366,7.606 -14.143,11.126c-4.777,3.52 -9.303,6.538 -13.578,9.052c-3.269,1.76 -6.474,3.394 -9.617,4.903c-3.143,1.509 -6.349,3.269 -9.618,5.28c-5.28,2.263 -10.435,3.269 -15.463,3.018c-3.521,-0.252 -6.601,-1.446 -9.241,-3.583c-2.64,-2.138 -4.211,-4.966 -4.714,-8.487c0,-2.262 -0.063,-4.525 -0.189,-6.788c-0.126,-2.263 -0.063,-4.652 0.189,-7.166c1.005,-7.041 2.765,-13.83 5.28,-20.367c2.514,-6.537 6.286,-12.572 11.315,-18.104c6.788,-6.286 14.332,-9.303 22.629,-9.051c1.257,0 3.143,0.251 5.658,0.754c5.28,2.514 7.04,6.286 5.28,11.315c-0.755,2.011 -1.509,3.897 -2.263,5.657c-0.754,1.76 -1.76,3.269 -3.017,4.526c-9.304,12.32 -21.499,21.372 -36.585,27.155l-3.017,1.509c0,1.006 -0.063,2.074 -0.189,3.206c-0.125,1.131 -0.063,2.326 0.189,3.583c0.251,2.514 1.32,4.589 3.206,6.223c1.886,1.634 4.086,2.2 6.6,1.697c2.514,-0.251 4.966,-0.566 7.355,-0.943c2.388,-0.377 4.84,-1.068 7.354,-2.074c6.035,-2.766 11.944,-5.846 17.727,-9.24c5.783,-3.395 11.44,-7.229 16.972,-11.504c2.514,-2.011 5.406,-4.463 8.674,-7.354l20.367,-17.727c3.269,-2.891 6.16,-5.343 8.675,-7.354l3.771,-3.018Zm-99.57,35.076l1.509,0c0.503,0 0.88,-0.063 1.131,-0.189c0.252,-0.125 0.629,-0.188 1.132,-0.188c10.812,-4.526 20.241,-11.189 28.287,-19.99c1.006,-1.257 2.011,-2.388 3.017,-3.394c1.006,-1.006 1.886,-2.263 2.64,-3.772c1.257,-1.76 1.572,-3.268 0.943,-4.525c-0.628,-1.258 -1.949,-2.012 -3.96,-2.263c-1.257,-0.252 -2.514,-0.315 -3.772,-0.189c-1.257,0.126 -2.514,0.314 -3.771,0.566c-5.029,1.257 -9.303,3.457 -12.824,6.6c-3.52,3.143 -6.537,6.852 -9.051,11.126c-1.258,2.515 -2.389,5.155 -3.395,7.921c-1.006,2.765 -1.634,5.531 -1.886,8.297Z" style="fill:#fff;fill-rule:nonzero;"/></g></svg>