<?xml version="1.0" encoding="UTF-8" standalone="no"?><!DOCTYPE svg PUBLIC "-//W3C//DTD SVG 1.1//EN" "http://www.w3.org/Graphics/SVG/1.1/DTD/svg11.dtd"><svg width="100%" height="100%" viewBox="0 0 9955 2471" version="1.1" xmlns="http://www.w3.org/2000/svg" xmlns:xlink="http://www.w3.org/1999/xlink" xml:space="preserve" xmlns:serif="http://www.serif.com/" style="fill-rule:evenodd;clip-rule:evenodd;stroke-linejoin:round;stroke-miterlimit:2;"><g><path d="M286.663,654.904c171.816,0 317.408,-146.321 317.408,-334.012c0,-162.463 -107.608,-319.884 -285.758,-319.884c-146.496,0 -318.313,107.975 -318.313,326.95c0,177.6 113.038,326.946 286.663,326.946Zm31.649,-21.192c-148.304,0 -249.587,-150.354 -249.587,-341.075c0,-165.491 77.771,-268.42 211.608,-268.42c155.538,0 255.013,135.22 255.013,324.929c0,183.658 -95.854,284.566 -217.034,284.566Z" style="fill:#0d0d0d;fill-rule:nonzero;"/><path d="M1446.88,630.688c-76.867,0 -151.017,-81.738 -299.325,-320.896c61.496,-32.292 103.996,-93.846 103.996,-167.509c0,-79.72 -52.45,-133.2 -149.208,-133.2c-33.459,0 -89.525,6.055 -126.604,6.055c-39.788,0 -76.863,-3.03 -105.8,-3.03c-3.617,0 -3.617,12.109 0,12.109c66.012,0 76.862,12.112 76.862,69.629l0,467.212c0,58.529 -12.658,69.63 -78.671,69.63c-2.712,0 -2.712,12.108 0,12.108c29.842,0 67.821,-2.021 107.609,-2.021c42.504,0 76.866,2.021 106.708,2.021c3.617,0 3.617,-12.108 0,-12.108c-66.917,0 -76.867,-11.1 -76.867,-69.63l0,-229.066c11.759,1.012 28.942,3.029 40.696,3.029c17.183,0 34.362,-2.017 50.642,-6.054c114.846,194.754 203.466,313.829 233.308,313.829l116.654,0c2.713,0 2.713,-12.108 0,-12.108Zm-441.3,-322.913l0,-211.913c0,-60.545 18.088,-71.645 62.4,-71.645c75.054,0 122.079,37.337 122.079,147.329c0,91.829 -34.362,140.266 -131.125,140.266c-15.371,0 -36.171,-1.012 -53.354,-4.037Z" style="fill:#0d0d0d;fill-rule:nonzero;"/><path d="M1798.65,561.058l0,-465.196c0,-57.516 11.758,-71.645 76.867,-71.645c3.616,0 3.616,-12.109 0,-12.109c-28.034,0 -64.205,3.029 -107.613,3.029c-40.692,0 -77.766,-3.029 -106.704,-3.029c-3.621,0 -3.621,12.109 0,12.109c66.013,0 77.767,12.112 77.767,69.629l0,467.212c0,58.529 -11.755,69.63 -77.767,69.63c-3.621,0 -3.621,12.108 0,12.108c28.938,0 66.013,-2.021 106.704,-2.021c43.409,0 78.675,2.021 107.613,2.021c3.616,0 3.616,-12.108 0,-12.108c-66.013,0 -76.867,-11.1 -76.867,-69.63Z" style="fill:#0d0d0d;fill-rule:nonzero;"/><path d="M2468.74,654.904c59.683,0 129.316,-12.108 191.712,-27.246c8.137,-3.029 9.946,-4.037 9.946,-12.108c0,-16.146 -6.329,-21.192 -6.329,-88.8c0,-106.967 2.712,-119.075 45.216,-118.067c6.33,0 5.425,-14.125 0,-14.125c-69.633,4.034 -126.604,4.034 -203.47,-2.021c-6.33,0 -6.33,16.146 0.904,16.146c95.858,0 103.091,11.1 103.091,107.975c0,89.809 -30.745,123.109 -116.654,123.109c-188.096,0 -279.429,-165.492 -279.429,-330.984c0,-179.621 110.325,-291.629 252.3,-291.629c109.421,0 163.679,68.621 188.096,165.492c1.808,5.046 10.85,3.029 10.85,-1.009l-10.85,-119.075c-0.904,-16.145 -0.904,-16.145 -9.95,-22.2c-37.979,-25.225 -96.758,-39.354 -160.963,-39.354c-190.808,0 -339.112,123.113 -339.112,322.913c0,179.616 119.367,330.983 324.642,330.983Z" style="fill:#0d0d0d;fill-rule:nonzero;"/><path d="M3106.27,561.058l0,-465.196c0,-57.516 11.754,-71.645 76.862,-71.645c3.617,0 3.617,-12.109 0,-12.109c-28.033,0 -64.204,3.029 -107.608,3.029c-40.696,0 -77.771,-3.029 -106.708,-3.029c-3.617,0 -3.617,12.109 0,12.109c66.012,0 77.771,12.112 77.771,69.629l-0.001,467.212c0.001,58.529 -11.758,69.63 -77.77,69.63c-3.617,0 -3.617,12.108 0,12.108c28.937,0 66.012,-2.021 106.708,-2.021c43.404,0 78.671,2.021 107.608,2.021c3.617,0 3.617,-12.108 0,-12.108c-66.012,0 -76.862,-11.1 -76.862,-69.63Z" style="fill:#0d0d0d;fill-rule:nonzero;"/><path d="M4044.03,12.108c-23.512,0 -53.354,3.03 -82.291,3.03c-30.746,-0.001 -55.163,-3.03 -79.58,-3.03c-2.712,0 -2.712,12.109 0,12.109c49.738,0 68.725,29.266 68.725,98.891l0,418.775l-348.154,-477.3c-28.033,-38.346 -27.129,-52.475 -42.5,-52.475c-9.95,0 -29.841,2.021 -52.45,2.021c-18.087,0 -42.504,-2.021 -63.3,-2.021c-3.621,0 -3.621,12.109 0,12.109c21.7,0 44.309,8.075 71.438,36.329l0,472.258c0,69.625 -18.992,97.883 -71.438,97.883c-2.716,0 -2.716,12.109 0,12.109c24.413,0 53.35,-2.021 83.192,-2.021c30.75,0 56.067,2.021 79.579,2.021c3.617,0 3.617,-12.109 0,-12.109c-49.733,0 -70.533,-28.258 -70.533,-97.883l0,-448.042c2.712,3.03 5.425,6.059 8.137,10.092l415.979,562.067c2.713,2.021 10.85,1.012 10.85,-2.017l0,-531.796c0,-69.625 21.705,-98.891 72.346,-98.891c3.617,0 3.617,-12.109 0,-12.109Z" style="fill:#0d0d0d;fill-rule:nonzero;"/><path d="M4877.79,630.688c-38.884,0 -62.396,-25.23 -103.996,-126.138l-213.413,-501.521c-0.904,-4.037 -9.945,-4.037 -11.754,0l-190.808,502.529c-37.983,99.9 -62.396,125.13 -111.229,125.13c-5.425,0 -5.425,12.108 0,12.108c37.075,0 56.066,-4.038 99.471,-4.038c46.12,0 70.537,4.038 106.708,4.038c5.425,0 5.425,-12.108 0,-12.108c-78.675,0 -106.708,-33.3 -75.963,-116.046l56.971,-149.35l215.225,0l80.483,190.721c24.417,58.529 11.755,74.675 -52.45,74.675c-5.425,0 -5.425,12.108 0,12.108c33.459,0 56.971,-4.038 94.95,-4.038c33.463,0 71.442,4.038 105.805,4.038c4.52,0 4.52,-12.108 0,-12.108Zm-436.775,-285.575l94.045,-249.25l105.805,249.25l-199.85,0Z" style="fill:#0d0d0d;fill-rule:nonzero;"/><path d="M5228.67,94.854c0,-57.516 11.754,-70.637 76.862,-70.637c3.617,0 3.617,-12.109 0,-12.109c-28.033,0 -65.108,3.03 -106.708,3.03c-39.788,0 -76.863,-3.03 -105.8,-3.03c-2.713,0 -2.713,12.109 0,12.109c66.012,0 76.862,12.112 76.862,69.629l0,467.212c0,58.529 -10.85,69.63 -76.862,69.63c-2.713,0 -2.713,12.108 0,12.108l417.783,0c10.854,0 13.567,-4.038 13.567,-15.138c0,-43.391 4.521,-100.908 8.137,-138.245c0,-4.038 -9.945,-5.046 -9.945,-1.009c-12.663,79.717 -52.45,133.2 -122.984,133.2l-98.571,0c-61.491,0 -72.341,-9.083 -72.341,-64.583l0,-462.167Z" style="fill:#0d0d0d;fill-rule:nonzero;"/><path d="M6485.62,654.904c59.683,0 129.313,-12.108 191.713,-27.246c8.137,-3.029 9.945,-4.037 9.945,-12.108c0,-16.146 -6.329,-21.192 -6.329,-88.8c0,-106.967 2.713,-119.075 45.213,-118.067c6.333,0 5.429,-14.125 0,-14.125c-69.629,4.034 -126.6,4.034 -203.467,-2.021c-6.329,0 -6.329,16.146 0.904,16.146c95.859,0 103.092,11.1 103.092,107.975c0,89.809 -30.746,123.109 -116.654,123.109c-188.096,0 -279.43,-165.492 -279.43,-330.984c0.001,-179.621 110.326,-291.629 252.301,-291.629c109.42,0 163.679,68.621 188.091,165.492c1.808,5.046 10.854,3.029 10.854,-1.009l-10.854,-119.075c-0.904,-16.145 -0.904,-16.145 -9.946,-22.2c-37.979,-25.225 -96.758,-39.354 -160.966,-39.354c-190.805,0 -339.113,123.113 -339.113,322.913c0,179.616 119.371,330.983 324.646,330.983Z" style="fill:#0d0d0d;fill-rule:nonzero;"/><path d="M7560.83,630.688c-76.866,0 -151.02,-81.738 -299.325,-320.896c61.492,-32.292 103.996,-93.846 103.996,-167.509c0,-79.72 -52.45,-133.2 -149.208,-133.2c-33.463,0 -89.529,6.055 -126.604,6.055c-39.788,0 -76.867,-3.03 -105.805,-3.03c-3.616,0 -3.616,12.109 0.001,12.109c66.016,0 76.866,12.112 76.866,69.629l0,467.212c0,58.529 -12.658,69.63 -78.675,69.63c-2.712,0 -2.712,12.108 0,12.108c29.842,0 67.825,-2.021 107.613,-2.021c42.504,0 76.866,2.021 106.708,2.021c3.617,0 3.617,-12.108 0,-12.108c-66.917,0 -76.867,-11.1 -76.867,-69.63l0,-229.066c11.759,1.012 28.938,3.029 40.696,3.029c17.179,0 34.363,-2.017 50.638,-6.054c114.846,194.754 203.471,313.829 233.312,313.829l116.654,0c2.713,0 2.713,-12.108 0,-12.108Zm-441.3,-322.913l0,-211.913c0,-60.545 18.088,-71.645 62.396,-71.645c75.058,0 122.083,37.337 122.083,147.329c0.001,91.829 -34.362,140.266 -131.125,140.266c-15.37,0 -36.17,-1.012 -53.354,-4.037Z" style="fill:#0d0d0d;fill-rule:nonzero;"/><path d="M8364.79,630.688c-38.884,0 -62.396,-25.23 -103.996,-126.138l-213.413,-501.521c-0.904,-4.037 -9.945,-4.037 -11.754,0l-190.808,502.529c-37.984,99.9 -62.396,125.13 -111.229,125.13c-5.425,0 -5.425,12.108 0,12.108c37.075,0 56.066,-4.038 99.471,-4.038c46.12,0 70.537,4.038 106.708,4.038c5.425,0 5.425,-12.108 0,-12.108c-78.675,0 -106.708,-33.3 -75.963,-116.046l56.971,-149.35l215.225,0l80.483,190.721c24.417,58.529 11.755,74.675 -52.45,74.675c-5.425,0 -5.425,12.108 0,12.108c33.459,0 56.971,-4.038 94.95,-4.038c33.463,0 71.442,4.038 105.805,4.038c4.52,0 4.52,-12.108 0,-12.108Zm-436.775,-285.575l94.045,-249.25l105.805,249.25l-199.85,0Z" style="fill:#0d0d0d;fill-rule:nonzero;"/><path d="M8909.17,1.008c-188.092,0 -327.354,129.167 -327.354,321.905c-0.001,198.791 135.645,333 327.354,333c69.633,0 119.37,-11.1 182.671,-45.409c7.233,-5.046 8.137,-6.054 9.945,-22.2l9.042,-111c0,-3.029 -9.946,-5.046 -10.85,-1.008c-31.65,108.979 -91.333,163.471 -190.808,163.471c-140.167,0 -257.725,-140.263 -257.725,-318.875c0,-185.671 101.283,-304.746 255.012,-304.746c98.571,0 159.159,57.517 186.288,168.521c1.808,5.041 10.85,2.016 10.85,-1.013l-10.85,-120.079c-1.809,-16.146 -1.809,-17.158 -9.95,-22.2c-51.542,-29.267 -97.663,-40.367 -173.625,-40.367Z" style="fill:#0d0d0d;fill-rule:nonzero;"/><path d="M9768.25,492.438c-12.663,79.72 -53.354,129.166 -111.229,129.166l-72.346,0c-58.779,0 -70.533,-11.1 -70.533,-64.583l0,-232.092l107.612,0c60.588,0 84.096,24.217 84.096,82.746c0,3.029 10.854,3.029 10.854,0c0,-34.308 -1.808,-61.554 -1.808,-92.838c0,-25.224 0.904,-41.37 0.904,-81.737c0,-3.025 -10.854,-3.025 -10.854,0c0,50.458 -22.604,70.638 -80.479,70.638l-110.325,0l0,-204.846c0,-53.484 12.658,-65.592 73.246,-65.592l55.162,0c56.971,0 94.954,41.375 98.571,113.021c0.904,4.033 9.946,3.025 9.946,-1.013l-1.809,-124.116c0,-6.055 -1.808,-9.084 -8.137,-9.084l-363.529,0c-2.713,0 -2.713,12.109 0,12.109c66.012,0 77.771,12.112 77.771,69.629l0,467.212c0,58.529 -11.759,69.63 -77.771,69.63c-2.713,0 -2.713,12.108 0,12.108l378.9,0c10.854,0 14.471,-4.038 14.471,-15.138c0,-42.383 3.616,-97.883 8.137,-133.2c0,-4.037 -9.946,-6.054 -10.85,-2.02Z" style="fill:#0d0d0d;fill-rule:nonzero;"/><path d="M3289.68,1420.37c22,2.096 39.813,-1.05 53.429,-9.429c32.479,-18.859 65.221,-36.929 98.221,-54.217c33,-17.287 64.692,-36.408 95.075,-57.358c38.763,-27.242 76.479,-55.529 113.146,-84.863c36.671,-29.333 69.146,-63.908 97.433,-103.721c10.479,-10.475 19.383,-24.096 26.717,-40.858c10.475,-25.142 12.833,-49.763 7.071,-73.858c-5.763,-24.096 -19.121,-45.05 -40.071,-62.859c-33.525,-28.287 -73.338,-46.625 -119.433,-55.004c-34.575,-5.237 -69.146,-8.121 -103.721,-8.642c-34.571,-0.524 -69.671,2.88 -105.292,10.213c-81.717,17.813 -159.504,43.742 -233.367,77.792c-73.858,34.046 -144.312,77.787 -211.366,131.216c-35.617,29.338 -66,62.863 -91.146,100.575c-2.096,5.242 -4.188,9.955 -6.284,14.146c-2.095,4.192 -4.191,9.429 -6.287,15.713c-2.096,3.146 -3.929,6.812 -5.5,11.004c-1.571,4.187 -5.5,6.283 -11.787,6.283c-3.142,-11.525 -2.88,-23.046 0.787,-34.571c3.667,-11.525 8.117,-22.004 13.358,-31.429c16.763,-24.1 34.046,-45.837 51.859,-65.221c17.808,-19.379 37.191,-37.975 58.146,-55.787c41.904,-33.525 85.908,-62.859 132.004,-88.004c46.096,-25.142 93.766,-46.621 143.008,-64.429c20.95,-7.334 41.642,-14.667 62.071,-22c20.429,-7.334 41.121,-13.621 62.075,-18.859c37.717,-9.429 75.171,-15.454 112.362,-18.075c37.192,-2.616 75.171,-1.308 113.934,3.929c28.287,4.192 56.05,10.48 83.287,18.859c27.242,8.383 51.863,22.525 73.863,42.433c24.096,18.854 39.812,42.692 47.146,71.5c7.333,28.813 6.808,58.408 -1.571,88.792c-8.384,23.045 -18.6,43.475 -30.646,61.287c-12.05,17.809 -25.929,35.096 -41.646,51.859c-14.667,14.666 -29.596,29.075 -44.787,43.216c-15.192,14.142 -30.642,26.979 -46.359,38.5c-33.525,29.338 -68.358,55.792 -104.504,79.363c-36.146,23.571 -73.075,45.833 -110.792,66.787c-7.333,2.096 -12.57,7.334 -15.712,15.717l22,1.571c27.237,2.096 53.954,5.5 80.146,10.212c26.191,4.717 52.908,11.788 80.146,21.217c24.095,8.383 45.05,20.167 62.858,35.358c17.812,15.192 32.479,32.217 44.004,51.075c11.525,18.859 20.167,39.025 25.929,60.5c5.763,21.479 9.167,42.171 10.217,62.075c2.092,41.909 -2.883,81.979 -14.929,120.221c-12.05,38.238 -26.979,75.692 -44.788,112.363c-24.1,48.191 -55.791,96.908 -95.079,146.15c-39.287,49.237 -81.979,95.858 -128.075,139.862c-46.096,44 -94.029,83.55 -143.792,118.646c-49.762,35.096 -97.17,62.075 -142.22,80.933c-37.717,14.667 -74.646,24.096 -110.792,28.288c-36.142,4.187 -68.621,1.045 -97.434,-9.43c-28.808,-10.479 -52.641,-29.075 -71.499,-55.787c-18.859,-26.717 -29.338,-64.171 -31.43,-112.363c-2.096,-38.762 -1.05,-77.004 3.142,-114.72c4.192,-37.717 9.954,-74.909 17.288,-111.575c18.858,-83.813 43.737,-164.484 74.645,-242.013c30.905,-77.525 66.788,-153.479 107.646,-227.867c10.475,-18.858 20.954,-37.454 31.429,-55.787c10.479,-18.333 20.954,-37.454 31.43,-57.358c39.812,-69.146 81.195,-136.721 124.15,-202.725c42.954,-66 89.05,-130.955 138.291,-194.863c7.333,-8.383 14.404,-17.025 21.217,-25.929c6.808,-8.908 13.879,-18.075 21.212,-27.504c1.05,-2.096 2.884,-4.188 5.5,-6.284c2.621,-2.095 4.98,-3.145 7.075,-3.145c5.238,2.095 7.854,4.979 7.854,8.645c0.001,3.667 -0.52,7.071 -1.57,10.213c-2.096,14.667 -4.45,28.55 -7.071,41.646c-2.621,13.096 -9.692,24.883 -21.217,35.358c-3.141,4.192 -5.237,9.429 -6.283,15.717c-19.908,54.479 -38.767,108.954 -56.575,163.433c-17.813,54.479 -35.621,110.004 -53.429,166.579c-1.05,1.046 -2.621,6.809 -4.717,17.288Zm95.862,-361.446c-1.05,-1.046 -1.57,-1.571 -1.57,-1.571l-15.717,17.288c-84.863,115.241 -162.388,234.154 -232.583,356.729c-16.763,28.287 -32.738,56.833 -47.93,85.646c-15.191,28.812 -30.12,57.883 -44.787,87.216c-25.142,49.242 -49.242,99.267 -72.288,150.079c-23.05,50.813 -41.383,104.505 -55.004,161.08c-8.379,35.62 -17.283,71.241 -26.712,106.862c-9.429,35.621 -15.192,72.288 -17.288,110.004c-2.096,27.238 -2.883,53.692 -2.358,79.359c0.525,25.67 4.454,51.6 11.787,77.791c10.475,25.142 25.142,44.525 44,58.146c18.859,13.617 39.55,22.521 62.075,26.713c22.525,4.191 45.575,4.716 69.146,1.57c23.571,-3.141 45.834,-8.904 66.788,-17.283c64.954,-26.192 127.029,-59.717 186.225,-100.579c59.191,-40.858 113.408,-86.692 162.646,-137.504c49.241,-50.813 92.983,-106.338 131.22,-166.579c38.242,-60.242 69.409,-122.838 93.505,-187.792c12.57,-36.671 15.191,-74.383 7.858,-113.15c-7.333,-39.808 -20.692,-74.646 -40.075,-104.504c-19.379,-29.859 -48.975,-51.071 -88.788,-63.646c-60.766,-20.95 -123.625,-31.429 -188.579,-31.429c-18.858,0 -36.929,1.308 -54.216,3.929c-17.288,2.621 -34.313,9.167 -51.075,19.646c-6.284,4.187 -11.263,8.116 -14.93,11.783c-3.666,3.667 -6.025,8.646 -7.07,14.929c-4.192,13.621 -8.121,26.979 -11.788,40.075c-3.667,13.096 -8.117,26.454 -13.358,40.071c-15.713,51.338 -31.95,102.15 -48.713,152.438c-16.762,50.287 -33.004,102.145 -48.716,155.575c-14.667,49.241 -26.717,99.266 -36.146,150.079c-9.429,50.812 -14.667,102.933 -15.717,156.362c0,13.621 -5.762,19.384 -17.283,17.288c-4.192,-7.334 -6.55,-12.309 -7.075,-14.929c-0.521,-2.617 0.262,-8.642 2.358,-18.071c1.05,-30.384 4.192,-60.767 9.429,-91.146c8.384,-60.767 20.429,-119.958 36.146,-177.579c15.713,-57.621 33,-115.246 51.858,-172.867c12.571,-35.621 24.621,-71.504 36.146,-107.646c11.525,-36.146 23.046,-72.029 34.571,-107.65c1.05,-8.379 3.142,-16.762 6.288,-25.141c-19.909,6.287 -39.025,13.095 -57.359,20.429c-18.337,7.333 -36.408,13.096 -54.216,17.287c-2.096,-11.525 -2.884,-18.858 -2.359,-22.004c0.525,-3.142 4.45,-7.333 11.784,-12.571c7.337,-4.191 12.05,-10.475 14.145,-18.858c9.43,-17.808 20.43,-32.213 33,-43.217c12.575,-11 28.813,-16.5 48.717,-16.5c5.238,0 10.479,-0.521 15.717,-1.571c5.237,-1.045 9.95,-2.095 14.141,-3.141c20.955,-59.717 41.646,-119.959 62.075,-180.721c20.43,-60.767 41.121,-121.008 62.075,-180.725Zm-154.008,407.017c0,-2.092 -1.046,-3.667 -3.142,-4.713c-19.904,-5.237 -34.05,2.621 -42.429,23.571c7.334,-4.188 14.929,-7.596 22.784,-10.213c7.858,-2.62 15.454,-5.5 22.787,-8.645Z" style="fill:#0d0d0d;fill-rule:nonzero;"/><path d="M3943.42,1528.8c2.096,8.379 1.833,14.667 -0.784,18.859c-2.62,4.187 -5.5,7.854 -8.645,11c-28.288,27.237 -48.455,58.145 -60.5,92.716c-12.05,34.575 -23.313,71.767 -33.788,111.575c-2.096,11.525 -3.408,22.525 -3.929,33.004c-0.525,10.475 -0.788,21.475 -0.788,33c-1.045,6.288 0,13.621 3.146,22c4.188,17.813 10.213,29.596 18.071,35.359c7.858,5.762 19.121,4.454 33.788,-3.929c17.808,-7.334 32.475,-16.763 44,-28.284c18.858,-17.812 35.095,-36.933 48.716,-57.362c13.621,-20.429 26.192,-41.642 37.717,-63.646l1.571,-12.571c-5.238,-5.237 -11.525,-7.858 -18.859,-7.858c-30.383,-7.334 -52.12,-24.617 -65.216,-51.859c-13.096,-27.237 -12.834,-56.05 0.787,-86.433c6.284,-14.667 14.929,-24.879 25.929,-30.642c11,-5.762 23.834,-6.025 38.5,-0.787c31.429,5.237 51.338,24.621 59.717,58.146c2.096,8.383 2.883,16.5 2.358,24.358c-0.525,7.858 -0.262,15.454 0.788,22.788c0,5.237 -0.263,9.691 -0.788,13.358c-0.525,3.667 -1.308,9.167 -2.358,16.5c7.333,-4.192 13.621,-7.333 18.858,-9.429c5.238,-2.096 11,-4.192 17.288,-6.288c20.954,-10.475 43.216,-25.141 66.787,-44c23.575,-18.858 44.263,-37.191 62.075,-55.004c2.096,-3.142 4.975,-6.283 8.642,-9.429c3.667,-3.142 8.646,-2.617 14.929,1.571c3.146,3.146 4.192,7.596 3.146,13.358c-1.05,5.763 -4.192,10.742 -9.429,14.929c-12.575,11.525 -26.192,23.575 -40.859,36.146c-14.67,12.571 -29.862,24.621 -45.575,36.146c-15.716,11.521 -31.429,22 -47.145,31.429c-15.713,9.429 -31.43,16.238 -47.146,20.429c-7.334,2.096 -12.309,5.5 -14.929,10.213c-2.617,4.716 -4.975,9.691 -7.071,14.929c-8.379,18.858 -17.546,37.454 -27.5,55.792c-9.954,18.333 -21.738,34.833 -35.359,49.5c-9.429,13.62 -19.645,26.191 -30.645,37.716c-11,11.525 -23.834,21.475 -38.5,29.859c-6.288,3.141 -12.834,6.287 -19.646,9.429c-6.809,3.141 -13.879,4.712 -21.213,4.712c-28.287,4.192 -46.621,-8.904 -55.004,-39.287c-3.142,-9.429 -5.237,-18.334 -6.287,-26.713c-1.046,-8.383 -1.571,-16.762 -1.571,-25.146c6.287,-102.67 38.241,-194.341 95.862,-275.012c7.334,-8.379 15.192,-16.238 23.571,-23.571c3.146,-1.05 8.908,-1.571 17.288,-1.571Zm94.291,150.863c3.142,-11.525 4.975,-22 5.5,-31.429c0.521,-9.43 -0.262,-19.384 -2.358,-29.859c-4.192,-22 -17.287,-37.191 -39.287,-45.575c-14.667,-3.141 -26.717,-1.046 -36.146,6.288c-9.429,7.333 -13.617,18.858 -12.571,34.571c1.05,20.954 9.429,37.716 25.146,50.287c15.712,12.575 35.621,17.813 59.716,15.717Z" style="fill:#0d0d0d;fill-rule:nonzero;"/><path d="M4760.58,1582.23c-4.191,5.238 -8.383,10.48 -12.575,15.717c-4.187,5.237 -8.904,10.475 -14.141,15.713c-38.763,38.766 -77.788,77.266 -117.075,115.508c-39.288,38.237 -79.363,76.217 -120.221,113.933c-11.525,11.521 -24.621,22.521 -39.288,33c-14.666,10.475 -29.333,20.429 -44,29.859c-8.383,5.237 -17.025,9.691 -25.929,13.358c-8.908,3.667 -18.075,7.071 -27.504,10.212c-14.667,4.192 -26.713,2.621 -36.142,-4.712c-9.429,-7.333 -15.191,-18.333 -17.287,-33.004c-1.05,-11.521 -1.309,-23.309 -0.788,-35.359c0.525,-12.045 0.788,-23.833 0.788,-35.358l-11,7.858c-12.575,13.621 -25.671,26.717 -39.288,39.288c-7.333,7.333 -15.191,13.883 -23.575,19.646c-8.379,5.758 -17.283,11.262 -26.712,16.5c-16.763,11.525 -32.479,13.358 -47.146,5.5c-14.667,-7.859 -20.954,-22.788 -18.858,-44.788c1.045,-29.337 5.5,-59.454 13.358,-90.362c7.858,-30.904 18.071,-61.55 30.642,-91.934c12.575,-30.379 26.191,-59.716 40.862,-88.004c14.667,-28.283 29.858,-53.429 45.571,-75.429c2.096,-3.146 4.717,-6.813 7.858,-11c3.142,-4.192 8.904,-5.242 17.288,-3.146c4.187,11.525 2.616,23.575 -4.717,36.146c-12.571,18.858 -26.712,42.692 -42.429,71.504c-15.717,28.809 -30.383,58.667 -44,89.575c-13.621,30.904 -24.358,60.763 -32.217,89.575c-7.858,28.809 -10.216,53.167 -7.071,73.075c1.046,18.859 10.475,24.096 28.284,15.713c7.333,-4.188 14.671,-8.38 22.004,-12.571c7.333,-4.192 14.142,-9.429 20.429,-15.717c12.571,-11.521 25.142,-24.096 37.717,-37.712c12.571,-13.621 25.141,-26.192 37.712,-37.717c3.146,-4.192 6.025,-8.646 8.646,-13.358c2.617,-4.713 4.975,-9.692 7.071,-14.929c5.237,-12.571 9.954,-25.405 14.142,-38.5c4.191,-13.096 9.429,-26.455 15.716,-40.075c4.192,-8.38 8.904,-16.5 14.142,-24.359c5.242,-7.858 10.479,-15.975 15.717,-24.358c1.045,-2.096 2.879,-3.929 5.5,-5.5c2.62,-1.571 4.975,-1.833 7.07,-0.788c2.096,2.096 4.192,4.717 6.288,7.859c2.096,3.146 2.617,5.762 1.571,7.858c-1.046,7.333 -2.096,14.404 -3.142,21.217c-1.05,6.808 -3.146,13.358 -6.287,19.641c-7.334,14.667 -15.192,29.338 -23.571,44.005c-8.384,14.666 -16.763,29.333 -25.146,43.999c-9.429,17.813 -15.454,36.146 -18.071,55.005c-2.621,18.858 -3.404,38.237 -2.358,58.145c0,24.096 12.05,31.43 36.146,22c20.954,-5.237 39.287,-13.62 55,-25.145c26.191,-17.809 51.075,-36.667 74.645,-56.571c23.575,-19.909 46.363,-40.863 68.363,-62.863c52.383,-50.287 103.192,-101.1 152.433,-152.433c6.288,-6.288 12.05,-12.833 17.288,-19.646c5.237,-6.808 11,-13.358 17.287,-19.642c8.379,-10.479 15.192,-12.575 20.429,-6.287c5.238,6.287 2.096,16.237 -9.429,29.858Z" style="fill:#0d0d0d;fill-rule:nonzero;"/><path d="M4975.88,1758.24l45.571,-42.429c10.479,-8.384 20.167,-17.55 29.075,-27.505c8.904,-9.95 17.546,-19.641 25.929,-29.07l91.146,-92.717c2.096,-2.096 4.192,-4.192 6.287,-6.288c2.092,-2.095 5.238,-4.191 9.425,-6.287c3.146,-3.142 7.596,-3.142 13.359,0c5.762,3.146 8.645,7.333 8.645,12.575c0,3.142 -1.833,6.283 -5.5,9.429c-3.666,3.142 -6.55,5.758 -8.645,7.854c-11.525,10.479 -26.713,25.929 -45.571,46.358c-18.859,20.434 -37.192,39.03 -55.004,55.792l-67.575,69.146l-29.859,25.142l-61.287,55.004c-17.809,16.762 -37.192,31.692 -58.146,44.787c-20.954,13.096 -42.429,25.405 -64.429,36.93c-9.429,5.237 -19.383,9.429 -29.858,12.57c-10.48,3.146 -20.955,5.763 -31.434,7.859c-28.283,3.141 -47.141,-11 -56.571,-42.429c-5.237,-20.955 -6.287,-46.1 -3.146,-75.434c4.192,-38.762 11.263,-77.266 21.217,-115.504c9.954,-38.242 21.217,-75.696 33.788,-112.362c16.762,-48.192 34.833,-95.863 54.216,-143.005c19.384,-47.145 40.075,-92.72 62.075,-136.72l29.859,-64.434c-2.096,-1.046 -4.192,-2.354 -6.288,-3.929c-2.096,-1.571 -4.192,-2.354 -6.283,-2.354c-31.434,-1.05 -62.863,-0.525 -94.292,1.571c-31.429,2.096 -61.812,7.333 -91.146,15.712c-19.908,5.242 -38.241,11.788 -55.004,19.646c-16.762,7.858 -32.475,18.071 -47.146,30.646c-12.571,-4.192 -15.712,-11.004 -9.429,-20.433c2.096,-4.188 4.979,-8.905 8.646,-14.142c3.667,-5.238 7.596,-8.904 11.787,-11c22,-11.525 44.525,-21.217 67.571,-29.075c23.05,-7.854 46.621,-12.833 70.721,-14.929c24.096,-4.188 48.713,-7.334 73.858,-9.425c25.146,-2.096 50.288,-2.621 75.434,-1.575c3.141,1.05 6.283,1.312 9.429,0.787c3.142,-0.525 7.333,-1.308 12.571,-2.358l47.146,-92.717c2.091,4.192 4.187,7.596 6.283,10.213c2.096,2.621 3.146,4.979 3.146,7.075c-3.146,14.666 -7.859,28.283 -14.146,40.858c-2.096,5.238 -4.192,10.475 -6.288,15.713c-2.091,5.237 -4.712,11 -7.854,17.287c24.096,5.238 47.142,8.383 69.146,9.429c22,1.046 44,1.046 66,0c106.863,-3.141 210.583,-24.621 311.158,-64.433c5.238,-3.142 10.738,-5.238 16.5,-6.283c5.763,-1.05 11.263,-2.621 16.5,-4.717c6.288,5.242 8.905,9.954 7.859,14.146c-1.046,4.191 -3.667,7.333 -7.859,9.429c-10.475,7.333 -20.954,12.571 -31.429,15.712c-55.525,22.005 -111.837,39.025 -168.937,51.075c-57.096,12.05 -117.075,17.55 -179.934,16.5c-18.858,-1.045 -37.716,-1.308 -56.575,-0.783c-18.858,0.521 -39.287,0.783 -61.287,0.783c-3.146,5.238 -6.55,11 -10.217,17.288c-3.666,6.287 -7.596,13.621 -11.783,22c-25.146,51.337 -48.979,102.408 -71.504,153.221c-22.525,50.812 -43.217,102.933 -62.075,156.362c-20.954,64.959 -38.763,132.009 -53.429,201.154c-3.146,18.859 -3.667,41.384 -1.571,67.575c2.091,18.855 7.854,31.167 17.283,36.93c9.429,5.762 23.575,6.025 42.433,0.783l33,-12.571c20.955,-10.475 41.905,-22 62.859,-34.571c20.954,-12.575 40.337,-27.241 58.146,-44.004l55.004,-48.717l-1.571,-3.141Z" style="fill:#0d0d0d;fill-rule:nonzero;"/><path d="M5210.04,1514.66c6.287,6.288 9.166,12.05 8.646,17.288c-0.525,5.237 -1.313,10.475 -2.359,15.716c-5.237,22 -10.479,42.43 -15.716,61.288c-4.192,12.571 -8.642,28.55 -13.359,47.929c-4.712,19.383 -9.429,39.288 -14.141,59.717c-4.717,20.429 -8.905,40.337 -12.571,59.716c-3.667,19.384 -6.55,35.359 -8.646,47.934c-3.142,20.95 -3.142,41.904 0,62.858c3.146,26.192 17.812,34.571 44.004,25.146c5.238,-2.096 10.213,-4.717 14.929,-7.858c4.713,-3.146 9.167,-5.763 13.359,-7.859c36.666,-25.146 71.5,-52.908 104.504,-83.287c33,-30.383 64.691,-62.338 95.075,-95.863l121.004,-139.862c3.141,-4.192 6.55,-7.859 10.217,-11c3.666,-3.146 8.116,-3.667 13.354,-1.575c4.191,6.287 4.979,11.525 2.358,15.717c-2.617,4.191 -6.025,8.904 -10.213,14.141c-6.287,8.383 -11.262,14.671 -14.929,18.859l-35.358,40.858c-20.954,24.1 -41.383,47.408 -61.292,69.933c-19.904,22.525 -40.333,44.788 -61.287,66.788c-24.096,27.241 -50.025,52.383 -77.788,75.433c-27.762,23.05 -56.837,44.525 -87.221,64.429c-15.712,10.479 -30.379,15.192 -44,14.146c-25.145,0 -40.858,-12.05 -47.145,-36.146c-4.192,-14.667 -5.763,-29.858 -4.713,-45.571c1.046,-15.716 2.617,-30.908 4.713,-45.575c2.095,-17.808 5.762,-39.025 11,-63.646c5.241,-24.62 11,-50.024 17.287,-76.216c6.288,-26.192 12.833,-51.6 19.646,-76.217c6.808,-24.621 13.354,-45.837 19.642,-63.646l4.716,-15.716l6.284,-7.859Zm48.716,-116.287c-5.237,12.571 -11,24.879 -17.287,36.929c-6.283,12.046 -13.617,23.833 -22,35.358c-1.046,0 -1.833,-0.262 -2.358,-0.787c-0.521,-0.521 -1.309,-0.784 -2.355,-0.784c-1.05,-2.095 -2.095,-4.716 -3.145,-7.858c-1.046,-3.142 -0.521,-5.762 1.575,-7.858c3.141,-9.429 6.545,-18.596 10.212,-27.5c3.667,-8.904 8.121,-18.071 13.358,-27.5c5.238,-9.429 12.571,-9.429 22,0Z" style="fill:#0d0d0d;fill-rule:nonzero;"/><path d="M5712.92,1588.52c-17.809,-22 -35.096,-35.096 -51.859,-39.288c-16.762,-4.191 -35.62,1.046 -56.575,15.713c-79.62,51.337 -119.958,123.104 -121.004,215.296c0,8.383 1.571,17.287 4.713,26.716c1.05,6.288 4.191,11 9.429,14.142c5.237,3.146 11,3.667 17.287,1.571c5.238,-2.092 9.954,-3.925 14.142,-5.5c4.192,-1.571 7.858,-3.925 11.004,-7.071c8.379,-5.237 17.809,-14.142 28.284,-26.717l133.579,-176.004l11,-18.858Zm11,194.862c-3.142,1.05 -6.025,2.359 -8.642,3.929c-2.621,1.575 -6.025,3.409 -10.217,5.5c0,3.146 -0.52,6.288 -1.57,9.43c-1.046,3.145 -1.046,6.287 -0.001,9.429c7.334,36.671 9.43,74.125 6.288,112.362c-3.146,38.242 -8.908,75.696 -17.287,112.363c-14.667,62.858 -33,124.408 -55.005,184.65c-22,60.241 -48.191,119.171 -78.575,176.796l-26.712,42.429c-3.146,4.191 -6.288,8.121 -9.429,11.787c-3.146,3.667 -6.813,7.071 -11,10.213c-11.525,8.383 -22.263,10.479 -32.217,6.287c-9.954,-4.191 -15.979,-12.575 -18.071,-25.146c-1.05,-5.237 -1.575,-10.737 -1.575,-16.499l0,-16.501c-2.091,-25.145 -1.571,-50.024 1.575,-74.645c3.142,-24.621 7.334,-48.979 12.571,-73.075c5.238,-33.525 12.046,-66.005 20.429,-97.434c8.379,-31.429 17.809,-62.858 28.288,-94.287c19.904,-60.767 41.383,-119.959 64.429,-177.579c23.05,-57.625 49.242,-114.196 78.575,-169.725c3.146,-5.238 5.762,-11.263 7.858,-18.071c2.096,-6.809 4.192,-12.834 6.288,-18.071c1.046,-1.05 0,-3.667 -3.146,-7.858c-6.283,8.383 -12.571,16.762 -18.858,25.145c-6.284,8.38 -12.571,16.238 -18.855,23.571l-69.145,89.575c-13.621,16.763 -29.859,28.288 -48.717,34.571c-28.288,6.288 -46.621,-3.142 -55.004,-28.283c-3.142,-10.479 -4.713,-20.954 -4.713,-31.434c2.092,-105.812 43.475,-189.1 124.146,-249.866c2.096,-2.096 3.142,-3.142 3.142,-3.142c22.004,-14.667 43.741,-22.262 65.221,-22.787c21.474,-0.525 43.212,9.691 65.216,30.645c3.142,2.096 5.238,4.713 6.283,7.855c1.05,3.145 2.621,6.812 4.717,11.004l51.858,-44.004c2.096,-1.046 4.455,-1.571 7.071,-1.571c2.621,0 4.454,1.046 5.5,3.141c2.096,2.096 3.146,6.813 3.146,14.146c0,1.046 -0.525,1.571 -1.575,1.571c-1.046,0 -1.571,0.525 -1.571,1.571c-34.571,45.05 -63.908,92.979 -88.004,143.792c-24.096,50.812 -48.192,101.362 -72.287,151.65c-29.334,59.716 -54.48,121.529 -75.434,185.437c-20.95,63.904 -39.287,128.863 -55,194.863c-7.333,30.383 -13.621,60.766 -18.858,91.15c-5.238,30.379 -7.333,61.287 -6.288,92.716c0,6.288 0.263,12.571 0.788,18.859c0.525,6.283 4.454,12.045 11.787,17.287c9.43,-1.05 16.238,-4.192 20.43,-9.429c4.187,-5.242 8.379,-11 12.57,-17.288c7.334,-11.525 14.405,-23.05 21.217,-34.575c6.809,-11.52 12.833,-23.57 18.071,-36.141c55.525,-113.15 94.287,-229.963 116.292,-350.446c5.237,-23.046 7.854,-45.308 7.854,-66.788c0,-21.475 -1.046,-43.216 -3.142,-65.216c-1.046,-10.475 -1.833,-20.692 -2.358,-30.646c-0.521,-9.95 -0.258,-20.167 0.787,-30.642c0,-19.908 11,-34.05 33,-42.433c58.671,-20.95 113.671,-44.788 165.009,-71.5c51.337,-26.717 101.1,-58.408 149.291,-95.075c5.238,-4.192 10.738,-8.121 16.5,-11.788c5.763,-3.666 11.263,-7.07 16.5,-10.216l11.005,0c0,3.146 0.258,6.025 0.783,8.646c0.525,2.616 -0.263,4.975 -2.358,7.07c-4.188,5.238 -8.38,10.217 -12.571,14.93c-4.192,4.712 -8.904,9.166 -14.142,13.358c-51.337,40.858 -103.721,74.646 -157.15,101.362c-53.433,26.713 -108.433,51.071 -165.008,73.071Z" style="fill:#0d0d0d;fill-rule:nonzero;"/><path d="M6577.25,1582.23c-4.188,5.238 -8.379,10.48 -12.571,15.717c-4.191,5.237 -8.904,10.475 -14.141,15.713c-38.767,38.766 -77.792,77.266 -117.08,115.508c-39.287,38.237 -79.358,76.217 -120.216,113.933c-11.525,11.521 -24.621,22.521 -39.288,33c-14.667,10.475 -29.337,20.429 -44.004,29.859c-8.379,5.237 -17.025,9.691 -25.929,13.358c-8.904,3.667 -18.071,7.071 -27.5,10.212c-14.667,4.192 -26.717,2.621 -36.146,-4.712c-9.429,-7.333 -15.192,-18.333 -17.287,-33.004c-1.046,-11.521 -1.309,-23.309 -0.784,-35.359c0.525,-12.045 0.784,-23.833 0.784,-35.358l-11.001,7.858c-12.57,13.621 -25.666,26.717 -39.287,39.288c-7.333,7.333 -15.188,13.883 -23.571,19.646c-8.383,5.758 -17.287,11.262 -26.716,16.5c-16.763,11.525 -32.475,13.358 -47.142,5.5c-14.671,-7.859 -20.954,-22.788 -18.859,-44.788c1.046,-29.337 5.501,-59.454 13.355,-90.362c7.858,-30.904 18.075,-61.55 30.646,-91.934c12.57,-30.379 26.191,-59.716 40.858,-88.004c14.667,-28.283 29.858,-53.429 45.575,-75.429c2.096,-3.146 4.712,-6.813 7.858,-11c3.142,-4.192 8.904,-5.242 17.284,-3.146c4.191,11.525 2.62,23.575 -4.713,36.146c-12.571,18.858 -26.717,42.692 -42.429,71.504c-15.717,28.809 -30.383,58.667 -44.004,89.575c-13.621,30.904 -24.359,60.763 -32.217,89.575c-7.854,28.809 -10.212,53.167 -7.071,73.075c1.05,18.859 10.479,24.096 28.288,15.713c7.333,-4.188 14.666,-8.38 22,-12.571c7.333,-4.192 14.146,-9.429 20.429,-15.717c12.575,-11.521 25.146,-24.096 37.717,-37.712c12.57,-13.621 25.145,-26.192 37.716,-37.717c3.142,-4.192 6.025,-8.646 8.642,-13.358c2.621,-4.713 4.979,-9.692 7.075,-14.929c5.237,-12.571 9.95,-25.405 14.142,-38.5c4.191,-13.096 9.429,-26.455 15.716,-40.075c4.188,-8.38 8.904,-16.5 14.142,-24.359c5.237,-7.858 10.475,-15.975 15.717,-24.358c1.045,-2.096 2.879,-3.929 5.5,-5.5c2.616,-1.571 4.975,-1.833 7.07,-0.788c2.096,2.096 4.192,4.717 6.284,7.859c2.096,3.146 2.621,5.762 1.575,7.858c-1.05,7.333 -2.096,14.404 -3.146,21.217c-1.046,6.808 -3.142,13.358 -6.283,19.641c-7.334,14.667 -15.192,29.338 -23.575,44.005c-8.38,14.666 -16.763,29.333 -25.142,43.999c-9.429,17.813 -15.454,36.146 -18.075,55.005c-2.617,18.858 -3.404,38.237 -2.354,58.145c0,24.096 12.046,31.43 36.141,22c20.955,-5.237 39.288,-13.62 55.005,-25.145c26.191,-17.809 51.075,-36.667 74.645,-56.571c23.571,-19.909 46.359,-40.863 68.359,-62.863c52.383,-50.287 103.195,-101.1 152.437,-152.433c6.283,-6.288 12.046,-12.833 17.288,-19.646c5.237,-6.808 11,-13.358 17.283,-19.642c8.383,-10.479 15.192,-12.575 20.429,-6.287c5.242,6.287 2.096,16.237 -9.429,29.858Z" style="fill:#0d0d0d;fill-rule:nonzero;"/><path d="M6932.42,1553.95c0,5.237 0.525,9.429 1.57,12.575c1.051,3.141 1.051,5.758 0.001,7.854c-2.092,5.242 -4.45,9.954 -7.071,14.146c-2.617,4.191 -6.025,7.858 -10.213,11c-14.667,13.621 -31.429,28.808 -50.287,45.575c-18.859,16.762 -37.979,33.262 -57.363,49.5c-19.379,16.237 -39.025,31.691 -58.929,46.358c-19.904,14.667 -38.762,27.242 -56.575,37.717c-13.621,7.333 -26.975,14.141 -40.071,20.429c-13.096,6.287 -26.454,13.621 -40.075,22c-22,9.429 -43.479,13.621 -64.429,12.575c-14.671,-1.05 -27.504,-6.025 -38.504,-14.929c-11,-8.909 -17.546,-20.692 -19.642,-35.363c0,-9.425 -0.262,-18.854 -0.787,-28.283c-0.525,-9.429 -0.263,-19.383 0.787,-29.858c4.188,-29.338 11.521,-57.625 22,-84.863c10.475,-27.237 26.192,-52.383 47.146,-75.433c28.283,-26.192 59.717,-38.763 94.288,-37.713c5.237,0 13.095,1.046 23.575,3.142c22,10.475 29.333,26.192 22,47.146c-3.146,8.379 -6.288,16.237 -9.43,23.571c-3.141,7.333 -7.333,13.62 -12.57,18.858c-38.767,51.333 -89.58,89.05 -152.438,113.146l-12.571,6.287c0,4.192 -0.262,8.642 -0.787,13.359c-0.521,4.712 -0.263,9.691 0.787,14.929c1.046,10.475 5.5,19.121 13.359,25.929c7.858,6.808 17.024,9.167 27.499,7.071c10.475,-1.046 20.692,-2.359 30.646,-3.929c9.95,-1.571 20.167,-4.45 30.642,-8.642c25.146,-11.525 49.767,-24.358 73.863,-38.5c24.095,-14.146 47.666,-30.121 70.716,-47.933c10.475,-8.38 22.525,-18.596 36.142,-30.642l84.862,-73.863c13.621,-12.045 25.667,-22.262 36.146,-30.641l15.713,-12.575Zm-414.875,146.15l6.287,0c2.096,0 3.667,-0.263 4.713,-0.788c1.05,-0.52 2.621,-0.783 4.716,-0.783c45.05,-18.858 84.338,-46.621 117.863,-83.292c4.192,-5.237 8.379,-9.95 12.571,-14.141c4.191,-4.192 7.858,-9.429 11,-15.717c5.237,-7.333 6.55,-13.617 3.929,-18.854c-2.617,-5.242 -8.121,-8.383 -16.5,-9.429c-5.238,-1.05 -10.475,-1.313 -15.717,-0.788c-5.237,0.525 -10.475,1.309 -15.712,2.359c-20.954,5.237 -38.763,14.404 -53.434,27.5c-14.666,13.095 -27.237,28.55 -37.712,46.358c-5.242,10.479 -9.954,21.479 -14.146,33.004c-4.192,11.521 -6.808,23.046 -7.858,34.571Z" style="fill:#0d0d0d;fill-rule:nonzero;"/></g></svg>