<?xml version="1.0" encoding="UTF-8" standalone="no"?><!DOCTYPE svg PUBLIC "-//W3C//DTD SVG 1.1//EN" "http://www.w3.org/Graphics/SVG/1.1/DTD/svg11.dtd"><svg width="100%" height="100%" viewBox="0 0 750 750" version="1.1" xmlns="http://www.w3.org/2000/svg" xmlns:xlink="http://www.w3.org/1999/xlink" xml:space="preserve" xmlns:serif="http://www.serif.com/" style="fill-rule:evenodd;clip-rule:evenodd;stroke-linejoin:round;stroke-miterlimit:2;"><rect x="0" y="0" width="750" height="750" style="fill:#2b2b2b;"/><g><path d="M539.716,432.456c-19.733,-16.331 -41.506,-34.021 -59.877,-51.032c19.732,-30.619 33.34,-76.207 41.505,-114.311c4.763,-22.454 8.846,-44.907 11.567,-68.722c2.042,-12.928 13.609,-22.454 22.454,-22.454l0,-6.804l-70.083,0l0,6.804c10.887,0 21.773,11.567 21.773,23.134c0,19.732 -7.484,95.94 -44.227,168.745c-43.547,-34.702 -89.135,-72.805 -130.641,-107.507c51.712,-29.938 70.084,-68.722 70.084,-102.063c0,-51.712 -37.424,-102.743 -106.146,-102.743c-57.155,0 -100.022,44.907 -100.022,97.3c0,38.103 24.495,72.805 68.042,108.867c-74.166,35.382 -103.424,76.888 -103.424,139.486c0,58.516 48.31,111.589 129.961,111.589c63.279,0 113.63,-26.536 162.62,-92.537l67.362,53.073c23.815,18.371 48.31,33.34 83.011,33.34l38.104,0l0,-6.804c-12.928,0 -29.939,-10.887 -45.588,-21.773c-8.846,-6.124 -17.691,-13.609 -27.217,-21.774l-29.258,-23.814Zm-301.427,-281.695c-2.041,-4.763 -1.361,-8.845 -1.361,-13.608c0,-32.66 19.052,-59.877 48.991,-59.877c54.433,0 80.97,45.588 80.97,88.455c0,27.897 -19.732,61.918 -55.114,76.207c-33.341,-27.897 -67.362,-59.197 -73.486,-91.177Zm72.125,338.169c-60.558,-2.041 -106.826,-53.072 -106.826,-101.382c0,-40.145 25.856,-81.651 80.97,-108.187l152.414,126.558c-36.062,48.99 -82.331,83.011 -126.558,83.011Z" style="fill:#f7f7f7;fill-rule:nonzero;"/></g><path d="M295.081,658.88l-2.943,0c-1.472,11.186 -15.896,25.609 -38.267,25.609c-31.497,0 -50.924,-29.141 -50.924,-58.283c0,-24.726 15.601,-49.453 47.98,-49.453c15.013,0 32.674,7.948 36.501,22.961l2.943,0l0,-22.372c-3.532,0 -6.77,-1.177 -10.302,-3.238c-6.182,-3.238 -14.718,-7.359 -29.142,-7.359c-42.388,0 -67.114,30.319 -67.114,63.876c0,36.207 29.142,63.876 69.469,63.876c16.484,0 25.904,-5.298 32.674,-9.125c3.532,-2.06 5.887,-3.532 9.125,-3.532l0,-22.96Z" style="fill:#f7f7f7;fill-rule:nonzero;"/><path d="M420.773,694.497c42.977,0 65.937,-32.085 65.937,-65.936c0,-36.206 -26.493,-61.816 -64.171,-61.816c-37.678,0 -65.937,26.198 -65.937,64.759c0,35.912 25.315,62.993 64.171,62.993Zm-1.766,-118.038c33.263,0 49.158,29.73 49.158,55.634c0,25.021 -15.012,52.691 -44.448,52.691c-29.142,0 -47.981,-27.376 -47.981,-56.518c0,-25.315 15.012,-50.335 43.271,-51.807Z" style="fill:#f7f7f7;fill-rule:nonzero;"/><path d="M535.279,679.779c0,7.948 5.887,13.835 13.835,13.835c7.948,0 14.129,-5.887 14.129,-13.835c0,-7.947 -6.181,-14.129 -14.129,-14.129c-7.948,0 -13.835,6.182 -13.835,14.129Z" style="fill:#f7f7f7;fill-rule:nonzero;"/></svg>