<svg viewBox="0 0 1132 313" xmlns="http://www.w3.org/2000/svg" fill-rule="evenodd" clip-rule="evenodd" stroke-linejoin="round" stroke-miterlimit="1.4142">
  <g fill="#fbf1ec" fill-rule="nonzero">
    <path d="M130.491 279.67c3.078 0 5.842-.43 8.292-1.29 2.45-.86 4.527-2.05 6.232-3.57s3.012-3.32 3.923-5.39c.91-2.07 1.365-4.33 1.365-6.78 0-5.39-1.655-9.55-4.965-12.46-3.311-2.91-8.26-4.37-14.847-4.37h-13.06v33.86h13.06zm0-37.88c8.242 0 14.458 1.8 18.645 5.41 4.188 3.61 6.282 8.76 6.282 15.44 0 3.08-.58 5.91-1.738 8.49-1.159 2.59-2.814 4.81-4.966 6.68s-4.767 3.33-7.845 4.37c-3.079 1.04-6.538 1.57-10.378 1.57h-13.06v28.3h-5.114v-70.26h18.174zM243.804 241.79v70.26h-5.115v-33.67h-43.994v33.67h-5.115v-70.26h5.115v32.77h43.994v-32.77h5.115zM346.838 276.89c0 5.43-.811 10.36-2.433 14.78-1.622 4.42-3.906 8.19-6.852 11.32-2.946 3.13-6.48 5.54-10.602 7.25-4.121 1.7-8.664 2.56-13.63 2.56-4.965 0-9.501-.86-13.605-2.56-4.105-1.71-7.631-4.12-10.577-7.25-2.946-3.13-5.23-6.9-6.852-11.32-1.622-4.42-2.434-9.35-2.434-14.78 0-5.39.812-10.3 2.434-14.72s3.906-8.19 6.852-11.32c2.946-3.13 6.472-5.55 10.577-7.27 4.104-1.73 8.64-2.59 13.605-2.59 4.966 0 9.509.86 13.63 2.56 4.122 1.71 7.656 4.13 10.602 7.28 2.946 3.14 5.23 6.92 6.852 11.34 1.622 4.42 2.433 9.33 2.433 14.72zm-5.263 0c0-4.9-.679-9.3-2.036-13.2-1.357-3.91-3.277-7.22-5.76-9.94-2.483-2.71-5.462-4.79-8.938-6.23-3.476-1.44-7.316-2.16-11.52-2.16-4.171 0-7.994.72-11.47 2.16-3.476 1.44-6.464 3.52-8.963 6.23-2.499 2.72-4.436 6.03-5.81 9.94-1.373 3.9-2.06 8.3-2.06 13.2 0 4.94.687 9.35 2.06 13.24 1.374 3.89 3.311 7.19 5.81 9.9 2.499 2.72 5.487 4.79 8.963 6.21 3.476 1.42 7.299 2.14 11.47 2.14 4.204 0 8.044-.72 11.52-2.14 3.476-1.42 6.455-3.49 8.938-6.21 2.483-2.71 4.403-6.01 5.76-9.9 1.357-3.89 2.036-8.3 2.036-13.24zM424.449 246.11h-24.678v65.94h-5.115v-65.94h-24.827v-4.32h54.62v4.32zM514.425 276.89c0 5.43-.812 10.36-2.434 14.78s-3.906 8.19-6.852 11.32c-2.946 3.13-6.48 5.54-10.601 7.25-4.122 1.7-8.665 2.56-13.631 2.56-4.965 0-9.5-.86-13.605-2.56-4.105-1.71-7.631-4.12-10.577-7.25-2.946-3.13-5.23-6.9-6.852-11.32-1.622-4.42-2.433-9.35-2.433-14.78 0-5.39.811-10.3 2.433-14.72 1.622-4.42 3.906-8.19 6.852-11.32 2.946-3.13 6.472-5.55 10.577-7.27 4.105-1.73 8.64-2.59 13.605-2.59 4.966 0 9.509.86 13.631 2.56 4.121 1.71 7.655 4.13 10.601 7.28 2.946 3.14 5.23 6.92 6.852 11.34 1.622 4.42 2.434 9.33 2.434 14.72zm-5.264 0c0-4.9-.679-9.3-2.036-13.2-1.357-3.91-3.277-7.22-5.76-9.94-2.483-2.71-5.462-4.79-8.938-6.23-3.476-1.44-7.316-2.16-11.52-2.16-4.171 0-7.994.72-11.47 2.16-3.476 1.44-6.464 3.52-8.963 6.23-2.499 2.72-4.436 6.03-5.809 9.94-1.374 3.9-2.061 8.3-2.061 13.2 0 4.94.687 9.35 2.061 13.24 1.373 3.89 3.31 7.19 5.809 9.9 2.499 2.72 5.487 4.79 8.963 6.21 3.476 1.42 7.299 2.14 11.47 2.14 4.204 0 8.044-.72 11.52-2.14 3.476-1.42 6.455-3.49 8.938-6.21 2.483-2.71 4.403-6.01 5.76-9.9 1.357-3.89 2.036-8.3 2.036-13.24zM606.589 280.17v24.98c-3.51 2.48-7.25 4.38-11.23 5.71-3.97 1.32-8.44 1.98-13.4 1.98-5.57 0-10.56-.85-15-2.55-4.43-1.71-8.22-4.12-11.35-7.25-3.12-3.13-5.52-6.91-7.2-11.35-1.67-4.43-2.5-9.37-2.5-14.8 0-5.43.82-10.35 2.46-14.77 1.63-4.42 3.98-8.19 7.05-11.32 3.06-3.13 6.76-5.54 11.09-7.25 4.34-1.7 9.22-2.56 14.65-2.56 2.68 0 5.16.19 7.43.55 2.26.36 4.37.9 6.33 1.61 1.95.72 3.77 1.59 5.46 2.64 1.69 1.04 3.31 2.24 4.87 3.6l-1.4 2.18c-.46.79-1.15.98-2.08.55-.5-.2-1.21-.67-2.14-1.39-.92-.73-2.2-1.49-3.82-2.29-1.62-.79-3.63-1.5-6.03-2.13-2.4-.63-5.32-.95-8.77-.95-4.56 0-8.69.73-12.39 2.19-3.69 1.45-6.83 3.54-9.43 6.25-2.6 2.72-4.6 6.03-6.01 9.94-1.41 3.9-2.11 8.29-2.11 13.15 0 4.94.7 9.37 2.11 13.31 1.41 3.94 3.44 7.28 6.11 10.03 2.66 2.75 5.9 4.85 9.71 6.31 3.8 1.45 8.09 2.18 12.86 2.18 2.08 0 4.01-.13 5.78-.39 1.77-.27 3.46-.64 5.07-1.12 1.6-.48 3.16-1.08 4.66-1.79 1.51-.71 3.04-1.51 4.6-2.41v-18.92h-13.46c-.36 0-.67-.11-.92-.34-.25-.24-.37-.5-.37-.8v-2.78h19.37zM660.609 276.5c3.11 0 5.9-.38 8.37-1.12 2.46-.74 4.55-1.81 6.25-3.2 1.71-1.39 3.01-3.06 3.9-5.02.9-1.95 1.34-4.15 1.34-6.6 0-5-1.63-8.71-4.89-11.13-3.26-2.41-8.02-3.62-14.27-3.62h-12.86v30.69h12.16zm31.18 35.55h-4.37c-.56 0-1.03-.09-1.41-.27-.38-.18-.74-.52-1.07-1.02l-22.54-28.5c-.27-.37-.54-.68-.82-.95-.28-.26-.6-.47-.95-.62-.34-.15-.76-.25-1.24-.32s-1.06-.1-1.76-.1h-9.18v31.78h-5.12v-70.26h17.98c8.07 0 14.12 1.56 18.14 4.69 4.03 3.13 6.04 7.72 6.04 13.78 0 2.68-.47 5.13-1.39 7.35-.93 2.22-2.26 4.16-4 5.83-1.74 1.68-3.84 3.04-6.31 4.1-2.46 1.06-5.23 1.77-8.31 2.13.79.5 1.5 1.16 2.13 1.99l24.18 30.39zM761.359 286.53l-14.3-35.51c-.5-1.15-.98-2.55-1.44-4.17-.2.8-.41 1.55-.65 2.26-.23.71-.48 1.37-.74 1.96l-14.3 35.46h31.43zm15.54 25.52h-3.92c-.46 0-.84-.12-1.14-.37-.3-.25-.53-.57-.7-.97l-8.24-20.41h-34.51l-8.24 20.41c-.14.36-.37.68-.7.94-.33.27-.73.4-1.19.4h-3.87l28.75-70.26h5.01l28.75 70.26zM826.609 279.67c3.08 0 5.84-.43 8.29-1.29 2.45-.86 4.53-2.05 6.23-3.57 1.71-1.52 3.01-3.32 3.92-5.39.92-2.07 1.37-4.33 1.37-6.78 0-5.39-1.65-9.55-4.97-12.46-3.31-2.91-8.25-4.37-14.84-4.37h-13.06v33.86h13.06zm0-37.88c8.24 0 14.46 1.8 18.64 5.41 4.19 3.61 6.28 8.76 6.28 15.44 0 3.08-.57 5.91-1.73 8.49-1.16 2.59-2.82 4.81-4.97 6.68s-4.77 3.33-7.84 4.37c-3.08 1.04-6.54 1.57-10.38 1.57h-13.06v28.3h-5.12v-70.26h18.18zM939.919 241.79v70.26h-5.11v-33.67h-44v33.67h-5.11v-70.26h5.11v32.77h44v-32.77h5.11zM1002.239 283.1v28.95h-5.07V283.1l-26.02-41.31h4.47c.47 0 .85.11 1.15.32.29.22.54.52.74.92l20.11 32.28c.43.76.83 1.49 1.19 2.2.37.72.68 1.42.95 2.12.26-.7.56-1.4.89-2.12.33-.71.71-1.44 1.14-2.2l20.11-32.28c.17-.36.41-.66.72-.89.32-.24.7-.35 1.17-.35h4.47l-26.02 41.31z"/>
  </g>
  <g fill="#fbf1ec" fill-rule="nonzero">
    <path d="M35.694 21.8035c0-13.363 3.0477-16.4107 19.927-16.4107.938 0 .938-2.8133 0-2.8133-7.2676 0-16.8793.703-27.664.703-10.3153 0-19.927-.703-27.429-.703-.7036 0-.7036 2.8133 0 2.8133 17.1137 0 19.927 2.8133 19.927 16.1763v108.5456c0 13.5973-2.8133 16.1763-19.927 16.1763-.7036 0-.7036 2.8133 0 2.8133h108.3113c2.8133 0 3.5163-.938 3.5163-3.5163 0-10.081 1.1723-23.444 2.1097-32.1183 0-.938-2.5784-1.1723-2.5784-.235-3.2826 18.521-13.598 30.9466-31.884 30.9466H54.4488c-15.9413 0-18.7547-2.1103-18.7547-15.0046V21.8035zM214.1028 136.4443c-4.9236 2.1104-8.6743 3.0477-11.4876 3.0477-6.5647 0-9.1437-4.923-9.1437-15.707V79.9447c0-15.0046-6.564-23.6783-19.4583-23.6783-15.7076 0-42.668 12.6593-42.668 24.3813 0 3.517 2.3447 7.0334 7.7364 7.0334 6.5646 0 8.2056-5.1574 8.9087-9.6124 1.4066-6.7983 5.6266-17.348 17.583-17.348 8.9086 0 14.7696 6.7984 14.7696 26.2573v15.9414l-25.788 9.6123c-17.1143 6.3297-24.1476 12.66-24.1476 22.0373 0 8.9087 6.3303 16.1763 18.2866 16.1763 6.7983 0 12.1907-2.1097 19.6927-7.0333l12.1913-7.9707c.9373 9.8467 4.6886 15.2384 8.4393 15.2384.938 0 1.4067-.2344 1.876-.4687l24.147-11.4877c1.4066-.703.4693-3.0476-.9374-2.579zm-43.606 1.876c-4.9236 2.8133-7.9712 3.7507-11.2532 3.7507-8.2057 0-13.1287-6.0953-13.1287-13.363 0-6.0953 3.7513-10.5497 12.4257-14.0666l21.8023-8.4394v26.2573l-9.846 5.861zM329.213 135.7413c-5.3955 2.1097-9.3799 3.282-12.4256 3.282-5.8617 0-8.205-4.4543-8.205-15.004V58.3761c0-.938-1.4048-1.8754-2.3434-1.8754-.2363 0-.2363 0-.7024.2344l-26.0261 11.722c-1.4048.4686-.2363 3.282.9386 2.8133 3.282-1.641 6.0979-2.3447 7.9687-2.3447 5.3956 0 7.0366 5.158 7.0366 17.3487v40.7926c-8.4413 9.143-19.226 14.5353-29.3082 14.5353-13.128 0-19.692-8.6743-19.692-27.1953V58.376c0-.938-1.641-1.8753-2.3434-1.8753-.2363 0-.4661 0-.9386.2344l-26.0217 11.722c-1.1723.4686 0 3.282 1.1717 2.8133 3.2826-1.641 5.861-2.3447 7.9713-2.3447 5.1573 0 7.0333 5.158 7.0333 17.3487v35.8696c0 18.9896 9.3793 28.8357 24.8506 28.8357 12.8918 0 24.8513-6.0954 37.277-19.927v.9373c0 12.66 3.9843 19.459 6.564 19.459.2362 0 .466 0 .9386-.235l27.4245-12.8937c1.1749-.7036.2363-3.0477-1.1685-2.579zM395.5618 56.5007c-6.564 0-12.8981 4.22-26.0261 19.4584v-.2344c0-12.4256-4.4505-19.224-6.8003-19.224-.2299 0-.7024 0-1.4047.2344L334.136 69.6294c-1.4047.703-.2362 3.0477 1.1685 2.5783 5.3955-2.1096 9.6162-3.5163 12.6619-3.5163 6.0979 0 8.205 4.6887 8.205 15.004v46.4193c0 13.363-2.3434 16.1763-14.5327 16.1763-.9387 0-.9387 2.8133 0 2.8133 5.389 0 13.128-.4687 21.333-.4687 11.0209 0 21.8055.4687 29.3081.4687 1.1685 0 1.1685-2.8133 0-2.8133-19.2259 0-22.7441-2.8133-22.7441-16.1763v-50.17c10.3185-11.9563 13.3642-13.598 17.1124-13.598 7.7389 0 9.1436 7.0334 15.7076 7.0334 5.1593 0 7.7389-3.282 7.7389-7.2677 0-5.3917-7.9688-9.6117-14.5328-9.6117zM497.5402 135.9757c-6.8003 4.22-12.8918 7.7363-23.4465 7.7363-23.6764 0-36.5682-19.224-36.5682-45.7156 0-3.0477.2299-5.861.4661-8.44l58.1438-.2343c2.1072 0 2.5797-1.8754 2.5797-6.0954 0-16.645-9.38-26.726-27.1947-26.726-27.4309 0-49.4663 22.0374-49.4663 50.4043 0 22.9753 14.769 45.0126 42.896 45.0126 11.9594 0 23.2102-3.9856 34.231-13.5973.7025-.938-.9385-2.8133-1.641-2.3446zm-33.7587-74.7863c11.7233 0 19.226 8.2057 19.226 24.382l-44.5434.9373c2.8095-15.942 11.717-25.3193 25.3174-25.3193zM625.3084 146.291c-12.1894 0-14.5327-2.8133-14.5327-16.1763v-45.95c0-18.7553-9.846-28.602-27.1947-28.602-12.4256 0-23.9126 6.3297-35.8721 20.162 0-12.4256-4.4505-19.224-6.8003-19.224-.2299 0-.7024 0-1.4048.2344l-27.1946 12.8943c-1.4048.703-.2363 3.0477 1.1749 2.5783 5.3891-2.1096 9.6097-3.5163 12.6555-3.5163 6.0979 0 8.205 4.6887 8.205 15.004v46.4193c0 13.363-2.3434 16.1763-14.5328 16.1763-.9386 0-.9386 2.8133 0 2.8133 5.3955 0 13.128-.4687 21.333-.4687 7.9752 0 15.7077.4687 21.1032.4687.9386 0 .9386-2.8133 0-2.8133-12.1958 0-14.5391-2.8133-14.5391-16.1763V79.7104c8.205-9.1437 18.5235-14.5353 28.1332-14.5353 14.769 0 21.5693 8.4393 21.5693 26.9603v37.9793c0 13.363-2.3434 16.1763-14.5328 16.1763-.9386 0-.9386 2.8133 0 2.8133 5.3892 0 13.128-.4687 21.333-.4687 7.9688 0 15.7077.4687 21.0968.4687.9387 0 .9387-2.8133 0-2.8133zM780.9801 151.9176c15.4714 0 33.5224-2.8133 49.7026-6.3296 2.107-.7037 2.5732-.938 2.5732-2.8134 0-3.7513-1.641-4.9236-1.641-20.6306 0-24.8506.7088-27.664 11.7233-27.4296 1.641 0 1.4047-3.282 0-3.282-18.051.9373-32.82.9373-52.7483-.4693-1.641 0-1.641 3.7513.2362 3.7513 24.8513 0 26.7222 2.579 26.7222 25.085 0 20.865-7.9688 28.6019-30.2404 28.6019-48.764 0-72.4404-38.4486-72.4404-76.8966 0-41.7306 28.5994-67.7529 65.4102-67.7529 28.3632 0 42.4298 15.942 48.7576 38.448.4725 1.1723 2.8158.703 2.8158-.2344l-2.8158-27.664c-.2299-3.7513-.2299-3.7513-2.5733-5.158-9.8524-5.861-25.0875-9.143-41.7338-9.143-49.4663 0-87.9117 28.602-87.9117 75.0207 0 41.7306 30.9428 76.8965 84.1636 76.8965zM917.1896 56.5007c-6.564 0-12.8981 4.22-26.0261 19.4584v-.2344c0-12.4256-4.4505-19.224-6.794-19.224-.2362 0-.7087 0-1.411.2344l-27.1947 12.8943c-1.4048.703-.2363 3.0477 1.1749 2.5783 5.3891-2.1096 9.6097-3.5163 12.6555-3.5163 6.0979 0 8.205 4.6887 8.205 15.004v46.4193c0 13.363-2.3434 16.1763-14.5328 16.1763-.9386 0-.9386 2.8133 0 2.8133 5.3892 0 13.128-.4687 21.333-.4687 11.021 0 21.8056.4687 29.3082.4687 1.1685 0 1.1685-2.8133 0-2.8133-19.2259 0-22.7441-2.8133-22.7441-16.1763v-50.17c10.3185-11.9563 13.3642-13.598 17.1187-13.598 7.7325 0 9.1373 7.0334 15.7077 7.0334 5.1528 0 7.7325-3.282 7.7325-7.2677 0-5.3917-7.9688-9.6117-14.5328-9.6117zM1031.1275 136.4443c-4.923 2.1104-8.6775 3.0477-11.487 3.0477-6.564 0-9.1437-4.923-9.1437-15.707V79.9447c0-15.0046-6.564-23.6783-19.4621-23.6783-15.7077 0-42.666 12.6593-42.666 24.3813 0 3.517 2.3433 7.0334 7.7388 7.0334 6.564 0 8.205-5.1574 8.9074-9.6124 1.4048-6.7983 5.6254-17.348 17.5849-17.348 8.9074 0 14.769 6.7984 14.769 26.2573v15.9414l-25.7899 9.6123c-17.1188 6.3297-24.1489 12.66-24.1489 22.0373 0 8.9087 6.3278 16.1763 18.2873 16.1763 6.8002 0 12.1894-2.1097 19.692-7.0333l12.1894-7.9707c.9386 9.8467 4.6931 15.2384 8.4412 15.2384.9387 0 1.4048-.2344 1.8773-.4687l24.1489-11.4877c1.4048-.703.4661-3.0476-.9386-2.579zm-43.6047 1.876c-4.923 2.8133-7.9751 3.7507-11.2571 3.7507-8.205 0-13.128-6.0953-13.128-13.363 0-6.0953 3.748-10.5497 12.4256-14.0666l21.8055-8.4394v26.2573l-9.846 5.861z"/>
    <path d="M1131.2286 58.6104c-5.8553 0-8.9074.4687-15.7077.4687-10.7782 0-16.1737-.4687-23.6764-.4687-.7023 0-.7023 2.8133 0 2.8133 16.6463 0 20.867 4.6887 16.1802 18.7554l-18.7598 53.9212-30.9428-63.5336c-3.7545-7.2676 2.3434-9.143 12.4257-9.143.7023 0 .7023-2.8133 0-2.8133-6.3342 0-13.8368.4687-24.149.4687-4.923 0-10.5483-.4687-15.7076-.4687-.7024 0-.7024 2.8133 0 2.8133 5.8617 0 8.4413 3.0477 15.4714 16.645l35.636 72.911c-15.2352 40.5582-23.9127 53.4525-34.9336 53.4525-7.7325 0-8.9074-5.6266-17.8148-5.6266-3.7481 0-7.2664 2.3446-7.2664 7.0333 0 6.3297 5.3892 9.143 11.9532 9.143 20.4008 0 33.5288-14.0666 50.6412-59.3136l28.5994-76.1929c4.923-13.1286 10.3185-18.0517 18.051-18.0517.9386 0 .9386-2.8133 0-2.8133z"/>
  </g>
</svg>