<svg viewBox="0 0 740 183" xmlns="http://www.w3.org/2000/svg" fill-rule="evenodd" clip-rule="evenodd" stroke-linejoin="round" stroke-miterlimit="2"><path d="M177.795 162.52h-5.939v18.182h5.939c5.833 0 9.653-3.427 9.653-9.026 0-5.624-3.82-9.156-9.653-9.156zm-2.956 15.749v-13.316h2.956c4.29 0 6.592 2.564 6.592 6.723 0 4.134-2.302 6.593-6.592 6.593h-2.956zM203.485 162.52h2.982v18.182h-2.982zM231.762 162.285c-5.127 0-9.286 3.846-9.286 9.287 0 5.467 4.159 9.287 9.286 9.287 4.892 0 8.45-3.584 9-7.796v-2.328h-10.02v2.38h6.828c-.445 3.06-2.511 5.05-5.808 5.05-3.61 0-6.226-2.59-6.226-6.593s2.616-6.566 6.226-6.566c2.172 0 3.898.915 4.866 2.746h3.584c-1.386-3.557-4.656-5.467-8.45-5.467zM256.775 162.52h2.982v18.182h-2.982zM275.818 164.953h4.866v15.749h2.982v-15.749h4.84v-2.433h-12.688v2.433zM316.862 180.702h3.14l-6.515-18.208h-3.453l-6.514 18.208h3.114l1.308-3.715h7.612l1.308 3.715zm-2.145-6.148h-5.938l2.982-8.45 2.956 8.45zM335.905 162.52v18.182h9.13v-2.407h-6.148V162.52h-2.982zM379.485 171.572c0 5.467 4.16 9.287 9.287 9.287 3.793 0 7.063-1.884 8.45-5.442h-3.584c-.968 1.936-2.695 2.852-4.866 2.852-3.61 0-6.226-2.59-6.226-6.697s2.616-6.671 6.226-6.671c2.171 0 3.898.916 4.866 2.851h3.584c-1.387-3.557-4.657-5.467-8.45-5.467-5.127 0-9.287 3.846-9.287 9.287zM423.438 167.962c0 1.805-1.047 3.087-3.375 3.087h-3.296v-6.096h3.296c2.328 0 3.375 1.178 3.375 3.009zm-9.653-5.442v18.182h2.982v-7.273h2.276l4.186 7.273h3.557l-4.5-7.534c3.062-.76 4.213-3.061 4.213-5.206 0-2.956-2.12-5.442-6.436-5.442h-6.278zM453.443 162.494h-10.045v18.208h10.045v-2.433h-7.063v-5.572h6.279v-2.433h-6.279v-5.337h7.063v-2.433zM482.456 180.702h3.139l-6.514-18.208h-3.453l-6.514 18.208h3.113l1.308-3.715h7.613l1.308 3.715zm-2.146-6.148h-5.938l2.982-8.45 2.956 8.45zM500.557 164.953h4.866v15.749h2.982v-15.749h4.84v-2.433h-12.688v2.433zM529.332 162.52h2.982v18.182h-2.982zM556.432 177.64l-5.389-15.12h-3.191l6.853 18.182h3.454l6.827-18.182h-3.139l-5.415 15.12zM590.6 162.494h-10.045v18.208h10.046v-2.433h-7.064v-5.572h6.279v-2.433h-6.279v-5.337h7.064v-2.433z" fill="#fff" fill-rule="nonzero"/><g><path d="M80.794 50.724h.736c3.09 0 4.856 4.856 4.856 7.652v34.58c-5.445 3.09-11.478 3.679-15.157 3.679-27.075 0-45.027-23.544-45.027-46.352 0-20.454 12.949-43.262 42.526-43.262 8.682 0 21.19 1.913 23.544 14.126h1.471V5.55H92.42c-1.324 0-3.237-.588-5.739-1.177-4.562-1.03-10.448-2.501-17.364-2.501-36.346 0-52.973 25.456-52.973 49.883 0 24.28 16.775 50.178 52.238 50.178 8.829 0 20.748-1.471 27.664-4.12V58.376c0-2.796 1.913-7.652 4.856-7.652h.735v-1.471H80.794v1.471zM156.282 98.99c-2.943 0-4.709-5.151-4.709-8.094V50.577c2.207.441 4.709.736 6.916.883 8.682 12.95 17.364 26.487 26.193 39.436 3.384 5.15 8.093 9.565 15.892 9.565h6.327v-1.472c-4.414 0-8.24-5.003-11.036-8.976-5.15-8.093-10.447-15.45-15.598-23.25l-10.594-16.186c12.507-2.354 22.955-9.712 22.955-24.574 0-14.862-11.183-22.661-30.754-22.661H136.27v1.471h.735c2.943 0 4.71 4.856 4.71 7.652v78.431c0 2.943-1.767 8.093-4.71 8.093h-.735v1.472h20.748v-1.472h-.736zM153.78 8.344c16.923 0 28.695 3.385 28.695 18.247 0 14.715-11.92 19.423-20.013 19.423-5.15 0-8.534-.147-10.153-.294h-.736V8.345h2.207zM294.011 100.46h21.778v-1.47h-.735c-3.973 0-6.328-4.562-7.652-8.535L274.44 1.576l-33.697 89.761c-1.619 4.12-4.267 7.652-6.769 7.652h-.736v1.472h16.334v-1.472h-.736c-1.618 0-3.237-1.618-3.237-4.12 0-.736.147-1.471.441-2.207l12.802-35.169h25.752l13.243 35.757c.294.883.442 1.766.442 2.502 0 2.207-1.178 3.237-3.532 3.237h-.736v1.472zm-22.367-78.724l11.331 30.754h-22.661l11.33-30.754zM323.293 4.813h.736c3.237 0 7.063 5.74 8.976 8.682l23.691 40.614v36.787c0 3.09-1.765 8.093-4.856 8.093h-.735v1.472h21.042v-1.472h-.736c-2.943 0-4.856-5.297-4.856-8.093V52.784l22.956-39.73c2.207-3.679 5.444-8.24 8.387-8.24V3.341h-15.745v1.471c.442 0 2.943.442 3.385 3.532 0 1.177-.295 1.619-1.03 3.237l-21.19 36.64-22.072-38.7c-.295-.588-.442-1.177-.442-1.618 0-1.913 1.472-2.943 2.796-3.09V3.341h-20.307v1.471zM541.519 7.168c8.976 0 20.16 2.796 22.514 15.156h1.471V5.991c-2.354 0-4.709-.442-7.652-1.472-4.12-1.177-9.27-2.648-15.745-2.648-36.051 0-53.268 25.898-53.268 50.178 0 24.132 17.364 49.883 51.65 49.883 6.916 0 13.096-1.471 18.246-2.796 3.973-1.03 7.064-1.913 10.007-1.913V80.89h-1.472c-4.267 13.39-17.364 15.745-24.574 15.745-24.574 0-43.85-22.661-43.85-45.91 0-20.602 13.684-43.557 42.673-43.557zM646.436 1.87c-32.225 0-50.766 25.752-50.766 51.061 0 25.31 18.54 49.001 48.706 49.001 28.253 0 51.503-20.895 51.503-50.325 0-26.487-18.983-49.736-49.443-49.736zm-.147 94.912c-23.397 0-40.76-24.28-40.76-45.91 0-20.013 14.715-43.851 38.994-43.851 25.016 0 41.35 24.72 41.35 46.352 0 19.57-13.244 42.232-39.584 43.409zM712.653 94.133c0 3.973 2.943 6.916 6.916 6.916 3.973 0 7.063-2.943 7.063-6.916 0-3.973-3.09-7.063-7.063-7.063s-6.916 3.09-6.916 7.063z" fill="#fff" fill-rule="nonzero"/></g><g><path d="M450.622 72.87V69.34l-20.484 7.328v3.884l20.484 7.328v-3.502l-4.18-1.471v-8.564l4.18-1.472zm-6.916 2.413v6.681L434.2 78.61l9.506-3.326zM430.138 46.825h15.245l-15.245 10.094v3.355h20.484V56.92h-15.275l15.275-10.094V43.47h-20.484v3.355zM430.168 26.489v6.68h20.454v-6.68c0-6.563-3.856-10.86-10.154-10.86-6.327 0-10.3 4.297-10.3 10.86zm17.717 3.325h-14.98V26.49c0-4.827 2.884-7.417 7.563-7.417 4.65 0 7.417 2.59 7.417 7.417v3.325z" fill="#fff" fill-rule="nonzero"/></g></svg>